<?xml version="1.0" standalone="no"?>
<!DOCTYPE svg PUBLIC "-//W3C//DTD SVG 1.1//EN" "http://www.w3.org/Graphics/SVG/1.1/DTD/svg11.dtd" >
<svg>
<metadata>
Created by FontForge 20090622 at Thu Mar 17 07:51:45 2016
 By deploy user
Copyright (c) 1990-2008 ParaType, Inc. All Rights Reserved.
</metadata>
<defs>
<font id="FuturaNewMedium-Reg" horiz-adv-x="500" >
  <font-face 
    font-family="Futura New Medium"
    font-weight="450"
    font-stretch="normal"
    units-per-em="1000"
    panose-1="2 11 6 2 2 2 4 2 3 3"
    ascent="800"
    descent="-200"
    x-height="421"
    cap-height="667"
    bbox="-362 -270 1167 935"
    underline-thickness="50"
    underline-position="-50"
    unicode-range="U+0020-U+FB02"
  />
<missing-glyph horiz-adv-x="233" 
 />
    <glyph glyph-name="uniF460" unicode="&#x410;`" horiz-adv-x="656" 
d="M542 0l-70 161h-285l-73 -161h-110l332 706l316 -706h-110zM229 257h202l-99 226zM312 727l-48 40l138 139l86 -60z" />
    <glyph glyph-name="uniF461" unicode="&#x415;`" 
d="M448 667v-96h-266v-169h258v-96h-258v-210h266v-96h-368v667h368zM234 727l-48 40l138 139l86 -60z" />
    <glyph glyph-name="uniF462" unicode="&#x418;`" horiz-adv-x="712" 
d="M530 0v449l-450 -479v697h102v-451l450 479v-695h-102zM340 727l-48 40l138 139l86 -60z" />
    <glyph glyph-name="uniF463" unicode="&#x41e;`" horiz-adv-x="790" 
d="M395 679q149 0 248 -99t99 -247t-99 -247t-248 -99t-248 99t-99 247t99 247t248 99zM395 81q107 0 176 70.5t69 181.5t-69 181.5t-176 70.5t-176 -70.5t-69 -181.5t69 -181.5t176 -70.5zM379 727l-48 40l138 139l86 -60z" />
    <glyph glyph-name="uniF464" unicode="&#x423;`" horiz-adv-x="570" 
d="M6 667h124l172 -356l156 356h106l-301 -667h-106l86 189zM269 727l-48 40l138 139l86 -60z" />
    <glyph glyph-name="uniF465" unicode="&#x42b;`" horiz-adv-x="740" 
d="M80 0v667h102v-269h76q107 0 167 -53q63 -55 63 -147q0 -48 -21.5 -91.5t-61.5 -70.5q-54 -36 -146 -36h-179zM182 302v-206h72q134 0 134 101q0 44 -29.5 74.5t-102.5 30.5h-74zM558 667h102v-667h-102v667zM354 727l-48 40l138 139l86 -60z" />
    <glyph glyph-name="uniF466" unicode="&#x42d;`" horiz-adv-x="622" 
d="M48 511v120q84 48 193 48q146 0 234 -87q99 -98 99 -258q0 -157 -99 -256q-91 -91 -237 -91q-106 0 -190 50v121q76 -77 190 -77q102 0 162 60t68 149h-330v96h328q-9 81 -61 135q-62 64 -166 64q-108 0 -191 -74zM295 727l-48 40l138 139l86 -60z" />
    <glyph glyph-name="uniF467" unicode="&#x42e;`" horiz-adv-x="1000" 
d="M182 402h100q17 104 89 178q97 99 244 99q146 0 241.5 -99t95.5 -247t-96 -247t-241 -99q-166 0 -261 117q-69 86 -72 202h-100v-306h-102v667h102v-265zM615 81q103 0 169 71t66 181t-66 181t-169 71t-169 -71t-66 -181t66 -181t169 -71zM484 727l-48 40l138 139l86 -60
z" />
    <glyph glyph-name="uniF468" unicode="&#x42f;`" horiz-adv-x="534" 
d="M20 0l198 278q-59 7 -103 45q-57 50 -57 142q0 84 51 139q27 29 64 44t60 17t57 2h164v-667h-102v267h-24l-182 -267h-126zM352 573h-50q-82 0 -114 -31q-32 -30 -32 -77q0 -54 38 -80q36 -24 102 -24h56v212zM251 727l-48 40l138 139l86 -60z" />
    <glyph glyph-name="uniF469" unicode="&#x401;`" 
d="M448 667v-96h-266v-169h258v-96h-258v-210h266v-96h-368v667h368zM219 738l-33 29l111 139l63 -46zM63 802q0 19 15 37t41 18q24 0 40 -16t16 -39q0 -24 -16 -40t-40 -16q-26 0 -41 18t-15 38zM353 802q0 23 16 39t40 16q26 0 41 -18t15 -37q0 -20 -15 -38t-41 -18
q-24 0 -40 16t-16 40z" />
    <glyph glyph-name="uniF46A" unicode="&#x430;`" horiz-adv-x="530" 
d="M370 372v49h98v-421h-98v44q-49 -57 -126 -57q-93 0 -148.5 66t-55.5 158q0 100 59.5 160.5t145.5 60.5q79 0 125 -60zM257 344q-52 0 -84.5 -39t-32.5 -96q0 -56 32.5 -95t84.5 -39q50 0 84.5 35t34.5 98q0 65 -34.5 100.5t-84.5 35.5zM340 675l90 -46l-156 -144l-54 34
z" />
    <glyph glyph-name="uniF46B" unicode="&#x435;`" horiz-adv-x="482" 
d="M357 142l82 -46q-28 -50 -71 -77q-49 -32 -124 -32q-88 0 -142 54q-62 62 -62 161q0 104 67 173q57 57 141 57q82 0 135 -55q59 -61 59 -178v-12h-302q4 -53 36 -85q27 -27 75 -27q39 0 67 21q23 18 39 46zM147 267h195q-6 35 -30 57q-26 24 -66 24q-42 0 -69 -27
q-22 -20 -30 -54zM318 675l90 -46l-156 -144l-54 34z" />
    <glyph glyph-name="uniF46C" unicode="&#x438;`" horiz-adv-x="510" 
d="M62 421h98v-239l288 277v-459h-98v245l-288 -277v453zM330 675l90 -46l-156 -144l-54 34z" />
    <glyph glyph-name="uniF46D" unicode="&#x43e;`" horiz-adv-x="530" 
d="M265 432q96 0 160.5 -62.5t64.5 -159.5q0 -96 -64.5 -159.5t-160.5 -63.5t-160.5 63.5t-64.5 159.5q0 97 64.5 159.5t160.5 62.5zM265 75q57 0 91 36.5t34 97.5q0 67 -36.5 101t-88.5 34t-88.5 -34t-36.5 -101q0 -61 34 -97.5t91 -36.5zM340 675l90 -46l-156 -144l-54 34
z" />
    <glyph glyph-name="uniF46E" unicode="&#x443;`" horiz-adv-x="482" 
d="M31 -229l155 295l-180 355h118l120 -246l122 246h110l-335 -650h-110zM316 675l90 -46l-156 -144l-54 34z" />
    <glyph glyph-name="uniF46F" unicode="&#x44b;`" horiz-adv-x="580" 
d="M62 0v421h98v-149h56q27 0 44 -1.5t41 -11.5t42 -30q33 -37 33 -92q0 -63 -38 -101q-17 -17 -40.5 -25.5t-39 -9.5t-43.5 -1h-153zM160 84h45q36 0 51 9q22 16 22 43q0 28 -21 42q-16 10 -51 10h-46v-104zM420 0v421h98v-421h-98zM365 675l90 -46l-156 -144l-54 34z" />
    <glyph glyph-name="uniF470" unicode="&#x44d;`" horiz-adv-x="428" 
d="M40 317v93q56 22 119 22q106 0 168 -62q61 -61 61 -159t-62 -161q-60 -63 -157 -63q-68 0 -129 24v93q51 -29 115 -29q61 0 95 34q25 25 31 65h-195v82h192q-8 45 -42 67q-30 21 -81 21q-60 0 -115 -27zM289 675l90 -46l-156 -144l-54 34z" />
    <glyph glyph-name="uniF471" unicode="&#x44e;`" horiz-adv-x="700" 
d="M160 265h67q10 59 55 105q62 62 157 62q94 0 157.5 -62.5t63.5 -159.5q0 -96 -63.5 -159.5t-157.5 -63.5q-100 0 -162 67q-46 50 -52 121h-65v-175h-98v421h98v-156zM439 344q-51 0 -86 -34t-35 -101t35 -100.5t86 -33.5t86 33.5t35 100.5t-35 101t-86 34zM425 675
l90 -46l-156 -144l-54 34z" />
    <glyph glyph-name="uniF472" unicode="&#x44f;`" horiz-adv-x="418" 
d="M8 0l132 167q-39 6 -67 32q-35 34 -35 87q0 60 39 97q40 38 122 38h157v-421h-98v155h-20l-115 -155h-115zM258 235v102h-57q-35 0 -51 -9q-24 -15 -24 -42t20 -41q15 -10 54 -10h58zM284 675l90 -46l-156 -144l-54 34z" />
    <glyph glyph-name="uniF473" unicode="&#x451;`" horiz-adv-x="482" 
d="M357 142l82 -46q-28 -50 -71 -77q-49 -32 -124 -32q-88 0 -142 54q-62 62 -62 161q0 104 67 173q57 57 141 57q82 0 135 -55q59 -61 59 -178v-12h-302q4 -53 36 -85q27 -27 75 -27q39 0 67 21q23 18 39 46zM147 267h195q-6 35 -30 57q-26 24 -66 24q-42 0 -69 -27
q-22 -20 -30 -54zM265 675l74 -37l-144 -144l-38 25zM52 575q0 24 15.5 40t39.5 16t40 -16t16 -40q0 -26 -18 -41t-38 -15t-37.5 15.5t-17.5 40.5zM322 575q0 24 16 40t40 16q26 0 41 -18t15 -38q0 -23 -17 -39.5t-39 -16.5q-20 0 -38 15t-18 41z" />
    <glyph glyph-name="fi" unicode="fi" horiz-adv-x="470" 
d="M268 331h-106v-331h-98v331h-34v90h34v140q0 78 26 115q46 65 146 65q104 0 146 -65q26 -42 26 -115v-29h-98v18q0 45 -12 65q-19 32 -62 32q-44 0 -62 -32q-12 -19 -12 -65v-129h106v-90zM310 421h98v-421h-98v421z" />
    <glyph glyph-name="fl" unicode="fl" horiz-adv-x="470" 
d="M268 331h-106v-331h-98v331h-34v90h34v140q0 78 26 115q46 65 146 65q104 0 146 -65q26 -40 26 -115v-561h-98v550q0 43 -12 65q-18 32 -62 32t-62 -32q-12 -19 -12 -65v-129h106v-90z" />
    <glyph glyph-name=".notdef" horiz-adv-x="233" 
 />
    <glyph glyph-name=".null" horiz-adv-x="0" 
 />
    <glyph glyph-name="nonmarkingreturn" horiz-adv-x="333" 
 />
    <glyph glyph-name="space" unicode=" " horiz-adv-x="233" 
 />
    <glyph glyph-name="exclam" unicode="!" horiz-adv-x="252" 
d="M175 165h-98v502h98v-502zM66 48q0 25 17.5 42.5t42.5 17.5t42.5 -17.5t17.5 -42.5t-17.5 -42.5t-42.5 -17.5t-42.5 17.5t-17.5 42.5z" />
    <glyph glyph-name="quotedbl" unicode="&#x22;" horiz-adv-x="366" 
d="M156 667l-18 -268h-72l-18 268h108zM318 667l-18 -268h-72l-18 268h108z" />
    <glyph glyph-name="numbersign" unicode="#" horiz-adv-x="600" 
d="M407 0h-98l31 196h-114l-31 -196h-98l31 196h-108l14 88h108l18 112h-108l14 88h108l29 183h98l-29 -183h114l29 183h98l-29 -183h108l-14 -88h-108l-18 -112h108l-14 -88h-108zM354 284l18 112h-114l-18 -112h114z" />
    <glyph glyph-name="dollar" unicode="$" horiz-adv-x="568" 
d="M476 567l-82 -48q-10 24 -30 42q-28 24 -72 24q-47 0 -74 -27q-20 -20 -20 -51q0 -34 26 -56q20 -17 63 -34l50 -20q76 -31 111 -70q46 -51 46 -126q0 -90 -58 -152q-46 -49 -110 -58v-101h-74v98q-77 6 -130 66q-49 55 -56 130l101 22q0 -48 28 -85q32 -40 87 -40
q48 0 79 32q31 31 31 80q0 43 -29 73q-19 20 -67 41l-64 27q-58 25 -94 61q-42 43 -42 102q0 80 51 129q43 41 105 50v89h74v-88q48 -4 87 -33q41 -32 63 -77z" />
    <glyph glyph-name="percent" unicode="%" horiz-adv-x="810" 
d="M194 673q66 0 113.5 -46.5t47.5 -110.5t-47.5 -110.5t-113.5 -46.5t-113.5 46.5t-47.5 110.5t47.5 110.5t113.5 46.5zM194 431q39 0 61 26.5t22 58.5t-22 58.5t-61 26.5t-61 -26.5t-22 -58.5t22 -58.5t61 -26.5zM191 18l381 660l47 -27l-381 -662zM616 307
q66 0 113.5 -46.5t47.5 -110.5t-47.5 -110.5t-113.5 -46.5t-113.5 46.5t-47.5 110.5t47.5 110.5t113.5 46.5zM616 65q39 0 61 26.5t22 58.5t-22 58.5t-61 26.5t-61 -26.5t-22 -58.5t22 -58.5t61 -26.5z" />
    <glyph glyph-name="ampersand" unicode="&#x26;" horiz-adv-x="646" 
d="M537 313l65 -68l-79 -91l123 -154h-124l-66 82q-26 -27 -56 -49q-65 -46 -146 -46q-92 0 -146 54t-54 137q0 60 25 99t71 73l53 37q-66 66 -66 138q0 63 40.5 108.5t117.5 45.5q75 0 117.5 -43t42.5 -101q0 -48 -29 -87q-26 -34 -83 -77l118 -144zM395 154l-132 160
q-46 -25 -73 -55q-36 -39 -36 -85q0 -42 29 -71.5t75 -29.5q36 0 75 26q25 17 62 55zM284 442l37 27q40 28 40 66q0 24 -16.5 42t-49.5 18q-30 0 -47 -16.5t-17 -42.5q0 -31 23 -58z" />
    <glyph glyph-name="quotesingle" unicode="'" horiz-adv-x="204" 
d="M156 667l-18 -268h-72l-18 268h108z" />
    <glyph glyph-name="parenleft" unicode="(" horiz-adv-x="324" 
d="M264 -142l-90 -35q-43 92 -68 202q-26 116 -26 255q0 140 28 265q24 106 66 195l90 -35q-41 -92 -60 -181q-24 -108 -24 -244q0 -131 23 -236q22 -93 61 -186z" />
    <glyph glyph-name="parenright" unicode=")" horiz-adv-x="324" 
d="M150 -177l-90 35q39 93 61 186q23 105 23 236q0 136 -24 244q-19 89 -60 181l90 35q42 -89 66 -195q28 -125 28 -265q0 -139 -26 -255q-25 -110 -68 -202z" />
    <glyph glyph-name="asterisk" unicode="*" horiz-adv-x="550" 
d="M136 655l107 -45l-7 119h78l-8 -118l108 44l25 -72l-114 -28l74 -90l-60 -47l-64 97l-64 -97l-60 47l74 88l-114 28z" />
    <glyph glyph-name="plus" unicode="+" 
d="M33 291v90h170v170h94v-170h170v-90h-170v-170h-94v170h-170z" />
    <glyph glyph-name="comma" unicode="," horiz-adv-x="320" 
d="M10 -129l102 254l88 -34l-124 -247z" />
    <glyph glyph-name="hyphen" unicode="-" horiz-adv-x="340" 
d="M50 162v102h240v-102h-240z" />
    <glyph glyph-name="period" unicode="." horiz-adv-x="252" 
d="M66 48q0 25 17.5 42.5t42.5 17.5t42.5 -17.5t17.5 -42.5t-17.5 -42.5t-42.5 -17.5t-42.5 17.5t-17.5 42.5z" />
    <glyph glyph-name="slash" unicode="/" horiz-adv-x="684" 
d="M0 -177l526 942l80 -36l-526 -942z" />
    <glyph glyph-name="zero" unicode="0" horiz-adv-x="568" 
d="M284 -11q-88 0 -151 72q-85 97 -85 272q0 176 85 273q63 72 151 72t151 -72q85 -97 85 -273q0 -175 -85 -272q-63 -72 -151 -72zM284 588q-54 0 -90 -55q-46 -68 -46 -199q0 -130 46 -200q36 -55 90 -55t90 55q46 70 46 200q0 131 -46 199q-36 55 -90 55z" />
    <glyph glyph-name="one" unicode="1" horiz-adv-x="568" 
d="M250 0v573h-116l56 94h162v-667h-102z" />
    <glyph glyph-name="two" unicode="2" horiz-adv-x="568" 
d="M482 94v-94h-448l231 280q52 63 80 104q35 52 35 96q0 45 -29 76.5t-82 31.5t-84 -35t-34 -86h-98q4 88 56 146q58 65 156 65q101 0 158 -59t57 -142q0 -69 -48 -140q-26 -39 -95 -120l-104 -123h249z" />
    <glyph glyph-name="three" unicode="3" horiz-adv-x="568" 
d="M166 497h-98q4 79 57 130t146 51q91 0 144 -55q48 -49 48 -127q0 -50 -23 -88q-23 -36 -60 -56q42 -16 66 -53q28 -41 28 -103q0 -92 -57 -149q-58 -58 -163 -58q-97 0 -149 56q-49 52 -57 136h98q8 -45 36 -72q32 -30 81 -30q47 0 78 28q35 33 35 94q0 50 -30 79
q-31 30 -86 30h-20v86h14q56 0 85 29q26 26 26 71q0 41 -26 67q-26 25 -71 25q-48 0 -74 -27q-10 -11 -17 -26.5t-9 -24.5t-2 -13z" />
    <glyph glyph-name="four" unicode="4" horiz-adv-x="568" 
d="M448 716v-496h72v-94h-72v-126h-98v126h-330zM198 218h152v215z" />
    <glyph glyph-name="five" unicode="5" horiz-adv-x="568" 
d="M477 667v-94h-206l-33 -111q20 2 31 2q94 0 154 -59q65 -63 65 -171q0 -109 -68 -177q-69 -68 -185 -68q-76 0 -128 30q-48 29 -79 77l77 64q14 -34 51 -58q34 -23 87 -23q63 0 102 37q43 43 43 113t-40 108q-39 37 -109 37q-40 0 -78 -14q-34 -13 -59 -30l99 337h276z
" />
    <glyph glyph-name="six" unicode="6" horiz-adv-x="568" 
d="M348 690l74 -55l-159 -201q20 4 42 4q94 0 154 -62q59 -62 59 -156q0 -103 -66 -168q-64 -63 -172 -63q-109 0 -172 65q-58 61 -58 151q0 66 32 128q7 14 14.5 26.5t17 26.5t14.5 20.5l18.5 24l16.5 21.5zM285 351q-57 0 -96 -37t-39 -99q0 -61 39 -99q39 -37 96 -37
t94 37q39 39 39 99t-39 99q-37 37 -94 37z" />
    <glyph glyph-name="seven" unicode="7" horiz-adv-x="568" 
d="M50 27l332 546h-328v94h496l-420 -690z" />
    <glyph glyph-name="eight" unicode="8" horiz-adv-x="568" 
d="M284 303q-48 0 -79 -31t-31 -81q0 -45 30 -78q30 -34 80 -34t80 34q30 33 30 78q0 50 -31 81t-79 31zM284 588q-44 0 -73 -27q-28 -28 -28 -74q0 -43 27 -70q28 -30 74 -30t74 30q27 27 27 70q0 46 -28 74q-29 27 -73 27zM394 347q45 -19 70 -54q30 -40 30 -100
q0 -87 -53 -142q-58 -62 -157 -62t-157 62q-53 55 -53 142q0 60 30 100q25 35 70 54q-36 15 -59 50q-24 38 -24 91q0 85 56 139q54 51 137 51t137 -51q56 -54 56 -139q0 -53 -24 -91q-23 -35 -59 -50z" />
    <glyph glyph-name="nine" unicode="9" horiz-adv-x="568" 
d="M220 -23l-74 55l157 201q-17 -4 -36 -4q-94 0 -156 62q-61 61 -61 152q0 99 66 167t172 68q108 0 172 -66q58 -60 58 -151q0 -65 -32 -127q-7 -14 -14.5 -26.5t-17 -26.5t-14.5 -20.5l-18.5 -24l-16.5 -21.5zM283 316q57 0 96 40q39 41 39 99t-39 95q-40 38 -95 38
t-95 -38q-39 -39 -39 -98q0 -60 39 -99q39 -37 94 -37z" />
    <glyph glyph-name="colon" unicode=":" horiz-adv-x="252" 
d="M66 372q0 25 17.5 42.5t42.5 17.5t42.5 -17.5t17.5 -42.5t-17.5 -42.5t-42.5 -17.5t-42.5 17.5t-17.5 42.5zM66 47q0 25 17.5 42.5t42.5 17.5t42.5 -17.5t17.5 -42.5t-17.5 -42.5t-42.5 -17.5t-42.5 17.5t-17.5 42.5z" />
    <glyph glyph-name="semicolon" unicode=";" horiz-adv-x="320" 
d="M90 372q0 25 17.5 42.5t42.5 17.5t42.5 -17.5t17.5 -42.5t-17.5 -42.5t-42.5 -17.5t-42.5 17.5t-17.5 42.5zM10 -129l102 254l88 -34l-124 -247z" />
    <glyph glyph-name="less" unicode="&#x3c;" 
d="M137 332l330 -156v-96l-434 211v82l434 211v-96z" />
    <glyph glyph-name="equal" unicode="=" 
d="M33 380v84h434v-84h-434zM33 218v84h434v-84h-434z" />
    <glyph glyph-name="greater" unicode="&#x3e;" 
d="M363 332l-330 156v96l434 -211v-82l-434 -211v96z" />
    <glyph glyph-name="question" unicode="?" horiz-adv-x="434" 
d="M158 485h-102q-2 23 -2 34q0 75 45 118q44 42 117 42q75 0 121 -44q43 -41 43 -112q0 -81 -59 -123q-21 -15 -70 -35l-30 -12q-30 -12 -40 -22q-15 -15 -15 -36q0 -25 17 -39q12 -10 30 -10q24 0 38 15q16 17 16 53h98q0 -70 -44 -116q-42 -42 -109 -42q-62 0 -105 41
q-41 41 -41 106q0 51 32 86q24 26 87 51q59 23 73 35q22 21 22 50q0 30 -17 47t-46 17q-30 0 -46 -18q-17 -17 -17 -53q0 -13 4 -33zM158 47q0 25 17.5 42.5t42.5 17.5t42.5 -17.5t17.5 -42.5t-17.5 -42.5t-42.5 -17.5t-42.5 17.5t-17.5 42.5z" />
    <glyph glyph-name="at" unicode="@" horiz-adv-x="732" 
d="M474 439l10 52h68l-39 -201q-6 -30 -6 -45q0 -21 10 -30.5t22 -9.5q32 0 60 40q17 24 26 64t9 71q0 93 -64.5 165t-184.5 72q-121 0 -204 -83t-83 -206q0 -88 46 -159t126 -101q50 -20 114 -20q110 0 203 41l17 -62q-94 -39 -215 -39q-148 0 -242 81q-113 99 -113 260
q0 151 99 249.5t249 98.5q135 0 225.5 -80.5t90.5 -215.5q0 -106 -48 -170q-48 -63 -115 -63q-31 0 -50.5 17t-25.5 45q-44 -68 -124 -68q-52 0 -96.5 38.5t-44.5 121.5q0 93 54 147t121 54q76 0 105 -64zM345 212q43 0 75.5 38t32.5 97q0 43 -22 64.5t-54 21.5
q-44 0 -75 -35t-31 -95q0 -44 21.5 -67.5t52.5 -23.5z" />
    <glyph glyph-name="A" unicode="A" horiz-adv-x="656" 
d="M542 0l-70 161h-285l-73 -161h-110l332 706l316 -706h-110zM229 257h202l-99 226z" />
    <glyph glyph-name="B" unicode="B" horiz-adv-x="526" 
d="M80 667h101q68 0 110 -11t74 -41q53 -50 53 -132q0 -47 -20 -79q-18 -31 -50 -46q52 -13 86 -48q44 -46 44 -125q0 -73 -44 -120q-62 -65 -187 -65h-167v667zM182 571v-191h31q56 0 83 26q26 25 26 76q0 41 -24 64q-26 25 -81 25h-35zM182 296v-200h62q69 0 101 26
q33 26 33 74q0 43 -27 70q-31 30 -105 30h-64z" />
    <glyph glyph-name="C" unicode="C" horiz-adv-x="620" 
d="M574 631v-120q-82 74 -181 74q-108 0 -175.5 -71.5t-67.5 -182.5q0 -107 69 -178.5t175 -71.5q99 0 180 77v-121q-84 -50 -183 -50q-139 0 -236 92q-107 100 -107 252q0 160 107 261q92 87 241 87q103 0 178 -48z" />
    <glyph glyph-name="D" unicode="D" horiz-adv-x="644" 
d="M80 667h140q79 0 138 -13.5t110 -51.5q61 -46 94.5 -116t33.5 -153q0 -175 -134 -269q-54 -38 -110 -51t-134 -13h-138v667zM182 571v-475h44q114 0 177 47q91 69 91 190q0 62 -25.5 113t-64.5 79q-64 46 -178 46h-44z" />
    <glyph glyph-name="E" unicode="E" 
d="M448 667v-96h-266v-169h258v-96h-258v-210h266v-96h-368v667h368z" />
    <glyph glyph-name="F" unicode="F" horiz-adv-x="450" 
d="M414 667v-96h-232v-169h224v-96h-224v-306h-102v667h334z" />
    <glyph glyph-name="G" unicode="G" horiz-adv-x="748" 
d="M425 253v94h275v-5q0 -174 -99 -270q-88 -85 -227 -85t-227 91q-99 102 -99 252q0 75 27 140.5t70 108.5q45 45 110.5 72.5t140.5 27.5q99 0 174 -42q69 -39 108 -100l-81 -57q-36 50 -82 76q-49 29 -118 29q-107 0 -176 -69q-33 -33 -52 -83t-19 -104q0 -107 69 -181
q63 -67 167 -67q89 0 149 59q49 48 56 113h-166z" />
    <glyph glyph-name="H" unicode="H" horiz-adv-x="650" 
d="M182 667v-264h286v264h102v-667h-102v307h-286v-307h-102v667h102z" />
    <glyph glyph-name="I" unicode="I" horiz-adv-x="262" 
d="M80 667h102v-667h-102v667z" />
    <glyph glyph-name="J" unicode="J" horiz-adv-x="362" 
d="M180 667h102v-432q0 -102 -25 -152q-48 -96 -157 -96q-66 0 -118 34l50 86q28 -24 70 -24q49 0 67 45q11 27 11 107v432z" />
    <glyph glyph-name="K" unicode="K" horiz-adv-x="586" 
d="M182 667v-266l258 266h134l-301 -302l303 -365h-136l-238 296l-20 -20v-276h-102v667h102z" />
    <glyph glyph-name="L" unicode="L" horiz-adv-x="394" 
d="M80 667h102v-571h196v-96h-298v667z" />
    <glyph glyph-name="M" unicode="M" horiz-adv-x="852" 
d="M164 0h-104l140 717l232 -518l234 518l126 -717h-104l-68 402l-194 -433l-192 434z" />
    <glyph glyph-name="N" unicode="N" horiz-adv-x="746" 
d="M182 0h-102v712l484 -507v462h102v-708l-484 507v-466z" />
    <glyph glyph-name="O" unicode="O" horiz-adv-x="790" 
d="M395 679q149 0 248 -99t99 -247t-99 -247t-248 -99t-248 99t-99 247t99 247t248 99zM395 81q107 0 176 70.5t69 181.5t-69 181.5t-176 70.5t-176 -70.5t-69 -181.5t69 -181.5t176 -70.5z" />
    <glyph glyph-name="P" unicode="P" horiz-adv-x="480" 
d="M80 667h147q92 0 146 -36q40 -27 61.5 -70.5t21.5 -91.5q0 -90 -65 -146q-61 -52 -163 -52h-46v-271h-102v667zM182 573v-208h46q64 0 97 28.5t33 76.5q0 17 -4.5 32t-17 32.5t-40.5 28t-69 10.5h-45z" />
    <glyph glyph-name="Q" unicode="Q" horiz-adv-x="790" 
d="M632 -13l-50 50q-79 -50 -187 -50q-150 0 -248.5 98.5t-98.5 247.5q0 148 99 247t248 99t248 -99.5t99 -246.5q0 -140 -92 -239l108 -107h-126zM479 264l102 -101q59 68 59 170q0 111 -69 181.5t-176 70.5t-176 -70.5t-69 -181.5t69 -181.5t176 -70.5q65 0 115 26
l-158 157h127z" />
    <glyph glyph-name="R" unicode="R" horiz-adv-x="534" 
d="M80 667h119q118 0 176 -39q79 -53 79 -157q0 -71 -40.5 -121t-107.5 -65l208 -285h-123l-191 273h-18v-273h-102v667zM182 573v-212h32q13 0 26 1t35.5 7t39 16.5t29 32.5t12.5 52q0 103 -139 103h-35z" />
    <glyph glyph-name="S" unicode="S" horiz-adv-x="516" 
d="M450 567l-82 -48q-10 24 -30 42q-30 24 -72 24q-45 0 -69.5 -23t-24.5 -57q0 -52 72 -81l67 -27q157 -64 157 -196q0 -95 -60.5 -154.5t-154.5 -59.5q-97 0 -157 67q-49 55 -56 130l101 22q0 -48 28 -85q32 -40 87 -40q47 0 78.5 31t31.5 81q0 46 -26.5 71t-69.5 43
l-64 27q-136 57 -136 169q0 72 52.5 124t142.5 52q81 0 134 -45q32 -28 51 -67z" />
    <glyph glyph-name="T" unicode="T" horiz-adv-x="428" 
d="M418 571h-153v-571h-102v571h-153v96h408v-96z" />
    <glyph glyph-name="U" unicode="U" horiz-adv-x="654" 
d="M80 667h102v-402q0 -78 21 -115q17 -28 50 -48.5t74 -20.5t74 20.5t50 48.5q21 37 21 115v402h102v-429q0 -105 -62 -173q-72 -78 -185 -78t-185 78q-62 68 -62 173v429z" />
    <glyph glyph-name="V" unicode="V" horiz-adv-x="600" 
d="M4 667h110l186 -465l186 465h110l-296 -710z" />
    <glyph glyph-name="W" unicode="W" horiz-adv-x="940" 
d="M4 667h110l176 -446l180 478l174 -478l182 446h110l-298 -710l-174 473l-176 -473z" />
    <glyph glyph-name="X" unicode="X" horiz-adv-x="546" 
d="M10 0l210 348l-184 319h114l130 -226l133 226h114l-192 -319l201 -348h-114l-146 255l-152 -255h-114z" />
    <glyph glyph-name="Y" unicode="Y" horiz-adv-x="540" 
d="M219 0v288l-219 379h116l154 -267l154 267h116l-219 -379v-288h-102z" />
    <glyph glyph-name="Z" unicode="Z" horiz-adv-x="554" 
d="M524 667l-328 -571h320v-96h-486l328 571h-274v96h440z" />
    <glyph glyph-name="bracketleft" unicode="[" horiz-adv-x="316" 
d="M270 639h-84v-726h84v-90h-182v906h182v-90z" />
    <glyph glyph-name="backslash" unicode="\" horiz-adv-x="684" 
d="M684 -177l-80 -36l-526 942l80 36z" />
    <glyph glyph-name="bracketright" unicode="]" horiz-adv-x="316" 
d="M46 -87h84v726h-84v90h182v-906h-182v90z" />
    <glyph glyph-name="asciicircum" unicode="^" 
d="M250 590l-130 -240h-104l171 317h126l171 -317h-104z" />
    <glyph glyph-name="underscore" unicode="_" horiz-adv-x="400" 
d="M0 -144v86h400v-86h-400z" />
    <glyph glyph-name="grave" unicode="`" 
d="M241 485l-156 144l90 46l120 -156z" />
    <glyph glyph-name="a" unicode="a" horiz-adv-x="530" 
d="M370 372v49h98v-421h-98v44q-49 -57 -126 -57q-93 0 -148.5 66t-55.5 158q0 100 59.5 160.5t145.5 60.5q79 0 125 -60zM257 344q-52 0 -84.5 -39t-32.5 -96q0 -56 32.5 -95t84.5 -39q50 0 84.5 35t34.5 98q0 65 -34.5 100.5t-84.5 35.5z" />
    <glyph glyph-name="b" unicode="b" horiz-adv-x="530" 
d="M160 729v-357q46 60 125 60q86 0 145.5 -60.5t59.5 -160.5q0 -92 -55.5 -158t-148.5 -66q-77 0 -126 57v-44h-98v729h98zM273 344q-50 0 -84.5 -35.5t-34.5 -100.5q0 -63 34.5 -98t84.5 -35q52 0 84.5 39t32.5 95q0 57 -32.5 96t-84.5 39z" />
    <glyph glyph-name="c" unicode="c" horiz-adv-x="420" 
d="M388 402v-110q-53 52 -119 52q-56 0 -93 -37q-36 -36 -36 -97q0 -63 38 -101q36 -34 89 -34q73 0 121 54v-109q-53 -33 -128 -33q-101 0 -160 62q-60 62 -60 158q0 99 64 163q62 62 169 62q61 0 115 -30z" />
    <glyph glyph-name="d" unicode="d" horiz-adv-x="530" 
d="M370 372v357h98v-729h-98v44q-49 -57 -126 -57q-93 0 -148.5 66t-55.5 158q0 100 59.5 160.5t145.5 60.5q79 0 125 -60zM257 344q-52 0 -84.5 -39t-32.5 -96q0 -56 32.5 -95t84.5 -39q50 0 84.5 35t34.5 98q0 65 -34.5 100.5t-84.5 35.5z" />
    <glyph glyph-name="e" unicode="e" horiz-adv-x="482" 
d="M357 142l82 -46q-28 -50 -71 -77q-49 -32 -124 -32q-88 0 -142 54q-62 62 -62 161q0 104 67 173q57 57 141 57q82 0 135 -55q59 -61 59 -178v-12h-302q4 -53 36 -85q27 -27 75 -27q39 0 67 21q23 18 39 46zM147 267h195q-6 35 -30 57q-26 24 -66 24q-42 0 -69 -27
q-22 -20 -30 -54z" />
    <glyph glyph-name="f" unicode="f" horiz-adv-x="270" 
d="M276 331h-106v-331h-98v331h-42v90h42v146q0 88 41 132q39 41 100 41q35 0 63 -12v-97q-25 15 -47 15q-28 0 -43 -16q-16 -16 -16 -50v-159h106v-90z" />
    <glyph glyph-name="g" unicode="g" horiz-adv-x="530" 
d="M370 375v46h98v-387q0 -82 -14 -133.5t-55 -85.5q-55 -45 -140 -45q-86 0 -138 52q-51 51 -62 131h95q7 -40 31 -66q27 -29 76 -29t77 28q32 31 32 106v55q-47 -60 -128 -60q-85 0 -139 57q-63 66 -63 167t62 163q57 58 143 58q77 0 125 -57zM257 344q-45 0 -74 -28
q-43 -40 -43 -107q0 -69 42 -106q31 -28 75 -28q49 0 82 34q37 40 37 99q0 68 -40 106q-30 30 -79 30z" />
    <glyph glyph-name="h" unicode="h" horiz-adv-x="486" 
d="M62 0v729h98v-344q46 47 113 47q84 0 124 -57q27 -39 27 -117v-258h-98v249q0 52 -19 73q-20 22 -55 22q-48 0 -72 -35q-20 -29 -20 -106v-203h-98z" />
    <glyph glyph-name="i" unicode="i" horiz-adv-x="222" 
d="M62 421h98v-421h-98v421zM48 595q0 27 18 45t45 18t45 -18t18 -45t-18 -45t-45 -18t-45 18t-18 45z" />
    <glyph glyph-name="j" unicode="j" horiz-adv-x="222" 
d="M62 421h98v-650h-98v650zM48 595q0 27 18 45t45 18t45 -18t18 -45t-18 -45t-45 -18t-45 18t-18 45z" />
    <glyph glyph-name="k" unicode="k" horiz-adv-x="442" 
d="M62 729h98v-449l137 141h130l-181 -175l194 -246h-124l-138 180l-18 -18v-162h-98v729z" />
    <glyph glyph-name="l" unicode="l" horiz-adv-x="222" 
d="M62 729h98v-729h-98v729z" />
    <glyph glyph-name="m" unicode="m" horiz-adv-x="702" 
d="M62 0v421h98v-39q41 50 104 50q73 0 109 -62q43 62 125 62t120 -66q22 -38 22 -106v-260h-98v232q0 55 -9 75q-14 37 -56 37q-36 0 -58 -31q-19 -27 -19 -96v-217h-98v232q0 55 -9 75q-14 37 -56 37q-36 0 -58 -31q-19 -27 -19 -96v-217h-98z" />
    <glyph glyph-name="n" unicode="n" horiz-adv-x="485" 
d="M61 0v421h98v-39q45 50 114 50q83 0 124 -57q26 -37 26 -117v-258h-98v234q0 38 -6 62t-19 33.5t-23.5 12t-28.5 2.5q-21 0 -33.5 -3.5t-27 -16t-21.5 -43t-7 -79.5v-202h-98z" />
    <glyph glyph-name="o" unicode="o" horiz-adv-x="530" 
d="M265 432q96 0 160.5 -62.5t64.5 -159.5q0 -96 -64.5 -159.5t-160.5 -63.5t-160.5 63.5t-64.5 159.5q0 97 64.5 159.5t160.5 62.5zM265 75q57 0 91 36.5t34 97.5q0 67 -36.5 101t-88.5 34t-88.5 -34t-36.5 -101q0 -61 34 -97.5t91 -36.5z" />
    <glyph glyph-name="p" unicode="p" horiz-adv-x="530" 
d="M160 49v-278h-98v650h98v-46q48 57 125 57q86 0 145.5 -60.5t59.5 -158.5q0 -101 -62 -163.5t-142 -62.5q-75 0 -126 62zM273 344q-50 0 -84.5 -35.5t-34.5 -100.5q0 -63 34.5 -98t84.5 -35q52 0 84.5 39t32.5 95q0 57 -32.5 96t-84.5 39z" />
    <glyph glyph-name="q" unicode="q" horiz-adv-x="530" 
d="M370 375v46h98v-650h-98v276q-49 -60 -126 -60q-94 0 -149 66t-55 158q0 100 59.5 160.5t145.5 60.5q77 0 125 -57zM257 344q-52 0 -84.5 -39t-32.5 -96q0 -56 32.5 -95t84.5 -39q50 0 84.5 35t34.5 98q0 65 -34.5 100.5t-84.5 35.5z" />
    <glyph glyph-name="r" unicode="r" horiz-adv-x="332" 
d="M62 0v421h98v-38q19 22 41 35q24 14 60 14q43 0 77 -20l-40 -89q-24 15 -50 15q-39 0 -61 -23q-27 -29 -27 -97v-218h-98z" />
    <glyph glyph-name="s" unicode="s" horiz-adv-x="360" 
d="M319 358l-73 -48q-23 36 -60 36q-19 0 -30 -11q-9 -9 -9 -22q0 -15 14 -24q3 -2 6 -3.5l11 -5.5l16 -8l50 -25q42 -21 59 -39q31 -31 31 -78q0 -56 -37 -96q-43 -47 -118 -47q-56 0 -91 27q-38 28 -54 77l80 38q10 -29 23 -40q16 -16 43 -16q26 0 40 14t14 33
q0 18 -13 32q-14 14 -42 26l-36 17q-42 20 -58 36q-30 29 -30 71q0 53 35 90q38 40 103 40q45 0 78 -22q30 -19 48 -52z" />
    <glyph glyph-name="t" unicode="t" horiz-adv-x="242" 
d="M238 331h-75v-331h-98v331h-41v90h41v154h98v-154h75v-90z" />
    <glyph glyph-name="u" unicode="u" horiz-adv-x="484" 
d="M62 421h98v-241q0 -53 18 -76q22 -29 64 -29t64 29q18 23 18 76v241h98v-244q0 -93 -45 -138q-52 -52 -137 -52q-82 0 -133 52q-45 45 -45 138v244z" />
    <glyph glyph-name="v" unicode="v" horiz-adv-x="448" 
d="M6 421h110l108 -240l108 240h110l-218 -451z" />
    <glyph glyph-name="w" unicode="w" horiz-adv-x="686" 
d="M6 421h110l109 -241l118 277l118 -277l109 241h110l-219 -451l-118 269l-118 -269z" />
    <glyph glyph-name="x" unicode="x" horiz-adv-x="496" 
d="M6 0l186 228l-150 193h116l93 -123l94 123h120l-155 -193l180 -228h-118l-121 157l-125 -157h-120z" />
    <glyph glyph-name="y" unicode="y" horiz-adv-x="482" 
d="M31 -229l155 295l-180 355h118l120 -246l122 246h110l-335 -650h-110z" />
    <glyph glyph-name="z" unicode="z" horiz-adv-x="480" 
d="M472 421l-271 -331h250v-90h-443l273 331h-215v90h406z" />
    <glyph glyph-name="braceleft" unicode="{" 
d="M288 565v-168q0 -49 -12 -74q-16 -32 -50 -47q34 -15 50 -47q12 -25 12 -74v-168q0 -47 17 -64q17 -16 71 -16h8v-84h-47q-71 0 -103 24q-44 33 -44 115v191q0 73 -56 83v80q56 10 56 83v191q0 82 44 115q31 24 103 24h47v-84h-8q-54 0 -71 -16q-17 -17 -17 -64z" />
    <glyph glyph-name="bar" unicode="|" 
d="M202 -250v1000h96v-1000h-96z" />
    <glyph glyph-name="braceright" unicode="}" 
d="M230 397v168q0 47 -17 64q-17 16 -71 16h-8v84h47q71 0 103 -24q44 -33 44 -115v-191q0 -73 56 -83v-80q-56 -10 -56 -83v-191q0 -82 -44 -115q-32 -24 -103 -24h-47v84h8q54 0 71 16q17 17 17 64v168q0 49 12 74q16 32 50 47q-34 15 -50 47q-12 25 -12 74z" />
    <glyph glyph-name="asciitilde" unicode="~" 
d="M435 361l57 -33q-26 -61 -66 -93q-36 -28 -83 -28q-36 0 -112 32q-61 26 -87 26q-31 0 -51 -22q-18 -18 -29 -45l-56 36q21 51 50 83q37 42 92 42q38 0 110 -31q65 -28 93 -28q29 0 49 18q20 17 33 43z" />
    <glyph glyph-name="uni00A0" unicode="&#xa0;" horiz-adv-x="233" 
 />
    <glyph glyph-name="exclamdown" unicode="&#xa1;" horiz-adv-x="252" 
d="M77 272h98v-502h-98v502zM186 389q0 -25 -17.5 -42.5t-42.5 -17.5t-42.5 17.5t-17.5 42.5t17.5 42.5t42.5 17.5t42.5 -17.5t17.5 -42.5z" />
    <glyph glyph-name="cent" unicode="&#xa2;" horiz-adv-x="568" 
d="M438 527v-109q-48 51 -122 51q-53 0 -87 -34q-39 -37 -39 -100q0 -64 38 -100q37 -35 92 -35q70 0 118 54v-109q-44 -29 -94 -32v-100h-74v103q-71 11 -120 60q-60 60 -60 158q0 102 68 166q48 46 112 54v101h74v-99q49 -4 94 -29z" />
    <glyph glyph-name="sterling" unicode="&#xa3;" horiz-adv-x="568" 
d="M516 444h-98v4q0 70 -35 105q-31 31 -80 31q-53 0 -86 -31q-33 -33 -33 -81q0 -45 51 -142h130v-72h-101q12 -36 12 -65q0 -34 -14 -65l53 -19q60 -20 76 -20q48 0 69 63l82 -48q-22 -46 -51 -75q-38 -38 -97 -38q-40 0 -112 25q-76 28 -101 28q-49 0 -68 -59l-87 44
q26 56 70 87q30 20 63 22q15 30 15 62q0 34 -15 58h-114v72h78q-41 86 -41 141q0 87 57 144q65 63 165 63q95 0 151 -56q61 -61 61 -173v-5z" />
    <glyph glyph-name="currency" unicode="&#xa4;" horiz-adv-x="668" 
d="M92 660l99 -99q59 48 143 48t143 -48l99 99l54 -54l-99 -99q45 -58 45 -140t-45 -140l99 -99l-54 -54l-99 99q-59 -48 -143 -48t-143 48l-99 -99l-54 54l99 99q-45 58 -45 140t45 140l-99 99zM334 211q65 0 108.5 44t43.5 112t-43.5 112t-108.5 44t-108.5 -44t-43.5 -112
t43.5 -112t108.5 -44z" />
    <glyph glyph-name="yen" unicode="&#xa5;" horiz-adv-x="568" 
d="M523 377h-143l-41 -74h184v-70h-192v-233h-94v233h-192v70h184l-41 74h-143v70h104l-121 220h110l146 -267l146 267h110l-121 -220h104v-70z" />
    <glyph glyph-name="brokenbar" unicode="&#xa6;" 
d="M202 390v360h96v-360h-96zM202 -250v360h96v-360h-96z" />
    <glyph glyph-name="section" unicode="&#xa7;" horiz-adv-x="568" 
d="M484 525h-94q0 54 -17 80q-24 38 -74 38q-45 0 -71 -28q-24 -26 -24 -62q0 -31 20 -51q17 -17 75 -37q105 -35 139 -69q46 -44 46 -115q0 -57 -24 -94q-23 -38 -70 -61q74 -39 74 -127q0 -74 -48 -122q-54 -54 -140 -54t-139 53t-53 142h94q0 -53 26 -81q25 -28 72 -28
q41 0 66 22q26 22 26 59q0 39 -31 66q-37 32 -75 37q-21 3 -66.5 26t-61.5 40q-44 45 -44 118q0 56 27 95q24 37 69 57q-33 17 -55 48q-23 33 -23 76q0 72 47 121q53 55 143 55q86 0 137 -52q49 -50 49 -147v-5zM287 377q-42 0 -69 -27q-28 -28 -28 -71t27 -70
q28 -28 70 -28q41 0 70 29q27 27 27 69q0 41 -28 71q-27 27 -69 27z" />
    <glyph glyph-name="dieresis" unicode="&#xa8;" 
d="M98 569q0 26 18 44t44 18t44 -18t18 -44t-18 -44t-44 -18t-44 18t-18 44zM278 569q0 26 18 44t44 18t44 -18t18 -44t-18 -44t-44 -18t-44 18t-18 44z" />
    <glyph glyph-name="copyright" unicode="&#xa9;" horiz-adv-x="758" 
d="M33 333q0 150 98 248.5t248 98.5t248 -98.5t98 -248.5t-98 -248.5t-248 -98.5t-248 98.5t-98 248.5zM669 333q0 126 -82 211.5t-208 85.5t-208 -85.5t-82 -211.5t82.5 -211.5t207.5 -85.5t207.5 85.5t82.5 211.5zM512 510v-87q-51 50 -118 50q-54 0 -96.5 -37t-42.5 -104
q0 -61 39 -99.5t101 -38.5t117 51v-88q-55 -31 -118 -31q-92 0 -153.5 59t-61.5 147q0 91 62.5 150t156.5 59q61 0 114 -31z" />
    <glyph glyph-name="ordfeminine" unicode="&#xaa;" horiz-adv-x="372" 
d="M253 632v28h66v-266h-66v25q-30 -32 -79 -32q-59 0 -94 35q-39 39 -39 103t40 106q35 36 90 36t82 -35zM182 610q-30 0 -50 -18q-25 -22 -25 -66q0 -39 22 -61t53 -22q33 0 54 23q20 21 20 60q0 44 -24 66q-20 18 -50 18zM52 343h267v-52h-267v52z" />
    <glyph glyph-name="guillemotleft" unicode="&#xab;" horiz-adv-x="507" 
d="M140 219l127 -165l-65 -47l-162 212l162 212l65 -47zM326 219l127 -165l-65 -47l-162 212l162 212l65 -47z" />
    <glyph glyph-name="logicalnot" unicode="&#xac;" 
d="M467 0h-98v179h-336v88h434v-267z" />
    <glyph glyph-name="uni00AD" unicode="&#xad;" horiz-adv-x="340" 
d="M50 162v102h240v-102h-240z" />
    <glyph glyph-name="registered" unicode="&#xae;" horiz-adv-x="758" 
d="M33 333q0 150 98 248.5t248 98.5t248 -98.5t98 -248.5t-98 -248.5t-248 -98.5t-248 98.5t-98 248.5zM669 333q0 126 -82 211.5t-208 85.5t-208 -85.5t-82 -211.5t82.5 -211.5t207.5 -85.5t207.5 85.5t82.5 211.5zM548 153h-87l-116 148v-148h-71v374h99q42 0 71 -12
t41.5 -31t17 -35.5t4.5 -33.5q0 -41 -22.5 -68.5t-60.5 -37.5zM345 464v-104h14q78 0 78 53q0 51 -76 51h-16z" />
    <glyph glyph-name="macron" unicode="&#xaf;" 
d="M85 508v78h330v-78h-330z" />
    <glyph glyph-name="degree" unicode="&#xb0;" 
d="M104 522q0 61 42 103t104 42t104 -42t42 -103t-42 -103t-104 -42t-104 42t-42 103zM166 522q0 -37 24.5 -62t59.5 -25t59.5 25t24.5 62t-24.5 62t-59.5 25t-59.5 -25t-24.5 -62z" />
    <glyph glyph-name="plusminus" unicode="&#xb1;" 
d="M33 350v90h170v163h94v-163h170v-90h-170v-163h-94v163h-170zM33 60v90h434v-90h-434z" />
    <glyph glyph-name="twosuperior" unicode="&#xb2;" horiz-adv-x="370" 
d="M314 333v-66h-290l146 162q34 38 50 62q21 30 21 57t-17.5 43.5t-45.5 16.5q-32 0 -51 -22t-22 -51h-70q3 58 37 96q38 43 103 43t101.5 -36t36.5 -88q0 -36 -30 -85q-19 -30 -55 -70l-55 -62h141z" />
    <glyph glyph-name="threesuperior" unicode="&#xb3;" horiz-adv-x="370" 
d="M115 553h-70q3 41 23 70q33 51 110 51q63 0 95 -32.5t32 -79.5q0 -62 -52 -84q11 -4 21.5 -10.5t24 -28.5t13.5 -52q0 -53 -36.5 -90t-104.5 -37q-95 0 -128 78q-10 24 -11 48h70q6 -60 69 -60q34 0 51.5 18t17.5 44q0 12 -3.5 23t-20 23t-45.5 12h-24v66h24q63 0 63 47
q0 24 -16 36.5t-42 12.5q-28 0 -43.5 -15t-17.5 -40z" />
    <glyph glyph-name="acute" unicode="&#xb4;" 
d="M325 675l90 -46l-156 -144l-54 34z" />
    <glyph glyph-name="mu" unicode="&#xb5;" horiz-adv-x="524" 
d="M160 -229h-98v650h98v-205q0 -59 17 -91q26 -49 84 -49q55 0 83 50q20 35 20 96v199h98v-421h-98v73q-12 -39 -40.5 -62t-65.5 -23q-66 0 -98 69v-286z" />
    <glyph glyph-name="paragraph" unicode="&#xb6;" horiz-adv-x="616" 
d="M301 -95h-83v412h-13q-86 0 -137 53q-44 44 -44 119q0 84 56 132q55 46 168 46h297v-76h-66v-686h-82v686h-96v-686z" />
    <glyph glyph-name="periodcentered" unicode="&#xb7;" horiz-adv-x="200" 
d="M22 340q0 33 22.5 55.5t55.5 22.5t55.5 -22.5t22.5 -55.5t-22.5 -55.5t-55.5 -22.5t-55.5 22.5t-22.5 55.5z" />
    <glyph glyph-name="cedilla" unicode="&#xb8;" 
d="M258 -53l82 -32l-102 -134l-64 32z" />
    <glyph glyph-name="onesuperior" unicode="&#xb9;" horiz-adv-x="370" 
d="M162 267v334h-78l42 66h110v-400h-74z" />
    <glyph glyph-name="ordmasculine" unicode="&#xba;" horiz-adv-x="376" 
d="M188 386q-66 0 -107 41q-39 39 -39 102q0 61 41 100q40 38 105 38q63 0 105 -38q41 -39 41 -102q0 -61 -39 -100q-43 -41 -107 -41zM188 611q-33 0 -54 -21q-25 -25 -25 -63q0 -36 23 -61q21 -23 56 -23q33 0 55 22q24 26 24 61q0 39 -25 64q-23 21 -54 21zM52 343h272
v-52h-272v52z" />
    <glyph glyph-name="guillemotright" unicode="&#xbb;" horiz-adv-x="507" 
d="M367 219l-127 165l65 47l162 -212l-162 -212l-65 47zM181 219l-127 165l65 47l162 -212l-162 -212l-65 47z" />
    <glyph glyph-name="onequarter" unicode="&#xbc;" horiz-adv-x="800" 
d="M162 267v334h-78l42 66h108v-400h-72zM225 17l382 661l48 -28l-382 -661zM725 430v-288h43v-66h-43v-76h-72v76h-209zM575 138h78v103z" />
    <glyph glyph-name="onehalf" unicode="&#xbd;" horiz-adv-x="800" 
d="M162 267v334h-78l42 66h108v-400h-72zM165 17l382 661l48 -28l-382 -661zM744 66v-66h-290l146 162q34 38 50 62q21 30 21 57t-17.5 43.5t-45.5 16.5q-32 0 -51 -22t-22 -51h-70q3 58 37 96q38 43 103 43t101.5 -36t36.5 -88q0 -36 -30 -85q-19 -30 -55 -70l-55 -62h141z
" />
    <glyph glyph-name="threequarters" unicode="&#xbe;" horiz-adv-x="800" 
d="M32 386h70q1 -28 19 -43q18 -17 50 -17t52 18q17 15 17 44q0 27 -15 40q-18 18 -54 18h-24v66h18q37 0 54 14q15 12 15 33q0 19 -12 33q-15 16 -46 16q-28 0 -43 -15q-14 -13 -18 -40h-70q2 53 35 86q35 35 98 35t97 -34q31 -31 31 -78q0 -31 -13 -51q-14 -23 -40 -33
q26 -10 40 -28q19 -23 19 -63q0 -51 -32 -86q-39 -41 -109 -41q-68 0 -104 40q-32 35 -35 86zM225 17l382 661l48 -28l-382 -661zM575 138h78v103zM725 430v-288h43v-66h-43v-76h-72v76h-209z" />
    <glyph glyph-name="questiondown" unicode="&#xbf;" horiz-adv-x="434" 
d="M276 -48h102q2 -23 2 -34q0 -75 -45 -118q-44 -42 -117 -42q-75 0 -121 44q-43 41 -43 112q0 81 59 123q21 15 70 35l30 12q30 12 40 22q15 15 15 36q0 25 -17 39q-12 10 -30 10q-24 0 -38 -15q-16 -17 -16 -53h-98q0 70 44 116q42 42 109 42q62 0 105 -41
q41 -41 41 -106q0 -51 -32 -86q-24 -26 -87 -51q-59 -23 -73 -35q-22 -21 -22 -50q0 -30 17 -47t46 -17q30 0 46 18q17 17 17 53q0 13 -4 33zM276 389q0 -25 -17.5 -42.5t-42.5 -17.5t-42.5 17.5t-17.5 42.5t17.5 42.5t42.5 17.5t42.5 -17.5t17.5 -42.5z" />
    <glyph glyph-name="Agrave" unicode="&#xc0;" horiz-adv-x="656" 
d="M542 0l-70 161h-285l-73 -161h-110l332 706l316 -706h-110zM229 257h202l-99 226zM344 727l-176 119l86 60l138 -139z" />
    <glyph glyph-name="Aacute" unicode="&#xc1;" horiz-adv-x="656" 
d="M542 0l-70 161h-285l-73 -161h-110l332 706l316 -706h-110zM229 257h202l-99 226zM312 727l-48 40l138 139l86 -60z" />
    <glyph glyph-name="Acircumflex" unicode="&#xc2;" horiz-adv-x="656" 
d="M542 0l-70 161h-285l-73 -161h-110l332 706l316 -706h-110zM229 257h202l-99 226zM330 812l-99 -82l-66 56l165 134l165 -134l-66 -56z" />
    <glyph glyph-name="Atilde" unicode="&#xc3;" horiz-adv-x="656" 
d="M542 0l-70 161h-285l-73 -161h-110l332 706l316 -706h-110zM229 257h202l-99 226zM452 863l58 -46q-41 -84 -116 -84q-27 0 -55 13l-20.5 10t-12 6t-9.5 4q-25 9 -37 9q-36 0 -51 -42l-59 41q19 34 42 54q32 27 70 27q22 0 49 -9q32 -14 46 -21q28 -14 41 -14q39 0 54 52
z" />
    <glyph glyph-name="Adieresis" unicode="&#xc4;" horiz-adv-x="656" 
d="M542 0l-70 161h-285l-73 -161h-110l332 706l316 -706h-110zM229 257h202l-99 226zM170 795q0 26 18 44t44 18t44 -18t18 -44t-18 -44t-44 -18t-44 18t-18 44zM366 795q0 26 18 44t44 18t44 -18t18 -44t-18 -44t-44 -18t-44 18t-18 44z" />
    <glyph glyph-name="Aring" unicode="&#xc5;" horiz-adv-x="656" 
d="M542 0l-70 161h-285l-73 -161h-110l332 706l316 -706h-110zM229 257h202l-99 226zM237 823q0 41 28.5 69t68.5 28t68.5 -28t28.5 -69q0 -40 -28 -68.5t-69 -28.5q-40 0 -68.5 28.5t-28.5 68.5zM291 823q0 -18 12.5 -30.5t30.5 -12.5t30.5 12.5t12.5 30.5t-12.5 30.5
t-30.5 12.5t-30.5 -12.5t-12.5 -30.5z" />
    <glyph glyph-name="AE" unicode="&#xc6;" horiz-adv-x="926" 
d="M546 0l-70 159h-283l-73 -159h-110l320 667h295l42 -96h-265l70 -159h258l42 -96h-258l95 -220h265l42 -96h-370zM238 255h198l-95 217z" />
    <glyph glyph-name="Ccedilla" unicode="&#xc7;" horiz-adv-x="620" 
d="M574 631v-120q-82 74 -181 74q-108 0 -175.5 -71.5t-67.5 -182.5q0 -107 69 -178.5t175 -71.5q99 0 180 77v-121q-84 -50 -183 -50q-139 0 -236 92q-107 100 -107 252q0 160 107 261q92 87 241 87q103 0 178 -48zM350 -53l86 -38l-112 -133l-64 32z" />
    <glyph glyph-name="Egrave" unicode="&#xc8;" 
d="M448 667v-96h-266v-169h258v-96h-258v-210h266v-96h-368v667h368zM286 727l-176 119l86 60l138 -139z" />
    <glyph glyph-name="Eacute" unicode="&#xc9;" 
d="M448 667v-96h-266v-169h258v-96h-258v-210h266v-96h-368v667h368zM234 727l-48 40l138 139l86 -60z" />
    <glyph glyph-name="Ecircumflex" unicode="&#xca;" 
d="M448 667v-96h-266v-169h258v-96h-258v-210h266v-96h-368v667h368zM270 812l-99 -82l-66 56l165 134l165 -134l-66 -56z" />
    <glyph glyph-name="Edieresis" unicode="&#xcb;" 
d="M448 667v-96h-266v-169h258v-96h-258v-210h266v-96h-368v667h368zM110 795q0 26 18 44t44 18t44 -18t18 -44t-18 -44t-44 -18t-44 18t-18 44zM306 795q0 26 18 44t44 18t44 -18t18 -44t-18 -44t-44 -18t-44 18t-18 44z" />
    <glyph glyph-name="Igrave" unicode="&#xcc;" horiz-adv-x="262" 
d="M80 667h102v-667h-102v667zM129 713l-139 161l98 35l98 -169z" />
    <glyph glyph-name="Iacute" unicode="&#xcd;" horiz-adv-x="262" 
d="M80 667h102v-667h-102v667zM174 909l98 -35l-139 -161l-57 27z" />
    <glyph glyph-name="Icircumflex" unicode="&#xce;" horiz-adv-x="262" 
d="M80 667h102v-667h-102v667zM131 812l-79 -77l-59 49l138 131l138 -131l-59 -49z" />
    <glyph glyph-name="Idieresis" unicode="&#xcf;" horiz-adv-x="262" 
d="M80 667h102v-667h-102v667zM14 795q0 23 15 39.5t35 16.5t35.5 -17t15.5 -39t-15.5 -39t-35.5 -17t-35 16.5t-15 39.5zM148 795q0 23 15 39.5t35 16.5t35 -16.5t15 -39.5t-15 -39.5t-35 -16.5t-35 16.5t-15 39.5z" />
    <glyph glyph-name="Eth" unicode="&#xd0;" horiz-adv-x="644" 
d="M80 667h140q79 0 138 -13.5t110 -51.5q61 -46 94.5 -116t33.5 -153q0 -172 -134 -269q-57 -41 -108 -52.5t-136 -11.5h-138v324h-80v86h80v257zM182 571v-161h140v-86h-140v-228h44q114 0 177 47q91 69 91 190q0 62 -25.5 113t-64.5 79q-64 46 -178 46h-44z" />
    <glyph glyph-name="Ntilde" unicode="&#xd1;" horiz-adv-x="746" 
d="M182 0h-102v712l484 -507v462h102v-708l-484 507v-466zM502 863l58 -46q-41 -84 -116 -84q-27 0 -55 13l-20.5 10t-12 6t-9.5 4q-25 9 -37 9q-36 0 -51 -42l-59 41q19 34 42 54q32 27 70 27q22 0 49 -9q32 -14 46 -21q28 -14 41 -14q39 0 54 52z" />
    <glyph glyph-name="Ograve" unicode="&#xd2;" horiz-adv-x="790" 
d="M395 679q149 0 248 -99t99 -247t-99 -247t-248 -99t-248 99t-99 247t99 247t248 99zM395 81q107 0 176 70.5t69 181.5t-69 181.5t-176 70.5t-176 -70.5t-69 -181.5t69 -181.5t176 -70.5zM436 727l-176 119l86 60l138 -139z" />
    <glyph glyph-name="Oacute" unicode="&#xd3;" horiz-adv-x="790" 
d="M395 679q149 0 248 -99t99 -247t-99 -247t-248 -99t-248 99t-99 247t99 247t248 99zM395 81q107 0 176 70.5t69 181.5t-69 181.5t-176 70.5t-176 -70.5t-69 -181.5t69 -181.5t176 -70.5zM354 727l-48 40l138 139l86 -60z" />
    <glyph glyph-name="Ocircumflex" unicode="&#xd4;" horiz-adv-x="790" 
d="M395 679q149 0 248 -99t99 -247t-99 -247t-248 -99t-248 99t-99 247t99 247t248 99zM395 81q107 0 176 70.5t69 181.5t-69 181.5t-176 70.5t-176 -70.5t-69 -181.5t69 -181.5t176 -70.5zM395 812l-99 -82l-66 56l165 134l165 -134l-66 -56z" />
    <glyph glyph-name="Otilde" unicode="&#xd5;" horiz-adv-x="790" 
d="M395 679q149 0 248 -99t99 -247t-99 -247t-248 -99t-248 99t-99 247t99 247t248 99zM395 81q107 0 176 70.5t69 181.5t-69 181.5t-176 70.5t-176 -70.5t-69 -181.5t69 -181.5t176 -70.5zM517 863l58 -46q-41 -84 -116 -84q-27 0 -55 13l-20.5 10t-12 6t-9.5 4
q-25 9 -37 9q-36 0 -51 -42l-59 41q19 34 42 54q32 27 70 27q22 0 49 -9q32 -14 46 -21q28 -14 41 -14q39 0 54 52z" />
    <glyph glyph-name="Odieresis" unicode="&#xd6;" horiz-adv-x="790" 
d="M395 679q149 0 248 -99t99 -247t-99 -247t-248 -99t-248 99t-99 247t99 247t248 99zM395 81q107 0 176 70.5t69 181.5t-69 181.5t-176 70.5t-176 -70.5t-69 -181.5t69 -181.5t176 -70.5zM235 795q0 26 18 44t44 18t44 -18t18 -44t-18 -44t-44 -18t-44 18t-18 44zM431 795
q0 26 18 44t44 18t44 -18t18 -44t-18 -44t-44 -18t-44 18t-18 44z" />
    <glyph glyph-name="multiply" unicode="&#xd7;" 
d="M44 193l142 143l-142 143l63 63l143 -142l143 142l63 -63l-142 -143l142 -143l-63 -63l-143 142l-143 -142z" />
    <glyph glyph-name="Oslash" unicode="&#xd8;" horiz-adv-x="790" 
d="M23 27l94 93q-69 94 -69 213q0 147 99 246.5t248 99.5q126 0 214 -69l93 94l57 -57l-93 -94q76 -91 76 -220q0 -148 -99 -247t-248 -99q-130 0 -222 75l-93 -92zM594 488l-349 -358q63 -49 150 -49q107 0 176 70.5t69 181.5q0 91 -46 155zM190 188l346 355
q-60 42 -141 42q-107 0 -176 -70.5t-69 -181.5q0 -88 40 -145z" />
    <glyph glyph-name="Ugrave" unicode="&#xd9;" horiz-adv-x="654" 
d="M80 667h102v-402q0 -78 21 -115q17 -28 50 -48.5t74 -20.5t74 20.5t50 48.5q21 37 21 115v402h102v-429q0 -105 -62 -173q-72 -78 -185 -78t-185 78q-62 68 -62 173v429zM343 727l-176 119l86 60l138 -139z" />
    <glyph glyph-name="Uacute" unicode="&#xda;" horiz-adv-x="654" 
d="M80 667h102v-402q0 -78 21 -115q17 -28 50 -48.5t74 -20.5t74 20.5t50 48.5q21 37 21 115v402h102v-429q0 -105 -62 -173q-72 -78 -185 -78t-185 78q-62 68 -62 173v429zM311 727l-48 40l138 139l86 -60z" />
    <glyph glyph-name="Ucircumflex" unicode="&#xdb;" horiz-adv-x="654" 
d="M80 667h102v-402q0 -78 21 -115q17 -28 50 -48.5t74 -20.5t74 20.5t50 48.5q21 37 21 115v402h102v-429q0 -105 -62 -173q-72 -78 -185 -78t-185 78q-62 68 -62 173v429zM327 812l-99 -82l-66 56l165 134l165 -134l-66 -56z" />
    <glyph glyph-name="Udieresis" unicode="&#xdc;" horiz-adv-x="654" 
d="M80 667h102v-402q0 -78 21 -115q17 -28 50 -48.5t74 -20.5t74 20.5t50 48.5q21 37 21 115v402h102v-429q0 -105 -62 -173q-72 -78 -185 -78t-185 78q-62 68 -62 173v429zM167 795q0 26 18 44t44 18t44 -18t18 -44t-18 -44t-44 -18t-44 18t-18 44zM363 795q0 26 18 44
t44 18t44 -18t18 -44t-18 -44t-44 -18t-44 18t-18 44z" />
    <glyph glyph-name="Yacute" unicode="&#xdd;" horiz-adv-x="540" 
d="M219 0v288l-219 379h116l154 -267l154 267h116l-219 -379v-288h-102zM254 727l-48 40l138 139l86 -60z" />
    <glyph glyph-name="Thorn" unicode="&#xde;" horiz-adv-x="480" 
d="M80 667h102v-100h45q92 0 146 -36q40 -27 61.5 -70.5t21.5 -91.5q0 -90 -65 -146q-61 -52 -163 -52h-46v-171h-102v667zM182 473v-208h46q64 0 97 28.5t33 76.5q0 17 -4.5 32t-17 32.5t-40.5 28t-69 10.5h-45z" />
    <glyph glyph-name="germandbls" unicode="&#xdf;" horiz-adv-x="568" 
d="M176 0h-98v334h-72v87h72v106q0 89 41 144q52 70 157 70q92 0 147 -55q51 -51 51 -132q0 -51 -23 -86q-18 -27 -48 -47q60 -27 90 -76q33 -50 33 -119q0 -110 -76 -175q-73 -65 -189 -65v94q82 0 130 51q35 36 35 95q0 70 -53 108q-46 32 -112 32v89h13q48 0 77 30
q27 27 27 75q0 41 -29 68q-28 25 -71 25q-49 0 -75 -31q-27 -31 -27 -90v-532z" />
    <glyph glyph-name="agrave" unicode="&#xe0;" horiz-adv-x="530" 
d="M370 372v49h98v-421h-98v44q-49 -57 -126 -57q-93 0 -148.5 66t-55.5 158q0 100 59.5 160.5t145.5 60.5q79 0 125 -60zM257 344q-52 0 -84.5 -39t-32.5 -96q0 -56 32.5 -95t84.5 -39q50 0 84.5 35t34.5 98q0 65 -34.5 100.5t-84.5 35.5zM266 485l-156 144l90 46l120 -156
z" />
    <glyph glyph-name="aacute" unicode="&#xe1;" horiz-adv-x="530" 
d="M370 372v49h98v-421h-98v44q-49 -57 -126 -57q-93 0 -148.5 66t-55.5 158q0 100 59.5 160.5t145.5 60.5q79 0 125 -60zM257 344q-52 0 -84.5 -39t-32.5 -96q0 -56 32.5 -95t84.5 -39q50 0 84.5 35t34.5 98q0 65 -34.5 100.5t-84.5 35.5zM305 675l90 -46l-156 -144l-54 34
z" />
    <glyph glyph-name="acircumflex" unicode="&#xe2;" horiz-adv-x="530" 
d="M370 372v49h98v-421h-98v44q-49 -57 -126 -57q-93 0 -148.5 66t-55.5 158q0 100 59.5 160.5t145.5 60.5q79 0 125 -60zM257 344q-52 0 -84.5 -39t-32.5 -96q0 -56 32.5 -95t84.5 -39q50 0 84.5 35t34.5 98q0 65 -34.5 100.5t-84.5 35.5zM250 571l-88 -86l-66 52l154 138
l154 -138l-66 -52z" />
    <glyph glyph-name="atilde" unicode="&#xe3;" horiz-adv-x="530" 
d="M370 372v49h98v-421h-98v44q-49 -57 -126 -57q-93 0 -148.5 66t-55.5 158q0 100 59.5 160.5t145.5 60.5q79 0 125 -60zM257 344q-52 0 -84.5 -39t-32.5 -96q0 -56 32.5 -95t84.5 -39q50 0 84.5 35t34.5 98q0 65 -34.5 100.5t-84.5 35.5zM372 622l58 -46q-39 -86 -116 -86
q-23 0 -55 16l-16.5 9l-11.5 6t-7.5 4t-6.5 3q-22 10 -37 10q-36 0 -51 -46l-59 41q19 34 42 54q32 27 70 27q22 0 49 -10q20 -8 46 -23q24 -15 41 -15q41 0 54 56z" />
    <glyph glyph-name="adieresis" unicode="&#xe4;" horiz-adv-x="530" 
d="M370 372v49h98v-421h-98v44q-49 -57 -126 -57q-93 0 -148.5 66t-55.5 158q0 100 59.5 160.5t145.5 60.5q79 0 125 -60zM257 344q-52 0 -84.5 -39t-32.5 -96q0 -56 32.5 -95t84.5 -39q50 0 84.5 35t34.5 98q0 65 -34.5 100.5t-84.5 35.5zM98 569q0 26 18 44t44 18t44 -18
t18 -44t-18 -44t-44 -18t-44 18t-18 44zM278 569q0 26 18 44t44 18t44 -18t18 -44t-18 -44t-44 -18t-44 18t-18 44z" />
    <glyph glyph-name="aring" unicode="&#xe5;" horiz-adv-x="530" 
d="M370 372v49h98v-421h-98v44q-49 -57 -126 -57q-93 0 -148.5 66t-55.5 158q0 100 59.5 160.5t145.5 60.5q79 0 125 -60zM257 344q-52 0 -84.5 -39t-32.5 -96q0 -56 32.5 -95t84.5 -39q50 0 84.5 35t34.5 98q0 65 -34.5 100.5t-84.5 35.5zM156 579q0 38 28 66t66 28t66 -28
t28 -66t-28 -66t-66 -28t-66 28t-28 66zM207 579q0 -18 12.5 -30.5t30.5 -12.5t30.5 12.5t12.5 30.5t-12.5 30.5t-30.5 12.5t-30.5 -12.5t-12.5 -30.5z" />
    <glyph glyph-name="ae" unicode="&#xe6;" horiz-adv-x="756" 
d="M99 328v91q57 13 119 13q53 0 87 -13q37 -14 63 -47q24 29 58 43q38 17 87 17q91 0 144 -55q59 -62 59 -178v-12h-302q4 -53 36 -85q27 -27 75 -27q39 0 67 21q23 18 39 46l82 -46q-28 -50 -71 -77q-50 -32 -126 -32q-51 0 -88 18q-37 17 -60 50q-29 -35 -68 -52
q-38 -16 -89 -16q-83 0 -129 45q-42 41 -42 96q0 60 40 98q46 45 128 45q59 0 108 -28q0 51 -28 76q-29 25 -86 25q-48 0 -103 -16zM220 187q-46 0 -69 -21q-17 -16 -17 -37q0 -22 20 -39q23 -19 66 -19q38 0 63 16q27 17 27 44q0 26 -31 43q-25 13 -59 13zM421 267h195
q-6 35 -30 57q-26 24 -66 24t-69 -27q-22 -22 -30 -54z" />
    <glyph glyph-name="ccedilla" unicode="&#xe7;" horiz-adv-x="420" 
d="M388 402v-110q-53 52 -119 52q-56 0 -93 -37q-36 -36 -36 -97q0 -63 38 -101q36 -34 89 -34q73 0 121 54v-109q-53 -33 -128 -33q-101 0 -160 62q-60 62 -60 158q0 99 64 163q62 62 169 62q61 0 115 -30zM218 -53l82 -32l-102 -134l-64 32z" />
    <glyph glyph-name="egrave" unicode="&#xe8;" horiz-adv-x="482" 
d="M357 142l82 -46q-28 -50 -71 -77q-49 -32 -124 -32q-88 0 -142 54q-62 62 -62 161q0 104 67 173q57 57 141 57q82 0 135 -55q59 -61 59 -178v-12h-302q4 -53 36 -85q27 -27 75 -27q39 0 67 21q23 18 39 46zM147 267h195q-6 35 -30 57q-26 24 -66 24q-42 0 -69 -27
q-22 -20 -30 -54zM271 485l-156 144l90 46l120 -156z" />
    <glyph glyph-name="eacute" unicode="&#xe9;" horiz-adv-x="482" 
d="M357 142l82 -46q-28 -50 -71 -77q-49 -32 -124 -32q-88 0 -142 54q-62 62 -62 161q0 104 67 173q57 57 141 57q82 0 135 -55q59 -61 59 -178v-12h-302q4 -53 36 -85q27 -27 75 -27q39 0 67 21q23 18 39 46zM147 267h195q-6 35 -30 57q-26 24 -66 24q-42 0 -69 -27
q-22 -20 -30 -54zM285 675l90 -46l-156 -144l-54 34z" />
    <glyph glyph-name="ecircumflex" unicode="&#xea;" horiz-adv-x="482" 
d="M357 142l82 -46q-28 -50 -71 -77q-49 -32 -124 -32q-88 0 -142 54q-62 62 -62 161q0 104 67 173q57 57 141 57q82 0 135 -55q59 -61 59 -178v-12h-302q4 -53 36 -85q27 -27 75 -27q39 0 67 21q23 18 39 46zM147 267h195q-6 35 -30 57q-26 24 -66 24q-42 0 -69 -27
q-22 -20 -30 -54zM236 571l-88 -86l-66 52l154 138l154 -138l-66 -52z" />
    <glyph glyph-name="edieresis" unicode="&#xeb;" horiz-adv-x="482" 
d="M357 142l82 -46q-28 -50 -71 -77q-49 -32 -124 -32q-88 0 -142 54q-62 62 -62 161q0 104 67 173q57 57 141 57q82 0 135 -55q59 -61 59 -178v-12h-302q4 -53 36 -85q27 -27 75 -27q39 0 67 21q23 18 39 46zM147 267h195q-6 35 -30 57q-26 24 -66 24q-42 0 -69 -27
q-22 -20 -30 -54zM92 569q0 26 18 44t44 18t44 -18t18 -44t-18 -44t-44 -18t-44 18t-18 44zM272 569q0 26 18 44t44 18t44 -18t18 -44t-18 -44t-44 -18t-44 18t-18 44z" />
    <glyph glyph-name="igrave" unicode="&#xec;" horiz-adv-x="222" 
d="M62 421h98v-421h-98v421zM110 475l-115 178l101 23l74 -183z" />
    <glyph glyph-name="iacute" unicode="&#xed;" horiz-adv-x="222" 
d="M62 421h98v-421h-98v421zM126 676l101 -23l-115 -178l-60 18z" />
    <glyph glyph-name="icircumflex" unicode="&#xee;" horiz-adv-x="222" 
d="M62 421h98v-421h-98v421zM111 568l-70 -73l-54 46l124 125l124 -125l-54 -46z" />
    <glyph glyph-name="idieresis" unicode="&#xef;" horiz-adv-x="232" 
d="M67 421h98v-421h-98v421zM176 658q19 0 34 -16.5t15 -45.5t-15 -45.5t-34 -16.5t-34 16.5t-15 45.5t15 45.5t34 16.5zM56 658q19 0 34 -16.5t15 -45.5t-15 -45.5t-34 -16.5t-34 16.5t-15 45.5t15 45.5t34 16.5z" />
    <glyph glyph-name="eth" unicode="&#xf0;" horiz-adv-x="530" 
d="M85 601l29 72q114 -14 203 -69l131 43l20 -61l-98 -30q46 -37 75 -94q45 -88 45 -213q0 -104 -37 -165q-59 -97 -186 -97q-97 0 -159 59q-68 66 -68 168q0 96 64 160q58 58 150 58q69 0 123 -47q-22 84 -101 139l-178 -59l-20 60l126 41q-54 28 -119 35zM265 75
q55 0 89 34q36 36 36 100q0 65 -35 100q-33 35 -90 35q-52 0 -86 -32q-39 -37 -39 -103q0 -62 36 -100q32 -34 89 -34z" />
    <glyph glyph-name="ntilde" unicode="&#xf1;" horiz-adv-x="485" 
d="M61 0v421h98v-39q45 50 114 50q83 0 124 -57q26 -37 26 -117v-258h-98v234q0 38 -6 62t-19 33.5t-23.5 12t-28.5 2.5q-21 0 -33.5 -3.5t-27 -16t-21.5 -43t-7 -79.5v-202h-98zM365 622l58 -46q-39 -86 -116 -86q-23 0 -55 16l-16.5 9l-11.5 6t-7.5 4t-6.5 3
q-22 10 -37 10q-36 0 -51 -46l-59 41q19 34 42 54q32 27 70 27q22 0 49 -10q20 -8 46 -23q24 -15 41 -15q41 0 54 56z" />
    <glyph glyph-name="ograve" unicode="&#xf2;" horiz-adv-x="530" 
d="M265 432q96 0 160.5 -62.5t64.5 -159.5q0 -96 -64.5 -159.5t-160.5 -63.5t-160.5 63.5t-64.5 159.5q0 97 64.5 159.5t160.5 62.5zM265 75q57 0 91 36.5t34 97.5q0 67 -36.5 101t-88.5 34t-88.5 -34t-36.5 -101q0 -61 34 -97.5t91 -36.5zM271 485l-156 144l90 46l120 -156
z" />
    <glyph glyph-name="oacute" unicode="&#xf3;" horiz-adv-x="530" 
d="M265 432q96 0 160.5 -62.5t64.5 -159.5q0 -96 -64.5 -159.5t-160.5 -63.5t-160.5 63.5t-64.5 159.5q0 97 64.5 159.5t160.5 62.5zM265 75q57 0 91 36.5t34 97.5q0 67 -36.5 101t-88.5 34t-88.5 -34t-36.5 -101q0 -61 34 -97.5t91 -36.5zM320 675l90 -46l-156 -144l-54 34
z" />
    <glyph glyph-name="ocircumflex" unicode="&#xf4;" horiz-adv-x="530" 
d="M265 432q96 0 160.5 -62.5t64.5 -159.5q0 -96 -64.5 -159.5t-160.5 -63.5t-160.5 63.5t-64.5 159.5q0 97 64.5 159.5t160.5 62.5zM265 75q57 0 91 36.5t34 97.5q0 67 -36.5 101t-88.5 34t-88.5 -34t-36.5 -101q0 -61 34 -97.5t91 -36.5zM265 571l-88 -86l-66 52l154 138
l154 -138l-66 -52z" />
    <glyph glyph-name="otilde" unicode="&#xf5;" horiz-adv-x="530" 
d="M265 432q96 0 160.5 -62.5t64.5 -159.5q0 -96 -64.5 -159.5t-160.5 -63.5t-160.5 63.5t-64.5 159.5q0 97 64.5 159.5t160.5 62.5zM265 75q57 0 91 36.5t34 97.5q0 67 -36.5 101t-88.5 34t-88.5 -34t-36.5 -101q0 -61 34 -97.5t91 -36.5zM387 622l58 -46q-39 -86 -116 -86
q-23 0 -55 16l-16.5 9l-11.5 6t-7.5 4t-6.5 3q-22 10 -37 10q-36 0 -51 -46l-59 41q19 34 42 54q32 27 70 27q22 0 49 -10q20 -8 46 -23q24 -15 41 -15q41 0 54 56z" />
    <glyph glyph-name="odieresis" unicode="&#xf6;" horiz-adv-x="530" 
d="M265 432q96 0 160.5 -62.5t64.5 -159.5q0 -96 -64.5 -159.5t-160.5 -63.5t-160.5 63.5t-64.5 159.5q0 97 64.5 159.5t160.5 62.5zM265 75q57 0 91 36.5t34 97.5q0 67 -36.5 101t-88.5 34t-88.5 -34t-36.5 -101q0 -61 34 -97.5t91 -36.5zM113 569q0 26 18 44t44 18t44 -18
t18 -44t-18 -44t-44 -18t-44 18t-18 44zM293 569q0 26 18 44t44 18t44 -18t18 -44t-18 -44t-44 -18t-44 18t-18 44z" />
    <glyph glyph-name="divide" unicode="&#xf7;" 
d="M190 513q0 25 17.5 42.5t42.5 17.5t42.5 -17.5t17.5 -42.5t-17.5 -42.5t-42.5 -17.5t-42.5 17.5t-17.5 42.5zM190 159q0 25 17.5 42.5t42.5 17.5t42.5 -17.5t17.5 -42.5t-17.5 -42.5t-42.5 -17.5t-42.5 17.5t-17.5 42.5zM33 291v90h434v-90h-434z" />
    <glyph glyph-name="oslash" unicode="&#xf8;" horiz-adv-x="530" 
d="M10 7l71 73q-41 54 -41 130q0 97 64 159.5t161 62.5q81 0 132 -41l71 70l44 -46l-68 -66q46 -60 46 -139q0 -96 -64.5 -159.5t-160.5 -63.5q-83 0 -138 46l-67 -72zM374 281l-181 -186q29 -20 72 -20q52 0 88.5 33.5t36.5 100.5q0 40 -16 72zM152 145l177 184
q-30 15 -64 15q-52 0 -88.5 -34t-36.5 -101q0 -31 12 -64z" />
    <glyph glyph-name="ugrave" unicode="&#xf9;" horiz-adv-x="484" 
d="M62 421h98v-241q0 -53 18 -76q22 -29 64 -29t64 29q18 23 18 76v241h98v-244q0 -93 -45 -138q-52 -52 -137 -52q-82 0 -133 52q-45 45 -45 138v244zM241 485l-156 144l90 46l120 -156z" />
    <glyph glyph-name="uacute" unicode="&#xfa;" horiz-adv-x="484" 
d="M62 421h98v-241q0 -53 18 -76q22 -29 64 -29t64 29q18 23 18 76v241h98v-244q0 -93 -45 -138q-52 -52 -137 -52q-82 0 -133 52q-45 45 -45 138v244zM305 675l90 -46l-156 -144l-54 34z" />
    <glyph glyph-name="ucircumflex" unicode="&#xfb;" horiz-adv-x="484" 
d="M62 421h98v-241q0 -53 18 -76q22 -29 64 -29t64 29q18 23 18 76v241h98v-244q0 -93 -45 -138q-52 -52 -137 -52q-82 0 -133 52q-45 45 -45 138v244zM242 571l-88 -86l-66 52l154 138l154 -138l-66 -52z" />
    <glyph glyph-name="udieresis" unicode="&#xfc;" horiz-adv-x="484" 
d="M62 421h98v-241q0 -53 18 -76q22 -29 64 -29t64 29q18 23 18 76v241h98v-244q0 -93 -45 -138q-52 -52 -137 -52q-82 0 -133 52q-45 45 -45 138v244zM90 569q0 26 18 44t44 18t44 -18t18 -44t-18 -44t-44 -18t-44 18t-18 44zM270 569q0 26 18 44t44 18t44 -18t18 -44
t-18 -44t-44 -18t-44 18t-18 44z" />
    <glyph glyph-name="yacute" unicode="&#xfd;" horiz-adv-x="482" 
d="M31 -229l155 295l-180 355h118l120 -246l122 246h110l-335 -650h-110zM316 675l90 -46l-156 -144l-54 34z" />
    <glyph glyph-name="thorn" unicode="&#xfe;" horiz-adv-x="530" 
d="M160 47v-276h-98v958h98v-354q48 57 125 57q86 0 145.5 -60.5t59.5 -160.5q0 -92 -55 -158t-149 -66q-77 0 -126 60zM273 75q52 0 84.5 39t32.5 95q0 57 -32.5 96t-84.5 39q-50 0 -84.5 -35.5t-34.5 -100.5q0 -63 34.5 -98t84.5 -35z" />
    <glyph glyph-name="ydieresis" unicode="&#xff;" horiz-adv-x="482" 
d="M31 -229l155 295l-180 355h118l120 -246l122 246h110l-335 -650h-110zM89 569q0 26 18 44t44 18t44 -18t18 -44t-18 -44t-44 -18t-44 18t-18 44zM269 569q0 26 18 44t44 18t44 -18t18 -44t-18 -44t-44 -18t-44 18t-18 44z" />
    <glyph glyph-name="Amacron" unicode="&#x100;" horiz-adv-x="656" 
d="M542 0l-70 161h-285l-73 -161h-110l332 706l316 -706h-110zM229 257h202l-99 226zM154 733v80h360v-80h-360z" />
    <glyph glyph-name="amacron" unicode="&#x101;" horiz-adv-x="530" 
d="M370 372v49h98v-421h-98v44q-49 -57 -126 -57q-93 0 -148.5 66t-55.5 158q0 100 59.5 160.5t145.5 60.5q79 0 125 -60zM257 344q-52 0 -84.5 -39t-32.5 -96q0 -56 32.5 -95t84.5 -39q50 0 84.5 35t34.5 98q0 65 -34.5 100.5t-84.5 35.5zM85 508v78h330v-78h-330z" />
    <glyph glyph-name="Abreve" unicode="&#x102;" horiz-adv-x="656" 
d="M542 0l-70 161h-285l-73 -161h-110l332 706l316 -706h-110zM229 257h202l-99 226zM422 874h82q-9 -49 -40 -86q-48 -58 -130 -58t-130 58q-31 37 -40 86h82q9 -33 34 -49q22 -15 54 -15t54 15q25 16 34 49z" />
    <glyph glyph-name="abreve" unicode="&#x103;" horiz-adv-x="530" 
d="M370 372v49h98v-421h-98v44q-49 -57 -126 -57q-93 0 -148.5 66t-55.5 158q0 100 59.5 160.5t145.5 60.5q79 0 125 -60zM257 344q-52 0 -84.5 -39t-32.5 -96q0 -56 32.5 -95t84.5 -39q50 0 84.5 35t34.5 98q0 65 -34.5 100.5t-84.5 35.5zM333 638h79q-13 -60 -38 -85
q-40 -50 -122 -50q-83 0 -125 49q-30 36 -39 86h79q10 -33 30 -49q19 -16 52 -16t53 15q23 18 31 50z" />
    <glyph glyph-name="Aogonek" unicode="&#x104;" horiz-adv-x="656" 
d="M334 709l318 -709h-32q-30 -17 -47 -34q-25 -23 -25 -50q0 -14 10 -24q10 -9 33 -9q25 0 49 9l-9 -70q-30 -15 -62 -15q-50 0 -79 28q-24 24 -24 60q0 35 26 64q19 22 50 41l-70 161h-285l-73 -161h-110zM229 257h202l-99 226z" />
    <glyph glyph-name="aogonek" unicode="&#x105;" horiz-adv-x="530" 
d="M370 372v49h98v-421h-25q-30 -17 -51 -38q-21 -22 -21 -45q0 -15 11 -25q10 -9 30 -9q28 0 51 9l-9 -62q-29 -19 -64 -19q-46 0 -75 29q-22 22 -22 55q0 34 26 64q20 23 51 41v44q-49 -57 -126 -57q-84 0 -141 57q-63 65 -63 167q0 105 67 168q55 53 135 53q81 0 128 -60
zM257 344q-48 0 -80 -34q-37 -40 -37 -101q0 -62 37 -101q31 -33 82 -33q50 0 82 34q35 37 35 102q0 57 -36 100q-35 33 -83 33z" />
    <glyph glyph-name="Cacute" unicode="&#x106;" horiz-adv-x="620" 
d="M574 631v-120q-82 74 -181 74q-108 0 -175.5 -71.5t-67.5 -182.5q0 -107 69 -178.5t175 -71.5q99 0 180 77v-121q-84 -50 -183 -50q-139 0 -236 92q-107 100 -107 252q0 160 107 261q92 87 241 87q103 0 178 -48zM364 727l-48 40l138 139l86 -60z" />
    <glyph glyph-name="cacute" unicode="&#x107;" horiz-adv-x="420" 
d="M388 402v-110q-53 52 -119 52q-56 0 -93 -37q-36 -36 -36 -97q0 -63 38 -101q36 -34 89 -34q73 0 121 54v-109q-53 -33 -128 -33q-101 0 -160 62q-60 62 -60 158q0 99 64 163q62 62 169 62q61 0 115 -30zM305 675l90 -46l-156 -144l-54 34z" />
    <glyph glyph-name="Ccircumflex" unicode="&#x108;" horiz-adv-x="620" 
d="M574 631v-120q-82 74 -181 74q-108 0 -175.5 -71.5t-67.5 -182.5q0 -107 69 -178.5t175 -71.5q99 0 180 77v-121q-84 -50 -183 -50q-139 0 -236 92q-107 100 -107 252q0 160 107 261q92 87 241 87q103 0 178 -48zM390 812l-99 -82l-66 56l165 134l165 -134l-66 -56z" />
    <glyph glyph-name="ccircumflex" unicode="&#x109;" horiz-adv-x="420" 
d="M388 402v-110q-53 52 -119 52q-56 0 -93 -37q-36 -36 -36 -97q0 -63 38 -101q36 -34 89 -34q73 0 121 54v-109q-53 -33 -128 -33q-101 0 -160 62q-60 62 -60 158q0 99 64 163q62 62 169 62q61 0 115 -30zM260 571l-88 -86l-66 52l154 138l154 -138l-66 -52z" />
    <glyph glyph-name="Cdotaccent" unicode="&#x10a;" horiz-adv-x="620" 
d="M574 631v-120q-82 74 -181 74q-108 0 -175.5 -71.5t-67.5 -182.5q0 -107 69 -178.5t175 -71.5q99 0 180 77v-121q-84 -50 -183 -50q-139 0 -236 92q-107 100 -107 252q0 160 107 261q92 87 241 87q103 0 178 -48zM332 801q0 29 19 48t48 19t48 -19t19 -48t-19 -48
t-48 -19t-48 19t-19 48z" />
    <glyph glyph-name="cdotaccent" unicode="&#x10b;" horiz-adv-x="420" 
d="M388 402v-110q-53 52 -119 52q-56 0 -93 -37q-36 -36 -36 -97q0 -63 38 -101q36 -34 89 -34q73 0 121 54v-109q-53 -33 -128 -33q-101 0 -160 62q-60 62 -60 158q0 99 64 163q62 62 169 62q61 0 115 -30zM209 550q0 27 19 46t46 19t46 -19t19 -46t-19 -46t-46 -19t-46 19
t-19 46z" />
    <glyph glyph-name="Ccaron" unicode="&#x10c;" horiz-adv-x="620" 
d="M574 631v-120q-82 74 -181 74q-108 0 -175.5 -71.5t-67.5 -182.5q0 -107 69 -178.5t175 -71.5q99 0 180 77v-121q-84 -50 -183 -50q-139 0 -236 92q-107 100 -107 252q0 160 107 261q92 87 241 87q103 0 178 -48zM390 838l99 82l66 -56l-165 -134l-165 134l66 56z" />
    <glyph glyph-name="ccaron" unicode="&#x10d;" horiz-adv-x="420" 
d="M388 402v-110q-53 52 -119 52q-56 0 -93 -37q-36 -36 -36 -97q0 -63 38 -101q36 -34 89 -34q73 0 121 54v-109q-53 -33 -128 -33q-101 0 -160 62q-60 62 -60 158q0 99 64 163q62 62 169 62q61 0 115 -30zM260 589l88 86l66 -52l-154 -138l-154 138l66 52z" />
    <glyph glyph-name="Dcaron" unicode="&#x10e;" horiz-adv-x="644" 
d="M80 667h140q79 0 138 -13.5t110 -51.5q61 -46 94.5 -116t33.5 -153q0 -175 -134 -269q-54 -38 -110 -51t-134 -13h-138v667zM182 571v-475h44q114 0 177 47q91 69 91 190q0 62 -25.5 113t-64.5 79q-64 46 -178 46h-44zM250 838l99 82l66 -56l-165 -134l-165 134l66 56z
" />
    <glyph glyph-name="dcaron" unicode="&#x10f;" horiz-adv-x="640" 
d="M370 372v357h98v-729h-98v44q-49 -57 -126 -57q-93 0 -148.5 66t-55.5 158q0 100 59.5 160.5t145.5 60.5q79 0 125 -60zM257 344q-52 0 -84.5 -39t-32.5 -96q0 -56 32.5 -95t84.5 -39q50 0 84.5 35t34.5 98q0 65 -34.5 100.5t-84.5 35.5zM501 478l82 212l88 -34
l-104 -206z" />
    <glyph glyph-name="Dcroat" unicode="&#x110;" horiz-adv-x="644" 
d="M80 667h140q79 0 138 -13.5t110 -51.5q61 -46 94.5 -116t33.5 -153q0 -172 -134 -269q-57 -41 -108 -52.5t-136 -11.5h-138v324h-80v86h80v257zM182 571v-161h140v-86h-140v-228h44q114 0 177 47q91 69 91 190q0 62 -25.5 113t-64.5 79q-64 46 -178 46h-44z" />
    <glyph glyph-name="dcroat" unicode="&#x111;" horiz-adv-x="530" 
d="M370 372v180h-220v76h220v101h98v-101h72v-76h-72v-552h-98v44q-49 -57 -126 -57q-93 0 -148.5 66t-55.5 158q0 100 59.5 160.5t145.5 60.5q79 0 125 -60zM257 344q-52 0 -84.5 -39t-32.5 -96q0 -56 32.5 -95t84.5 -39q50 0 84.5 35t34.5 98q0 67 -34.5 101.5t-84.5 34.5
z" />
    <glyph glyph-name="Emacron" unicode="&#x112;" 
d="M448 667v-96h-266v-169h258v-96h-258v-210h266v-96h-368v667h368zM80 733v80h360v-80h-360z" />
    <glyph glyph-name="emacron" unicode="&#x113;" horiz-adv-x="482" 
d="M357 142l82 -46q-28 -50 -71 -77q-49 -32 -124 -32q-88 0 -142 54q-62 62 -62 161q0 104 67 173q57 57 141 57q82 0 135 -55q59 -61 59 -178v-12h-302q4 -53 36 -85q27 -27 75 -27q39 0 67 21q23 18 39 46zM147 267h195q-6 35 -30 57q-26 24 -66 24q-42 0 -69 -27
q-22 -20 -30 -54zM79 508v78h330v-78h-330z" />
    <glyph glyph-name="Edotaccent" unicode="&#x116;" 
d="M448 667v-96h-266v-169h258v-96h-258v-210h266v-96h-368v667h368zM203 801q0 29 19.5 48t47.5 19t47.5 -19t19.5 -48t-19.5 -48t-47.5 -19t-47.5 19t-19.5 48z" />
    <glyph glyph-name="edotaccent" unicode="&#x117;" horiz-adv-x="482" 
d="M357 142l82 -46q-28 -50 -71 -77q-49 -32 -124 -32q-88 0 -142 54q-62 62 -62 161q0 104 67 173q57 57 141 57q82 0 135 -55q59 -61 59 -178v-12h-302q4 -53 36 -85q27 -27 75 -27q39 0 67 21q23 18 39 46zM147 267h195q-6 35 -30 57q-26 24 -66 24q-42 0 -69 -27
q-22 -20 -30 -54zM179 550q0 27 19 46t46 19t46 -19t19 -46t-19 -46t-46 -19t-46 19t-19 46z" />
    <glyph glyph-name="Eogonek" unicode="&#x118;" 
d="M448 667v-96h-266v-159h258v-96h-258v-220h266v-96h-40q-30 -17 -47 -34q-25 -23 -25 -50q0 -14 10 -24q10 -9 33 -9q25 0 49 9l-9 -70q-30 -15 -62 -15q-50 0 -79 28q-24 24 -24 60q0 35 26 64q19 22 50 41h-250v667h368z" />
    <glyph glyph-name="eogonek" unicode="&#x119;" horiz-adv-x="482" 
d="M357 142l82 -46q-21 -39 -56 -65q-30 -23 -62 -40t-46 -32q-20 -22 -20 -42q0 -15 11 -25q10 -9 30 -9q28 0 51 9l-9 -62q-30 -19 -61 -19q-51 0 -78 29q-22 23 -22 55q0 27 20 56q13 19 38 36q-82 3 -133 54q-62 60 -62 161q0 106 67 173q57 57 141 57q82 0 135 -55
q59 -61 59 -178v-12h-302q4 -53 36 -85q27 -27 75 -27q39 0 67 21q23 18 39 46zM147 267h195q-6 35 -30 57q-26 24 -66 24q-42 0 -69 -27q-22 -20 -30 -54z" />
    <glyph glyph-name="Ecaron" unicode="&#x11a;" 
d="M448 667v-96h-266v-169h258v-96h-258v-210h266v-96h-368v667h368zM270 838l99 82l66 -56l-165 -134l-165 134l66 56z" />
    <glyph glyph-name="ecaron" unicode="&#x11b;" horiz-adv-x="482" 
d="M357 142l82 -46q-28 -50 -71 -77q-49 -32 -124 -32q-88 0 -142 54q-62 62 -62 161q0 104 67 173q57 57 141 57q82 0 135 -55q59 -61 59 -178v-12h-302q4 -53 36 -85q27 -27 75 -27q39 0 67 21q23 18 39 46zM147 267h195q-6 35 -30 57q-26 24 -66 24q-42 0 -69 -27
q-22 -20 -30 -54zM244 589l88 86l66 -52l-154 -138l-154 138l66 52z" />
    <glyph glyph-name="Gcircumflex" unicode="&#x11c;" horiz-adv-x="748" 
d="M425 253v94h275v-5q0 -174 -99 -270q-88 -85 -227 -85t-227 91q-99 102 -99 252q0 75 27 140.5t70 108.5q45 45 110.5 72.5t140.5 27.5q99 0 174 -42q69 -39 108 -100l-81 -57q-36 50 -82 76q-49 29 -118 29q-107 0 -176 -69q-33 -33 -52 -83t-19 -104q0 -107 69 -181
q63 -67 167 -67q89 0 149 59q49 48 56 113h-166zM394 812l-99 -82l-66 56l165 134l165 -134l-66 -56z" />
    <glyph glyph-name="gcircumflex" unicode="&#x11d;" horiz-adv-x="530" 
d="M370 375v46h98v-387q0 -82 -14 -133.5t-55 -85.5q-55 -45 -140 -45q-86 0 -138 52q-51 51 -62 131h95q7 -40 31 -66q27 -29 76 -29t77 28q32 31 32 106v55q-47 -60 -128 -60q-85 0 -139 57q-63 66 -63 167t62 163q57 58 143 58q77 0 125 -57zM257 344q-45 0 -74 -28
q-43 -40 -43 -107q0 -69 42 -106q31 -28 75 -28q49 0 82 34q37 40 37 99q0 68 -40 106q-30 30 -79 30zM250 571l-88 -86l-66 52l154 138l154 -138l-66 -52z" />
    <glyph glyph-name="Gbreve" unicode="&#x11e;" horiz-adv-x="748" 
d="M425 253v94h275v-5q0 -174 -99 -270q-88 -85 -227 -85t-227 91q-99 102 -99 252q0 75 27 140.5t70 108.5q45 45 110.5 72.5t140.5 27.5q99 0 174 -42q69 -39 108 -100l-81 -57q-36 50 -82 76q-49 29 -118 29q-107 0 -176 -69q-33 -33 -52 -83t-19 -104q0 -107 69 -181
q63 -67 167 -67q89 0 149 59q49 48 56 113h-166zM482 874h82q-9 -49 -40 -86q-48 -58 -130 -58t-130 58q-31 37 -40 86h82q9 -33 34 -49q22 -15 54 -15t54 15q25 16 34 49z" />
    <glyph glyph-name="gbreve" unicode="&#x11f;" horiz-adv-x="530" 
d="M370 375v46h98v-387q0 -82 -14 -133.5t-55 -85.5q-55 -45 -140 -45q-86 0 -138 52q-51 51 -62 131h95q7 -40 31 -66q27 -29 76 -29t77 28q32 31 32 106v55q-47 -60 -128 -60q-85 0 -139 57q-63 66 -63 167t62 163q57 58 143 58q77 0 125 -57zM257 344q-45 0 -74 -28
q-43 -40 -43 -107q0 -69 42 -106q31 -28 75 -28q49 0 82 34q37 40 37 99q0 68 -40 106q-30 30 -79 30zM333 638h79q-13 -60 -38 -85q-40 -50 -122 -50q-83 0 -125 49q-30 36 -39 86h79q10 -33 30 -49q19 -16 52 -16t53 15q23 18 31 50z" />
    <glyph glyph-name="Gdotaccent" unicode="&#x120;" horiz-adv-x="748" 
d="M425 253v94h275v-5q0 -174 -99 -270q-88 -85 -227 -85t-227 91q-99 102 -99 252q0 75 27 140.5t70 108.5q45 45 110.5 72.5t140.5 27.5q99 0 174 -42q69 -39 108 -100l-81 -57q-36 50 -82 76q-49 29 -118 29q-107 0 -176 -69q-33 -33 -52 -83t-19 -104q0 -107 69 -181
q63 -67 167 -67q89 0 149 59q49 48 56 113h-166zM328 801q0 29 19 48t48 19t48 -19t19 -48t-19 -48t-48 -19t-48 19t-19 48z" />
    <glyph glyph-name="gdotaccent" unicode="&#x121;" horiz-adv-x="530" 
d="M370 375v46h98v-387q0 -82 -14 -133.5t-55 -85.5q-55 -45 -140 -45q-86 0 -138 52q-51 51 -62 131h95q7 -40 31 -66q27 -29 76 -29t77 28q32 31 32 106v55q-47 -60 -128 -60q-85 0 -139 57q-63 66 -63 167t62 163q57 58 143 58q77 0 125 -57zM257 344q-45 0 -74 -28
q-43 -40 -43 -107q0 -69 42 -106q31 -28 75 -28q49 0 82 34q37 40 37 99q0 68 -40 106q-30 30 -79 30zM186 550q0 27 19 46t46 19t46 -19t19 -46t-19 -46t-46 -19t-46 19t-19 46z" />
    <glyph glyph-name="Gcommaaccent" unicode="&#x122;" horiz-adv-x="748" 
d="M425 253v94h275v-5q0 -174 -99 -270q-88 -85 -227 -85t-227 91q-99 102 -99 252q0 75 27 140.5t70 108.5q45 45 110.5 72.5t140.5 27.5q99 0 174 -42q69 -39 108 -100l-81 -57q-36 50 -82 76q-49 29 -118 29q-107 0 -176 -69q-33 -33 -52 -83t-19 -104q0 -107 69 -181
q63 -67 167 -67q89 0 149 59q49 48 56 113h-166zM280 -242l72 192l88 -34l-90 -186z" />
    <glyph glyph-name="gcommaaccent" unicode="&#x123;" horiz-adv-x="530" 
d="M370 375v46h98v-387q0 -82 -14 -133.5t-55 -85.5q-55 -45 -140 -45q-86 0 -138 52q-51 51 -62 131h95q7 -40 31 -66q27 -29 76 -29t77 28q32 31 32 106v55q-47 -60 -128 -60q-85 0 -139 57q-63 66 -63 167t62 163q57 58 143 58q77 0 125 -57zM257 344q-45 0 -74 -28
q-43 -40 -43 -107q0 -69 42 -106q31 -28 75 -28q49 0 82 34q37 40 37 99q0 68 -40 106q-30 30 -79 30zM365 671l-72 -192l-88 34l90 186z" />
    <glyph glyph-name="Hcircumflex" unicode="&#x124;" horiz-adv-x="650" 
d="M182 667v-264h286v264h102v-667h-102v307h-286v-307h-102v667h102zM325 812l-99 -82l-66 56l165 134l165 -134l-66 -56z" />
    <glyph glyph-name="hcircumflex" unicode="&#x125;" horiz-adv-x="486" 
d="M62 0v729h98v-344q46 47 113 47q84 0 124 -57q27 -39 27 -117v-258h-98v249q0 52 -19 73q-20 22 -55 22q-48 0 -72 -35q-20 -29 -20 -106v-203h-98zM110 811l-88 -86l-66 52l154 138l154 -138l-66 -52z" />
    <glyph glyph-name="Hbar" unicode="&#x126;" horiz-adv-x="650" 
d="M182 667v-53h286v53h102v-53h60v-84h-60v-530h-102v307h-286v-307h-102v530h-60v84h60v53h102zM468 530h-286v-127h286v127z" />
    <glyph glyph-name="hbar" unicode="&#x127;" horiz-adv-x="486" 
d="M62 0v552h-72v76h72v101h98v-101h200v-76h-200v-167q46 47 113 47q84 0 124 -57q27 -39 27 -117v-258h-98v249q0 52 -19 73q-20 22 -55 22q-48 0 -72 -35q-20 -29 -20 -106v-203h-98z" />
    <glyph glyph-name="Imacron" unicode="&#x12a;" horiz-adv-x="262" 
d="M80 667h102v-667h-102v667zM-10 733v80h282v-80h-282z" />
    <glyph glyph-name="imacron" unicode="&#x12b;" horiz-adv-x="222" 
d="M62 421h98v-421h-98v421zM-10 508v78h242v-78h-242z" />
    <glyph glyph-name="Iogonek" unicode="&#x12e;" horiz-adv-x="262" 
d="M80 667h102v-667q-31 -17 -51 -39q-21 -23 -21 -45q0 -31 40 -31q20 0 52 7l-9 -70q-33 -15 -65 -15q-42 0 -71 24.5t-29 63.5q0 34 26 64q19 22 50 41h-24v667z" />
    <glyph glyph-name="iogonek" unicode="&#x12f;" horiz-adv-x="222" 
d="M62 421h98v-421q-31 -17 -51 -39q-21 -23 -21 -45q0 -31 40 -31q24 0 52 7l-9 -62q-27 -19 -62 -19q-41 0 -70 23.5t-29 60.5q0 34 26 64q20 23 51 41h-25v421zM48 595q0 27 18 45t45 18t45 -18t18 -45t-18 -45t-45 -18t-45 18t-18 45z" />
    <glyph glyph-name="Idotaccent" unicode="&#x130;" horiz-adv-x="262" 
d="M80 667h102v-667h-102v667zM64 801q0 29 19 48t48 19t48 -19t19 -48t-19 -48t-48 -19t-48 19t-19 48z" />
    <glyph glyph-name="dotlessi" unicode="&#x131;" horiz-adv-x="222" 
d="M62 421h98v-421h-98v421z" />
    <glyph glyph-name="Jcircumflex" unicode="&#x134;" horiz-adv-x="362" 
d="M180 667h102v-432q0 -102 -25 -152q-48 -96 -157 -96q-66 0 -118 34l50 86q28 -24 70 -24q49 0 67 45q11 27 11 107v432zM230 812l-99 -82l-66 56l165 134l165 -134l-66 -56z" />
    <glyph glyph-name="jcircumflex" unicode="&#x135;" horiz-adv-x="222" 
d="M62 421h98v-650h-98v650zM111 571l-88 -86l-66 52l154 138l154 -138l-66 -52z" />
    <glyph glyph-name="Kcommaaccent" unicode="&#x136;" horiz-adv-x="586" 
d="M182 667v-266l258 266h134l-301 -302l303 -365h-136l-238 296l-20 -20v-276h-102v667h102zM190 -242l72 192l88 -34l-90 -186z" />
    <glyph glyph-name="kcommaaccent" unicode="&#x137;" horiz-adv-x="442" 
d="M62 729h98v-449l137 141h130l-181 -175l194 -246h-124l-138 180l-18 -18v-162h-98v729zM130 -242l72 192l88 -34l-90 -186z" />
    <glyph glyph-name="Lacute" unicode="&#x139;" horiz-adv-x="394" 
d="M80 667h102v-571h196v-96h-298v667zM154 727l-48 40l138 139l86 -60z" />
    <glyph glyph-name="lacute" unicode="&#x13a;" horiz-adv-x="222" 
d="M62 729h98v-729h-98v729zM175 935l90 -46l-156 -144l-54 34z" />
    <glyph glyph-name="Lcommaaccent" unicode="&#x13b;" horiz-adv-x="394" 
d="M80 667h102v-571h196v-96h-298v667zM130 -242l72 192l88 -34l-90 -186z" />
    <glyph glyph-name="lcommaaccent" unicode="&#x13c;" horiz-adv-x="222" 
d="M62 729h98v-729h-98v729zM20 -242l72 192l88 -34l-90 -186z" />
    <glyph glyph-name="Lcaron" unicode="&#x13d;" horiz-adv-x="394" 
d="M80 667h102v-571h196v-96h-298v667zM230 468l82 212l88 -34l-104 -206z" />
    <glyph glyph-name="lcaron" unicode="&#x13e;" horiz-adv-x="330" 
d="M62 729h98v-729h-98v729zM190 478l82 212l88 -34l-104 -206z" />
    <glyph glyph-name="Ldot" unicode="&#x13f;" horiz-adv-x="394" 
d="M80 667h102v-571h196v-96h-298v667zM255 334q0 28 19.5 47.5t47.5 19.5t47.5 -19.5t19.5 -47.5t-19.5 -47.5t-47.5 -19.5t-47.5 19.5t-19.5 47.5z" />
    <glyph glyph-name="ldot" unicode="&#x140;" horiz-adv-x="352" 
d="M62 729h98v-729h-98v729zM222 363q0 27 19 46t46 19t46 -19t19 -46t-19 -46t-46 -19t-46 19t-19 46z" />
    <glyph glyph-name="Lslash" unicode="&#x141;" horiz-adv-x="394" 
d="M80 667h102v-251l120 77v-84l-120 -77v-236h196v-96h-298v287l-80 -51v84l80 51v296z" />
    <glyph glyph-name="lslash" unicode="&#x142;" horiz-adv-x="222" 
d="M62 729h98v-215l62 48v-80l-62 -48v-434h-98v374l-62 -48v80l62 48v275z" />
    <glyph glyph-name="Nacute" unicode="&#x143;" horiz-adv-x="746" 
d="M182 0h-102v712l484 -507v462h102v-708l-484 507v-466zM357 727l-48 40l138 139l86 -60z" />
    <glyph glyph-name="nacute" unicode="&#x144;" horiz-adv-x="485" 
d="M61 0v421h98v-39q45 50 114 50q83 0 124 -57q26 -37 26 -117v-258h-98v234q0 38 -6 62t-19 33.5t-23.5 12t-28.5 2.5q-21 0 -33.5 -3.5t-27 -16t-21.5 -43t-7 -79.5v-202h-98zM318 675l90 -46l-156 -144l-54 34z" />
    <glyph glyph-name="Ncommaaccent" unicode="&#x145;" horiz-adv-x="746" 
d="M182 0h-102v712l484 -507v462h102v-708l-484 507v-466zM280 -242l72 192l88 -34l-90 -186z" />
    <glyph glyph-name="ncommaaccent" unicode="&#x146;" horiz-adv-x="485" 
d="M61 0v421h98v-39q45 50 114 50q83 0 124 -57q26 -37 26 -117v-258h-98v234q0 38 -6 62t-19 33.5t-23.5 12t-28.5 2.5q-21 0 -33.5 -3.5t-27 -16t-21.5 -43t-7 -79.5v-202h-98zM140 -242l72 192l88 -34l-90 -186z" />
    <glyph glyph-name="Ncaron" unicode="&#x147;" horiz-adv-x="746" 
d="M182 0h-102v712l484 -507v462h102v-708l-484 507v-466zM373 838l99 82l66 -56l-165 -134l-165 134l66 56z" />
    <glyph glyph-name="ncaron" unicode="&#x148;" horiz-adv-x="485" 
d="M61 0v421h98v-39q45 50 114 50q83 0 124 -57q26 -37 26 -117v-258h-98v234q0 38 -6 62t-19 33.5t-23.5 12t-28.5 2.5q-21 0 -33.5 -3.5t-27 -16t-21.5 -43t-7 -79.5v-202h-98zM260 589l88 86l66 -52l-154 -138l-154 138l66 52z" />
    <glyph glyph-name="Omacron" unicode="&#x14c;" horiz-adv-x="790" 
d="M395 679q149 0 248 -99t99 -247t-99 -247t-248 -99t-248 99t-99 247t99 247t248 99zM395 81q107 0 176 70.5t69 181.5t-69 181.5t-176 70.5t-176 -70.5t-69 -181.5t69 -181.5t176 -70.5zM215 733v80h360v-80h-360z" />
    <glyph glyph-name="omacron" unicode="&#x14d;" horiz-adv-x="530" 
d="M265 432q96 0 160.5 -62.5t64.5 -159.5q0 -96 -64.5 -159.5t-160.5 -63.5t-160.5 63.5t-64.5 159.5q0 97 64.5 159.5t160.5 62.5zM265 75q57 0 91 36.5t34 97.5q0 67 -36.5 101t-88.5 34t-88.5 -34t-36.5 -101q0 -61 34 -97.5t91 -36.5zM100 508v78h330v-78h-330z" />
    <glyph glyph-name="Obreve" unicode="&#x14e;" horiz-adv-x="790" 
d="M395 679q149 0 248 -99t99 -247t-99 -247t-248 -99t-248 99t-99 247t99 247t248 99zM395 81q107 0 176 70.5t69 181.5t-69 181.5t-176 70.5t-176 -70.5t-69 -181.5t69 -181.5t176 -70.5zM483 874h82q-9 -49 -40 -86q-48 -58 -130 -58t-130 58q-31 37 -40 86h82
q9 -33 34 -49q22 -15 54 -15t54 15q25 16 34 49z" />
    <glyph glyph-name="obreve" unicode="&#x14f;" horiz-adv-x="530" 
d="M265 432q96 0 160.5 -62.5t64.5 -159.5q0 -96 -64.5 -159.5t-160.5 -63.5t-160.5 63.5t-64.5 159.5q0 97 64.5 159.5t160.5 62.5zM265 75q57 0 91 36.5t34 97.5q0 67 -36.5 101t-88.5 34t-88.5 -34t-36.5 -101q0 -61 34 -97.5t91 -36.5zM348 638h79q-13 -60 -38 -85
q-40 -50 -122 -50q-83 0 -125 49q-30 36 -39 86h79q10 -33 30 -49q19 -16 52 -16t53 15q23 18 31 50z" />
    <glyph glyph-name="Ohungarumlaut" unicode="&#x150;" horiz-adv-x="790" 
d="M395 679q149 0 248 -99t99 -247t-99 -247t-248 -99t-248 99t-99 247t99 247t248 99zM395 81q107 0 176 70.5t69 181.5t-69 181.5t-176 70.5t-176 -70.5t-69 -181.5t69 -181.5t176 -70.5zM377 906l78 -52l-156 -127l-44 36zM577 906l78 -52l-156 -127l-44 36z" />
    <glyph glyph-name="ohungarumlaut" unicode="&#x151;" horiz-adv-x="530" 
d="M265 432q96 0 160.5 -62.5t64.5 -159.5q0 -96 -64.5 -159.5t-160.5 -63.5t-160.5 63.5t-64.5 159.5q0 97 64.5 159.5t160.5 62.5zM265 75q57 0 91 36.5t34 97.5q0 67 -36.5 101t-88.5 34t-88.5 -34t-36.5 -101q0 -61 34 -97.5t91 -36.5zM247 675l82 -46l-146 -144l-42 34
zM427 675l82 -46l-146 -144l-42 34z" />
    <glyph glyph-name="OE" unicode="&#x152;" horiz-adv-x="1058" 
d="M1006 667v-96h-266v-159h258v-96h-258v-220h266v-96h-368v92q-89 -105 -243 -105q-149 0 -248 100t-99 246q0 148 99 247t248 99q152 0 243 -108v96h368zM395 585q-107 0 -176 -70.5t-69 -181.5t69 -181.5t176 -70.5t176 70.5t69 181.5t-69 181.5t-176 70.5z" />
    <glyph glyph-name="oe" unicode="&#x153;" horiz-adv-x="838" 
d="M713 142l82 -46q-28 -50 -71 -77q-51 -32 -121 -32q-59 0 -100 22q-42 22 -64 59q-33 -41 -76 -61q-45 -20 -104 -20q-94 0 -155 64q-64 66 -64 164q0 86 57 147q68 70 168 70q57 0 102 -21t72 -60q25 38 66 60q42 21 99 21q83 0 135 -55q59 -61 59 -178v-12h-302
q4 -53 36 -85q27 -27 75 -27q39 0 67 21q23 18 39 46zM265 75q51 0 87 33q38 36 38 101q0 63 -33 98q-35 37 -92 37q-54 0 -88 -34q-37 -37 -37 -102q0 -63 38 -101q32 -32 87 -32zM503 267h195q-6 35 -30 57q-26 24 -66 24q-42 0 -69 -27q-22 -20 -30 -54z" />
    <glyph glyph-name="Racute" unicode="&#x154;" horiz-adv-x="534" 
d="M80 667h119q118 0 176 -39q79 -53 79 -157q0 -71 -40.5 -121t-107.5 -65l208 -285h-123l-191 273h-18v-273h-102v667zM182 573v-212h32q13 0 26 1t35.5 7t39 16.5t29 32.5t12.5 52q0 103 -139 103h-35zM234 727l-48 40l138 139l86 -60z" />
    <glyph glyph-name="racute" unicode="&#x155;" horiz-adv-x="332" 
d="M62 0v421h98v-38q19 22 41 35q24 14 60 14q43 0 77 -20l-40 -89q-24 15 -50 15q-39 0 -61 -23q-27 -29 -27 -97v-218h-98zM285 675l90 -46l-156 -144l-54 34z" />
    <glyph glyph-name="Rcommaaccent" unicode="&#x156;" horiz-adv-x="534" 
d="M80 667h119q118 0 176 -39q79 -53 79 -157q0 -71 -40.5 -121t-107.5 -65l208 -285h-123l-191 273h-18v-273h-102v667zM182 573v-212h32q13 0 26 1t35.5 7t39 16.5t29 32.5t12.5 52q0 103 -139 103h-35zM180 -242l72 192l88 -34l-90 -186z" />
    <glyph glyph-name="rcommaaccent" unicode="&#x157;" horiz-adv-x="332" 
d="M62 0v421h98v-38q19 22 41 35q24 14 60 14q43 0 77 -20l-40 -89q-24 15 -50 15q-39 0 -61 -23q-27 -29 -27 -97v-218h-98zM70 -242l72 192l88 -34l-90 -186z" />
    <glyph glyph-name="Rcaron" unicode="&#x158;" horiz-adv-x="534" 
d="M80 667h119q118 0 176 -39q79 -53 79 -157q0 -71 -40.5 -121t-107.5 -65l208 -285h-123l-191 273h-18v-273h-102v667zM182 573v-212h32q13 0 26 1t35.5 7t39 16.5t29 32.5t12.5 52q0 103 -139 103h-35zM240 838l99 82l66 -56l-165 -134l-165 134l66 56z" />
    <glyph glyph-name="rcaron" unicode="&#x159;" horiz-adv-x="332" 
d="M62 0v421h98v-38q19 22 41 35q24 14 60 14q43 0 77 -20l-40 -89q-24 15 -50 15q-39 0 -61 -23q-27 -29 -27 -97v-218h-98zM210 589l88 86l66 -52l-154 -138l-154 138l66 52z" />
    <glyph glyph-name="Sacute" unicode="&#x15a;" horiz-adv-x="516" 
d="M450 567l-82 -48q-10 24 -30 42q-30 24 -72 24q-45 0 -69.5 -23t-24.5 -57q0 -52 72 -81l67 -27q157 -64 157 -196q0 -95 -60.5 -154.5t-154.5 -59.5q-97 0 -157 67q-49 55 -56 130l101 22q0 -48 28 -85q32 -40 87 -40q47 0 78.5 31t31.5 81q0 46 -26.5 71t-69.5 43
l-64 27q-136 57 -136 169q0 72 52.5 124t142.5 52q81 0 134 -45q32 -28 51 -67zM242 727l-48 40l138 139l86 -60z" />
    <glyph glyph-name="sacute" unicode="&#x15b;" horiz-adv-x="360" 
d="M319 358l-73 -48q-23 36 -60 36q-19 0 -30 -11q-9 -9 -9 -22q0 -15 14 -24q3 -2 6 -3.5l11 -5.5l16 -8l50 -25q42 -21 59 -39q31 -31 31 -78q0 -56 -37 -96q-43 -47 -118 -47q-56 0 -91 27q-38 28 -54 77l80 38q10 -29 23 -40q16 -16 43 -16q26 0 40 14t14 33
q0 18 -13 32q-14 14 -42 26l-36 17q-42 20 -58 36q-30 29 -30 71q0 53 35 90q38 40 103 40q45 0 78 -22q30 -19 48 -52zM255 675l90 -46l-156 -144l-54 34z" />
    <glyph glyph-name="Scircumflex" unicode="&#x15c;" horiz-adv-x="516" 
d="M450 567l-82 -48q-10 24 -30 42q-30 24 -72 24q-45 0 -69.5 -23t-24.5 -57q0 -52 72 -81l67 -27q157 -64 157 -196q0 -95 -60.5 -154.5t-154.5 -59.5q-97 0 -157 67q-49 55 -56 130l101 22q0 -48 28 -85q32 -40 87 -40q47 0 78.5 31t31.5 81q0 46 -26.5 71t-69.5 43
l-64 27q-136 57 -136 169q0 72 52.5 124t142.5 52q81 0 134 -45q32 -28 51 -67zM260 812l-99 -82l-66 56l165 134l165 -134l-66 -56z" />
    <glyph glyph-name="scircumflex" unicode="&#x15d;" horiz-adv-x="360" 
d="M319 358l-73 -48q-23 36 -60 36q-19 0 -30 -11q-9 -9 -9 -22q0 -15 14 -24q3 -2 6 -3.5l11 -5.5l16 -8l50 -25q42 -21 59 -39q31 -31 31 -78q0 -56 -37 -96q-43 -47 -118 -47q-56 0 -91 27q-38 28 -54 77l80 38q10 -29 23 -40q16 -16 43 -16q26 0 40 14t14 33
q0 18 -13 32q-14 14 -42 26l-36 17q-42 20 -58 36q-30 29 -30 71q0 53 35 90q38 40 103 40q45 0 78 -22q30 -19 48 -52zM180 571l-88 -86l-66 52l154 138l154 -138l-66 -52z" />
    <glyph glyph-name="Scedilla" unicode="&#x15e;" horiz-adv-x="516" 
d="M450 567l-82 -48q-10 24 -30 42q-30 24 -72 24q-45 0 -69.5 -23t-24.5 -57q0 -52 72 -81l67 -27q157 -64 157 -196q0 -95 -60.5 -154.5t-154.5 -59.5q-97 0 -157 67q-49 55 -56 130l101 22q0 -48 28 -85q32 -40 87 -40q47 0 78.5 31t31.5 81q0 46 -26.5 71t-69.5 43
l-64 27q-136 57 -136 169q0 72 52.5 124t142.5 52q81 0 134 -45q32 -28 51 -67zM240 -53l86 -38l-112 -133l-64 32z" />
    <glyph glyph-name="scedilla" unicode="&#x15f;" horiz-adv-x="360" 
d="M319 358l-73 -48q-23 36 -60 36q-19 0 -30 -11q-9 -9 -9 -22q0 -15 14 -24q3 -2 6 -3.5l11 -5.5l16 -8l50 -25q42 -21 59 -39q31 -31 31 -78q0 -56 -37 -96q-43 -47 -118 -47q-56 0 -91 27q-38 28 -54 77l80 38q10 -29 23 -40q16 -16 43 -16q26 0 40 14t14 33
q0 18 -13 32q-14 14 -42 26l-36 17q-42 20 -58 36q-30 29 -30 71q0 53 35 90q38 40 103 40q45 0 78 -22q30 -19 48 -52zM168 -53l82 -32l-102 -134l-64 32z" />
    <glyph glyph-name="Scaron" unicode="&#x160;" horiz-adv-x="516" 
d="M450 567l-82 -48q-10 24 -30 42q-30 24 -72 24q-45 0 -69.5 -23t-24.5 -57q0 -52 72 -81l67 -27q157 -64 157 -196q0 -95 -60.5 -154.5t-154.5 -59.5q-97 0 -157 67q-49 55 -56 130l101 22q0 -48 28 -85q32 -40 87 -40q47 0 78.5 31t31.5 81q0 46 -26.5 71t-69.5 43
l-64 27q-136 57 -136 169q0 72 52.5 124t142.5 52q81 0 134 -45q32 -28 51 -67zM260 838l99 82l66 -56l-165 -134l-165 134l66 56z" />
    <glyph glyph-name="scaron" unicode="&#x161;" horiz-adv-x="360" 
d="M319 358l-73 -48q-23 36 -60 36q-19 0 -30 -11q-9 -9 -9 -22q0 -15 14 -24q3 -2 6 -3.5l11 -5.5l16 -8l50 -25q42 -21 59 -39q31 -31 31 -78q0 -56 -37 -96q-43 -47 -118 -47q-56 0 -91 27q-38 28 -54 77l80 38q10 -29 23 -40q16 -16 43 -16q26 0 40 14t14 33
q0 18 -13 32q-14 14 -42 26l-36 17q-42 20 -58 36q-30 29 -30 71q0 53 35 90q38 40 103 40q45 0 78 -22q30 -19 48 -52zM180 589l88 86l66 -52l-154 -138l-154 138l66 52z" />
    <glyph glyph-name="Tcommaaccent" unicode="&#x162;" horiz-adv-x="428" 
d="M418 571h-153v-571h-102v571h-153v96h408v-96zM130 -242l72 192l88 -34l-90 -186z" />
    <glyph glyph-name="tcommaaccent" unicode="&#x163;" horiz-adv-x="242" 
d="M238 331h-75v-331h-98v331h-41v90h41v154h98v-154h75v-90zM30 -242l72 192l88 -34l-90 -186z" />
    <glyph glyph-name="Tcaron" unicode="&#x164;" horiz-adv-x="428" 
d="M418 571h-153v-571h-102v571h-153v96h408v-96zM214 838l99 82l66 -56l-165 -134l-165 134l66 56z" />
    <glyph glyph-name="tcaron" unicode="&#x165;" horiz-adv-x="340" 
d="M238 331h-75v-331h-98v331h-41v90h41v154h98v-154h75v-90zM200 478l82 212l88 -34l-104 -206z" />
    <glyph glyph-name="Utilde" unicode="&#x168;" horiz-adv-x="654" 
d="M80 667h102v-402q0 -78 21 -115q17 -28 50 -48.5t74 -20.5t74 20.5t50 48.5q21 37 21 115v402h102v-429q0 -105 -62 -173q-72 -78 -185 -78t-185 78q-62 68 -62 173v429zM449 832l58 -46q-39 -86 -116 -86q-23 0 -55 16l-16.5 9l-11.5 6t-7.5 4t-6.5 3q-22 10 -37 10
q-36 0 -51 -46l-59 41q19 34 42 54q32 27 70 27q22 0 49 -10q20 -8 46 -23q24 -15 41 -15q41 0 54 56z" />
    <glyph glyph-name="utilde" unicode="&#x169;" horiz-adv-x="484" 
d="M62 421h98v-241q0 -53 18 -76q22 -29 64 -29t64 29q18 23 18 76v241h98v-244q0 -93 -45 -138q-52 -52 -137 -52q-82 0 -133 52q-45 45 -45 138v244zM364 622l58 -46q-39 -86 -116 -86q-23 0 -55 16l-16.5 9l-11.5 6t-7.5 4t-6.5 3q-22 10 -37 10q-36 0 -51 -46l-59 41
q19 34 42 54q32 27 70 27q22 0 49 -10q20 -8 46 -23q24 -15 41 -15q41 0 54 56z" />
    <glyph glyph-name="Umacron" unicode="&#x16a;" horiz-adv-x="654" 
d="M80 667h102v-402q0 -78 21 -115q17 -28 50 -48.5t74 -20.5t74 20.5t50 48.5q21 37 21 115v402h102v-429q0 -105 -62 -173q-72 -78 -185 -78t-185 78q-62 68 -62 173v429zM147 733v80h360v-80h-360z" />
    <glyph glyph-name="umacron" unicode="&#x16b;" horiz-adv-x="484" 
d="M62 421h98v-241q0 -53 18 -76q22 -29 64 -29t64 29q18 23 18 76v241h98v-244q0 -93 -45 -138q-52 -52 -137 -52q-82 0 -133 52q-45 45 -45 138v244zM77 508v78h330v-78h-330z" />
    <glyph glyph-name="Ubreve" unicode="&#x16c;" horiz-adv-x="654" 
d="M80 667h102v-402q0 -78 21 -115q17 -28 50 -48.5t74 -20.5t74 20.5t50 48.5q21 37 21 115v402h102v-429q0 -105 -62 -173q-72 -78 -185 -78t-185 78q-62 68 -62 173v429zM415 874h82q-9 -49 -40 -86q-48 -58 -130 -58t-130 58q-31 37 -40 86h82q9 -33 34 -49
q22 -15 54 -15t54 15q25 16 34 49z" />
    <glyph glyph-name="ubreve" unicode="&#x16d;" horiz-adv-x="484" 
d="M62 421h98v-241q0 -53 18 -76q22 -29 64 -29t64 29q18 23 18 76v241h98v-244q0 -93 -45 -138q-52 -52 -137 -52q-82 0 -133 52q-45 45 -45 138v244zM325 638h79q-13 -60 -38 -85q-40 -50 -122 -50q-83 0 -125 49q-30 36 -39 86h79q10 -33 30 -49q19 -16 52 -16t53 15
q23 18 31 50z" />
    <glyph glyph-name="Uring" unicode="&#x16e;" horiz-adv-x="654" 
d="M80 667h102v-402q0 -78 21 -115q17 -28 50 -48.5t74 -20.5t74 20.5t50 48.5q21 37 21 115v402h102v-429q0 -105 -62 -173q-72 -78 -185 -78t-185 78q-62 68 -62 173v429zM230 823q0 41 28.5 69t68.5 28q41 0 69 -28t28 -69q0 -40 -28 -68.5t-69 -28.5q-40 0 -68.5 28.5
t-28.5 68.5zM284 823q0 -18 12.5 -30.5t30.5 -12.5t30.5 12.5t12.5 30.5t-12.5 30.5t-30.5 12.5t-30.5 -12.5t-12.5 -30.5z" />
    <glyph glyph-name="uring" unicode="&#x16f;" horiz-adv-x="484" 
d="M62 421h98v-241q0 -53 18 -76q22 -29 64 -29t64 29q18 23 18 76v241h98v-244q0 -93 -45 -138q-52 -52 -137 -52q-82 0 -133 52q-45 45 -45 138v244zM148 579q0 38 28 66t66 28t66 -28t28 -66t-28 -66t-66 -28t-66 28t-28 66zM199 579q0 -18 12.5 -30.5t30.5 -12.5
t30.5 12.5t12.5 30.5t-12.5 30.5t-30.5 12.5t-30.5 -12.5t-12.5 -30.5z" />
    <glyph glyph-name="Uhungarumlaut" unicode="&#x170;" horiz-adv-x="654" 
d="M80 667h102v-402q0 -78 21 -115q17 -28 50 -48.5t74 -20.5t74 20.5t50 48.5q21 37 21 115v402h102v-429q0 -105 -62 -173q-72 -78 -185 -78t-185 78q-62 68 -62 173v429zM309 906l78 -52l-156 -127l-44 36zM509 906l78 -52l-156 -127l-44 36z" />
    <glyph glyph-name="uhungarumlaut" unicode="&#x171;" horiz-adv-x="484" 
d="M62 421h98v-241q0 -53 18 -76q22 -29 64 -29t64 29q18 23 18 76v241h98v-244q0 -93 -45 -138q-52 -52 -137 -52q-82 0 -133 52q-45 45 -45 138v244zM224 675l82 -46l-146 -144l-42 34zM404 675l82 -46l-146 -144l-42 34z" />
    <glyph glyph-name="Uogonek" unicode="&#x172;" horiz-adv-x="654" 
d="M80 667h102v-402q0 -79 21 -115q17 -28 50 -48.5t74 -20.5t74 20.5t50 48.5q21 36 21 115v402h102v-429q0 -96 -46 -155q-32 -41 -91 -75l-25 -13.5t-26.5 -15t-19.5 -13.5q-27 -22 -27 -50q0 -16 12 -25q10 -8 28 -8q28 0 52 9l-9 -70q-30 -15 -65 -15q-50 0 -79 31
q-21 23 -21 57q0 31 22 59q12 16 38 36q-108 0 -175 75q-62 68 -62 173v429z" />
    <glyph glyph-name="uogonek" unicode="&#x173;" horiz-adv-x="484" 
d="M62 421h98v-242q0 -52 18 -76q22 -28 64 -28t64 28q18 24 18 76v242h98v-244q0 -28 -2 -47t-12.5 -45t-30.5 -46q-17 -16 -64 -45q-39 -24 -49 -35q-20 -21 -20 -42q0 -17 10 -25q10 -9 34 -9t48 9l-9 -62q-30 -19 -61 -19q-51 0 -78 29q-22 22 -22 55q0 29 19 54
q18 23 39 39q-71 5 -117 51q-29 29 -37 61.5t-8 76.5v244z" />
    <glyph glyph-name="Ydieresis" unicode="&#x178;" horiz-adv-x="540" 
d="M219 0v288l-219 379h116l154 -267l154 267h116l-219 -379v-288h-102zM110 795q0 26 18 44t44 18t44 -18t18 -44t-18 -44t-44 -18t-44 18t-18 44zM306 795q0 26 18 44t44 18t44 -18t18 -44t-18 -44t-44 -18t-44 18t-18 44z" />
    <glyph glyph-name="Zacute" unicode="&#x179;" horiz-adv-x="554" 
d="M524 667l-328 -571h320v-96h-486l328 571h-274v96h440zM274 727l-48 40l138 139l86 -60z" />
    <glyph glyph-name="zacute" unicode="&#x17a;" horiz-adv-x="480" 
d="M472 421l-271 -331h250v-90h-443l273 331h-215v90h406zM315 675l90 -46l-156 -144l-54 34z" />
    <glyph glyph-name="Zdotaccent" unicode="&#x17b;" horiz-adv-x="554" 
d="M524 667l-328 -571h320v-96h-486l328 571h-274v96h440zM223 801q0 29 19.5 48t47.5 19t47.5 -19t19.5 -48t-19.5 -48t-47.5 -19t-47.5 19t-19.5 48z" />
    <glyph glyph-name="zdotaccent" unicode="&#x17c;" horiz-adv-x="480" 
d="M472 421l-271 -331h250v-90h-443l273 331h-215v90h406zM195 550q0 27 19 46t46 19t46 -19t19 -46t-19 -46t-46 -19t-46 19t-19 46z" />
    <glyph glyph-name="Zcaron" unicode="&#x17d;" horiz-adv-x="554" 
d="M524 667l-328 -571h320v-96h-486l328 571h-274v96h440zM290 838l99 82l66 -56l-165 -134l-165 134l66 56z" />
    <glyph glyph-name="zcaron" unicode="&#x17e;" horiz-adv-x="480" 
d="M472 421l-271 -331h250v-90h-443l273 331h-215v90h406zM260 589l88 86l66 -52l-154 -138l-154 138l66 52z" />
    <glyph glyph-name="uni018F" unicode="&#x18f;" horiz-adv-x="748" 
d="M149 478l-72 66q31 42 73 71q89 64 203 64q154 0 252 -102q95 -99 95 -244q0 -147 -102 -249q-97 -97 -239 -97q-160 0 -248 124q-63 89 -63 215v31h549q-7 102 -77.5 165t-166.5 63q-126 0 -204 -107zM589 263h-432q6 -64 44 -111q58 -71 159 -71q111 0 177 77
q38 44 52 105z" />
    <glyph glyph-name="florin" unicode="&#x192;" horiz-adv-x="568" 
d="M508 731l-18 -93q-21 10 -44 10q-32 0 -51 -21q-18 -21 -28 -74l-24 -132h112l-14 -78h-112l-51 -279q-9 -48 -14.5 -72t-21 -59.5t-36.5 -55.5q-64 -62 -186 -53l16 93h6q63 0 90 27q27 26 44 119l51 280h-85l14 78h85l26 144q16 90 58 132q43 43 115 43q37 0 68 -9z
" />
    <glyph glyph-name="uni01CF" unicode="&#x1cf;" horiz-adv-x="262" 
d="M80 667h102v-667h-102v667zM131 838l79 77l59 -49l-138 -131l-138 131l59 49z" />
    <glyph glyph-name="uni01D0" unicode="&#x1d0;" horiz-adv-x="222" 
d="M62 421h98v-421h-98v421zM111 593l70 73l54 -46l-124 -125l-124 125l54 46z" />
    <glyph glyph-name="uni01DD" unicode="&#x1dd;" horiz-adv-x="488" 
d="M133 292l-89 30q24 51 73 80q50 30 117 30q93 0 149 -52q65 -61 65 -174q0 -104 -64 -166q-54 -53 -142 -53q-84 0 -135 50q-67 65 -67 180v25h306q-5 49 -35 76q-28 26 -78 26q-38 0 -63 -16q-19 -11 -37 -36zM339 162h-195q6 -45 30 -68q23 -23 66 -23q42 0 68 26
q27 27 31 65z" />
    <glyph glyph-name="Gcaron" unicode="&#x1e6;" horiz-adv-x="748" 
d="M425 253v94h275v-5q0 -174 -99 -270q-88 -85 -227 -85t-227 91q-99 102 -99 252q0 75 27 140.5t70 108.5q45 45 110.5 72.5t140.5 27.5q99 0 174 -42q69 -39 108 -100l-81 -57q-36 50 -82 76q-49 29 -118 29q-107 0 -176 -69q-33 -33 -52 -83t-19 -104q0 -107 69 -181
q63 -67 167 -67q89 0 149 59q49 48 56 113h-166zM374 838l99 82l66 -56l-165 -134l-165 134l66 56z" />
    <glyph glyph-name="gcaron" unicode="&#x1e7;" horiz-adv-x="530" 
d="M370 375v46h98v-387q0 -82 -14 -133.5t-55 -85.5q-55 -45 -140 -45q-86 0 -138 52q-51 51 -62 131h95q7 -40 31 -66q27 -29 76 -29t77 28q32 31 32 106v55q-47 -60 -128 -60q-85 0 -139 57q-63 66 -63 167t62 163q57 58 143 58q77 0 125 -57zM257 344q-45 0 -74 -28
q-43 -40 -43 -107q0 -69 42 -106q31 -28 75 -28q49 0 82 34q37 40 37 99q0 68 -40 106q-30 30 -79 30zM265 589l88 86l66 -52l-154 -138l-154 138l66 52z" />
    <glyph glyph-name="AEacute" unicode="&#x1fc;" horiz-adv-x="926" 
d="M546 0l-70 159h-283l-73 -159h-110l320 667h295l42 -96h-265l70 -159h258l42 -96h-258l95 -220h265l42 -96h-370zM238 255h198l-95 217zM447 727l-48 40l138 139l86 -60z" />
    <glyph glyph-name="aeacute" unicode="&#x1fd;" horiz-adv-x="756" 
d="M99 328v91q57 13 119 13q53 0 87 -13q37 -14 63 -47q24 29 58 43q38 17 87 17q91 0 144 -55q59 -62 59 -178v-12h-302q4 -53 36 -85q27 -27 75 -27q39 0 67 21q23 18 39 46l82 -46q-28 -50 -71 -77q-50 -32 -126 -32q-51 0 -88 18q-37 17 -60 50q-29 -35 -68 -52
q-38 -16 -89 -16q-83 0 -129 45q-42 41 -42 96q0 60 40 98q46 45 128 45q59 0 108 -28q0 51 -28 76q-29 25 -86 25q-48 0 -103 -16zM220 187q-46 0 -69 -21q-17 -16 -17 -37q0 -22 20 -39q23 -19 66 -19q38 0 63 16q27 17 27 44q0 26 -31 43q-25 13 -59 13zM421 267h195
q-6 35 -30 57q-26 24 -66 24t-69 -27q-22 -22 -30 -54zM453 675l90 -46l-156 -144l-54 34z" />
    <glyph glyph-name="Scommaaccent" unicode="&#x218;" horiz-adv-x="516" 
d="M450 567l-82 -48q-10 24 -30 42q-30 24 -72 24q-45 0 -69.5 -23t-24.5 -57q0 -52 72 -81l67 -27q157 -64 157 -196q0 -95 -60.5 -154.5t-154.5 -59.5q-97 0 -157 67q-49 55 -56 130l101 22q0 -48 28 -85q32 -40 87 -40q47 0 78.5 31t31.5 81q0 46 -26.5 71t-69.5 43
l-64 27q-136 57 -136 169q0 72 52.5 124t142.5 52q81 0 134 -45q32 -28 51 -67zM160 -242l72 192l88 -34l-90 -186z" />
    <glyph glyph-name="scommaaccent" unicode="&#x219;" horiz-adv-x="360" 
d="M319 358l-73 -48q-23 36 -60 36q-19 0 -30 -11q-9 -9 -9 -22q0 -15 14 -24q3 -2 6 -3.5l11 -5.5l16 -8l50 -25q42 -21 59 -39q31 -31 31 -78q0 -56 -37 -96q-43 -47 -118 -47q-56 0 -91 27q-38 28 -54 77l80 38q10 -29 23 -40q16 -16 43 -16q26 0 40 14t14 33
q0 18 -13 32q-14 14 -42 26l-36 17q-42 20 -58 36q-30 29 -30 71q0 53 35 90q38 40 103 40q45 0 78 -22q30 -19 48 -52zM80 -242l72 192l88 -34l-90 -186z" />
    <glyph glyph-name="uni021A" unicode="&#x21a;" horiz-adv-x="428" 
d="M418 571h-153v-571h-102v571h-153v96h408v-96zM134 -242l72 192l88 -34l-90 -186z" />
    <glyph glyph-name="uni021B" unicode="&#x21b;" horiz-adv-x="242" 
d="M238 331h-75v-331h-98v331h-41v90h41v154h98v-154h75v-90zM41 -242l72 192l88 -34l-90 -186z" />
    <glyph glyph-name="uni0228" unicode="&#x228;" 
d="M448 667v-96h-266v-169h258v-96h-258v-210h266v-96h-368v667h368zM290 -53l86 -38l-112 -133l-64 32z" />
    <glyph glyph-name="uni0229" unicode="&#x229;" horiz-adv-x="482" 
d="M357 142l82 -46q-28 -50 -71 -77q-49 -32 -124 -32q-88 0 -142 54q-62 62 -62 161q0 104 67 173q57 57 141 57q82 0 135 -55q59 -61 59 -178v-12h-302q4 -53 36 -85q27 -27 75 -27q39 0 67 21q23 18 39 46zM147 267h195q-6 35 -30 57q-26 24 -66 24q-42 0 -69 -27
q-22 -20 -30 -54zM249 -53l82 -32l-102 -134l-64 32z" />
    <glyph glyph-name="uni0237" unicode="&#x237;" horiz-adv-x="222" 
d="M62 421h98v-650h-98v650z" />
    <glyph glyph-name="uni0259" unicode="&#x259;" horiz-adv-x="488" 
d="M133 292l-89 30q24 51 73 80q50 30 117 30q93 0 149 -52q65 -61 65 -174q0 -104 -64 -166q-54 -53 -142 -53q-84 0 -135 50q-67 65 -67 180v25h306q-5 49 -35 76q-28 26 -78 26q-38 0 -63 -16q-19 -11 -37 -36zM339 162h-195q6 -45 30 -68q23 -23 66 -23q42 0 68 26
q27 27 31 65z" />
    <glyph glyph-name="afii57929" unicode="&#x2bc;" 
d="M160 478l82 212l88 -34l-104 -206z" />
    <glyph glyph-name="circumflex" unicode="&#x2c6;" 
d="M250 571l-88 -86l-66 52l154 138l154 -138l-66 -52z" />
    <glyph glyph-name="caron" unicode="&#x2c7;" 
d="M250 589l88 86l66 -52l-154 -138l-154 138l66 52z" />
    <glyph glyph-name="uni02C9" unicode="&#x2c9;" 
d="M85 508v78h330v-78h-330z" />
    <glyph glyph-name="breve" unicode="&#x2d8;" 
d="M333 638h79q-13 -60 -38 -85q-40 -50 -122 -50q-83 0 -125 49q-30 36 -39 86h79q10 -33 30 -49q19 -16 52 -16t53 15q23 18 31 50z" />
    <glyph glyph-name="dotaccent" unicode="&#x2d9;" 
d="M185 550q0 27 19 46t46 19t46 -19t19 -46t-19 -46t-46 -19t-46 19t-19 46z" />
    <glyph glyph-name="ring" unicode="&#x2da;" 
d="M156 579q0 38 28 66t66 28t66 -28t28 -66t-28 -66t-66 -28t-66 28t-28 66zM207 579q0 -18 12.5 -30.5t30.5 -12.5t30.5 12.5t12.5 30.5t-12.5 30.5t-30.5 12.5t-30.5 -12.5t-12.5 -30.5z" />
    <glyph glyph-name="ogonek" unicode="&#x2db;" 
d="M249 0h73q-31 -17 -51 -39q-21 -23 -21 -45q0 -31 40 -31q24 0 52 7l-9 -62q-30 -19 -62 -19q-41 0 -70 23t-29 61q0 34 26 64q20 23 51 41z" />
    <glyph glyph-name="tilde" unicode="&#x2dc;" 
d="M372 622l58 -46q-39 -86 -116 -86q-23 0 -55 16l-16.5 9l-11.5 6t-7.5 4t-6.5 3q-22 10 -37 10q-36 0 -51 -46l-59 41q19 34 42 54q32 27 70 27q22 0 49 -10q20 -8 46 -23q24 -15 41 -15q41 0 54 56z" />
    <glyph glyph-name="hungarumlaut" unicode="&#x2dd;" 
d="M232 675l82 -46l-146 -144l-42 34zM412 675l82 -46l-146 -144l-42 34z" />
    <glyph glyph-name="acutecomb" unicode="&#x301;" horiz-adv-x="2" 
d="M-173 675l90 -46l-156 -144l-54 34z" />
    <glyph glyph-name="uni0313" unicode="&#x313;" 
d="M160 478l82 212l88 -34l-104 -206z" />
    <glyph glyph-name="uni0315" unicode="&#x315;" 
d="M160 478l82 212l88 -34l-104 -206z" />
    <glyph glyph-name="uni0326" unicode="&#x326;" 
d="M170 -242l72 192l88 -34l-90 -186z" />
    <glyph glyph-name="uni037E" unicode="&#x37e;" horiz-adv-x="320" 
d="M90 372q0 25 17.5 42.5t42.5 17.5t42.5 -17.5t17.5 -42.5t-17.5 -42.5t-42.5 -17.5t-42.5 17.5t-17.5 42.5zM10 -129l102 254l88 -34l-124 -247z" />
    <glyph glyph-name="anoteleia" unicode="&#x387;" horiz-adv-x="200" 
d="M22 340q0 33 22.5 55.5t55.5 22.5t55.5 -22.5t22.5 -55.5t-22.5 -55.5t-55.5 -22.5t-55.5 22.5t-22.5 55.5z" />
    <glyph glyph-name="uni0394" unicode="&#x394;" horiz-adv-x="668" 
d="M644 0h-620l256 667h104zM332 529l-160 -433h320z" />
    <glyph glyph-name="uni03A9" unicode="&#x3a9;" horiz-adv-x="666" 
d="M374 0v108q71 30 114 90q48 65 48 153q0 112 -69 179q-57 55 -134 55t-134 -55q-69 -67 -69 -179q0 -88 48 -153q43 -60 114 -90v-108h-264v96h161q-80 40 -124 117q-37 63 -37 144q0 150 93 241q82 81 212 81t212 -81q93 -91 93 -241q0 -81 -37 -144q-44 -77 -124 -117
h161v-96h-264z" />
    <glyph glyph-name="uni03BC" unicode="&#x3bc;" horiz-adv-x="524" 
d="M160 -229h-98v650h98v-205q0 -59 17 -91q26 -49 84 -49q55 0 83 50q20 35 20 96v199h98v-421h-98v73q-12 -39 -40.5 -62t-65.5 -23q-66 0 -98 69v-286z" />
    <glyph glyph-name="pi" unicode="&#x3c0;" horiz-adv-x="554" 
d="M195 0h-98v331h-75v90h510v-90h-75v-331h-98v331h-164v-331z" />
    <glyph glyph-name="afii10023" unicode="&#x401;" 
d="M448 667v-96h-266v-169h258v-96h-258v-210h266v-96h-368v667h368zM104 795q0 26 18 44t44 18t44 -18t18 -44t-18 -44t-44 -18t-44 18t-18 44zM300 795q0 26 18 44t44 18t44 -18t18 -44t-18 -44t-44 -18t-44 18t-18 44z" />
    <glyph glyph-name="afii10051" unicode="&#x402;" horiz-adv-x="668" 
d="M486 571h-220v-186q71 23 137 23q80 0 130 -30q87 -51 87 -179q0 -116 -73 -168q-51 -37 -140 -37q-27 0 -67 6v94q27 -6 64 -6q51 0 78 21q34 28 34 89q0 71 -53 100q-31 16 -77 16q-68 0 -120 -23v-291h-102v571h-154v96h476v-96z" />
    <glyph glyph-name="afii10052" unicode="&#x403;" horiz-adv-x="428" 
d="M80 0v667h334v-96h-232v-571h-102zM234 727l-48 40l138 139l86 -60z" />
    <glyph glyph-name="afii10053" unicode="&#x404;" horiz-adv-x="620" 
d="M574 631v-120q-81 74 -181 74q-115 0 -178 -70q-47 -51 -59 -125h328v-96h-331q7 -81 61 -139q67 -74 180 -74q99 0 180 77v-121q-84 -50 -183 -50q-139 0 -236 92q-107 100 -107 252q0 160 107 261q92 87 241 87q103 0 178 -48z" />
    <glyph glyph-name="afii10054" unicode="&#x405;" horiz-adv-x="516" 
d="M450 567l-82 -48q-10 24 -30 42q-30 24 -72 24q-45 0 -69.5 -23t-24.5 -57q0 -52 72 -81l67 -27q157 -64 157 -196q0 -95 -60.5 -154.5t-154.5 -59.5q-97 0 -157 67q-49 55 -56 130l101 22q0 -48 28 -85q32 -40 87 -40q47 0 78.5 31t31.5 81q0 46 -26.5 71t-69.5 43
l-64 27q-136 57 -136 169q0 72 52.5 124t142.5 52q81 0 134 -45q32 -28 51 -67z" />
    <glyph glyph-name="afii10055" unicode="&#x406;" horiz-adv-x="262" 
d="M80 667h102v-667h-102v667z" />
    <glyph glyph-name="afii10056" unicode="&#x407;" horiz-adv-x="262" 
d="M80 667h102v-667h-102v667zM14 795q0 23 15 39.5t35 16.5t35.5 -17t15.5 -39t-15.5 -39t-35.5 -17t-35 16.5t-15 39.5zM148 795q0 23 15 39.5t35 16.5t35 -16.5t15 -39.5t-15 -39.5t-35 -16.5t-35 16.5t-15 39.5z" />
    <glyph glyph-name="afii10057" unicode="&#x408;" horiz-adv-x="362" 
d="M180 667h102v-432q0 -102 -25 -152q-48 -96 -157 -96q-66 0 -118 34l50 86q28 -24 70 -24q49 0 67 45q11 27 11 107v432z" />
    <glyph glyph-name="afii10058" unicode="&#x409;" horiz-adv-x="900" 
d="M144 667h426v-269h76q107 0 167 -53q63 -55 63 -147q0 -48 -21.5 -91.5t-61.5 -70.5q-54 -36 -146 -36h-179v571h-222v-332q0 -48 -3 -77.5t-18.5 -66.5t-44.5 -61q-49 -40 -121 -40q-21 0 -45 6v94q20 -6 37 -6q37 0 60 23q16 15 23.5 45.5t8.5 50.5t1 62v398zM570 302
v-206h72q134 0 134 101q0 44 -29.5 74.5t-102.5 30.5h-74z" />
    <glyph glyph-name="afii10059" unicode="&#x40a;" horiz-adv-x="900" 
d="M182 667v-264h286v264h102v-264h76q107 0 167 -53q63 -55 63 -147q0 -113 -83 -167q-54 -36 -146 -36h-179v307h-286v-307h-102v667h102zM570 307v-211h72q76 0 108 32q26 26 26 74t-28 74q-33 31 -104 31h-74z" />
    <glyph glyph-name="afii10060" unicode="&#x40b;" horiz-adv-x="690" 
d="M486 571h-220v-178q62 7 129 7q118 0 170 -41q65 -51 65 -162v-197h-102v182q0 75 -36 103q-27 21 -106 21q-55 0 -120 -7v-299h-102v571h-154v96h476v-96z" />
    <glyph glyph-name="afii10061" unicode="&#x40c;" horiz-adv-x="586" 
d="M182 667v-266l258 266h134l-301 -302l303 -365h-136l-238 296l-20 -20v-276h-102v667h102zM277 727l-48 40l138 139l86 -60z" />
    <glyph glyph-name="afii10062" unicode="&#x40e;" horiz-adv-x="570" 
d="M6 667h124l172 -356l156 356h106l-301 -667h-106l86 189zM129 832l80 36q6 -19 18.5 -31.5t28 -17t23.5 -6t15 -1.5t15 1.5t23.5 6t28 17t18.5 31.5l80 -36q-23 -56 -69.5 -79t-95.5 -23t-95.5 23t-69.5 79z" />
    <glyph glyph-name="afii10145" unicode="&#x40f;" horiz-adv-x="640" 
d="M80 0v667h102v-571h276v571h102v-667h-192v-166h-96v166h-192z" />
    <glyph glyph-name="afii10017" unicode="&#x410;" horiz-adv-x="656" 
d="M542 0l-70 161h-285l-73 -161h-110l332 706l316 -706h-110zM229 257h202l-99 226z" />
    <glyph glyph-name="afii10018" unicode="&#x411;" horiz-adv-x="526" 
d="M80 0v667h334v-96h-232v-173h66q107 0 167 -53q63 -55 63 -147q0 -48 -21.5 -91.5t-61.5 -70.5q-54 -36 -146 -36h-169zM182 302v-206h62q134 0 134 101q0 44 -29.5 74.5t-102.5 30.5h-64z" />
    <glyph glyph-name="afii10019" unicode="&#x412;" horiz-adv-x="526" 
d="M80 667h101q68 0 110 -11t74 -41q53 -50 53 -132q0 -47 -20 -79q-18 -31 -50 -46q52 -13 86 -48q44 -46 44 -125q0 -73 -44 -120q-62 -65 -187 -65h-167v667zM182 571v-191h31q56 0 83 26q26 25 26 76q0 41 -24 64q-26 25 -81 25h-35zM182 296v-200h62q69 0 101 26
q33 26 33 74q0 43 -27 70q-31 30 -105 30h-64z" />
    <glyph glyph-name="afii10020" unicode="&#x413;" horiz-adv-x="428" 
d="M80 0v667h334v-96h-232v-571h-102z" />
    <glyph glyph-name="afii10021" unicode="&#x414;" horiz-adv-x="650" 
d="M144 667h416v-571h76v-246h-96v150h-430v-150h-96v246q34 -1 62 24.5t44 65.5q24 61 24 175v306zM246 571v-210q0 -125 -23 -186q-18 -46 -52 -79h287v475h-212z" />
    <glyph glyph-name="afii10022" unicode="&#x415;" 
d="M448 667v-96h-266v-169h258v-96h-258v-210h266v-96h-368v667h368z" />
    <glyph glyph-name="afii10024" unicode="&#x416;" horiz-adv-x="846" 
d="M372 667h102v-269l238 269h124l-275 -306l281 -361h-126l-226 294l-16 -18v-276h-102v276l-16 18l-226 -294h-126l281 361l-275 306h124l238 -269v269z" />
    <glyph glyph-name="afii10025" unicode="&#x417;" horiz-adv-x="570" 
d="M137 516l-67 65q37 49 86 72q50 25 121 25q100 0 155 -53q48 -47 48 -117q0 -48 -22 -83q-21 -36 -60 -58q55 -14 90 -59q34 -43 34 -113q0 -90 -67 -149q-68 -58 -180 -58q-95 0 -164 52q-54 42 -85 108l90 46q20 -51 62 -81q44 -31 110 -31t102 36q32 32 32 82
q0 52 -39 78q-37 26 -121 26h-60v96h54q64 0 96 27q30 25 30 68q0 45 -32 69q-26 20 -77 20q-48 0 -81 -19q-32 -18 -55 -49z" />
    <glyph glyph-name="afii10026" unicode="&#x418;" horiz-adv-x="712" 
d="M530 0v449l-450 -479v697h102v-451l450 479v-695h-102z" />
    <glyph glyph-name="afii10027" unicode="&#x419;" horiz-adv-x="712" 
d="M530 0v449l-450 -479v697h102v-451l450 479v-695h-102zM191 832l80 36q6 -19 18.5 -31.5t28 -17t23.5 -6t15 -1.5t15 1.5t23.5 6t28 17t18.5 31.5l80 -36q-23 -56 -69.5 -79t-95.5 -23t-95.5 23t-69.5 79z" />
    <glyph glyph-name="afii10028" unicode="&#x41a;" horiz-adv-x="586" 
d="M182 667v-266l258 266h134l-301 -302l303 -365h-136l-238 296l-20 -20v-276h-102v667h102z" />
    <glyph glyph-name="afii10029" unicode="&#x41b;" horiz-adv-x="650" 
d="M144 667h426v-667h-102v571h-222v-332q0 -48 -3 -77.5t-18.5 -66.5t-44.5 -61q-49 -40 -121 -40q-21 0 -45 6v94q20 -6 37 -6q37 0 60 23q16 15 23.5 45.5t8.5 50.5t1 62v398z" />
    <glyph glyph-name="afii10030" unicode="&#x41c;" horiz-adv-x="852" 
d="M164 0h-104l140 717l232 -518l234 518l126 -717h-104l-68 402l-194 -433l-192 434z" />
    <glyph glyph-name="afii10031" unicode="&#x41d;" horiz-adv-x="650" 
d="M182 667v-264h286v264h102v-667h-102v307h-286v-307h-102v667h102z" />
    <glyph glyph-name="afii10032" unicode="&#x41e;" horiz-adv-x="790" 
d="M395 679q149 0 248 -99t99 -247t-99 -247t-248 -99t-248 99t-99 247t99 247t248 99zM395 81q107 0 176 70.5t69 181.5t-69 181.5t-176 70.5t-176 -70.5t-69 -181.5t69 -181.5t176 -70.5z" />
    <glyph glyph-name="afii10033" unicode="&#x41f;" horiz-adv-x="650" 
d="M80 667h490v-667h-102v571h-286v-571h-102v667z" />
    <glyph glyph-name="afii10034" unicode="&#x420;" horiz-adv-x="480" 
d="M80 667h147q92 0 146 -36q40 -27 61.5 -70.5t21.5 -91.5q0 -90 -65 -146q-61 -52 -163 -52h-46v-271h-102v667zM182 573v-208h46q64 0 97 28.5t33 76.5q0 17 -4.5 32t-17 32.5t-40.5 28t-69 10.5h-45z" />
    <glyph glyph-name="afii10035" unicode="&#x421;" horiz-adv-x="620" 
d="M574 631v-120q-82 74 -181 74q-108 0 -175.5 -71.5t-67.5 -182.5q0 -107 69 -178.5t175 -71.5q99 0 180 77v-121q-84 -50 -183 -50q-139 0 -236 92q-107 100 -107 252q0 160 107 261q92 87 241 87q103 0 178 -48z" />
    <glyph glyph-name="afii10036" unicode="&#x422;" horiz-adv-x="428" 
d="M418 571h-153v-571h-102v571h-153v96h408v-96z" />
    <glyph glyph-name="afii10037" unicode="&#x423;" horiz-adv-x="570" 
d="M6 667h124l172 -356l156 356h106l-301 -667h-106l86 189z" />
    <glyph glyph-name="afii10038" unicode="&#x424;" horiz-adv-x="826" 
d="M362 0v94h-18q-148 0 -222 72.5t-74 187.5t74 187.5t222 72.5h18v80h102v-80h18q148 0 222 -72.5t74 -187.5t-74 -187.5t-222 -72.5h-18v-94h-102zM362 188v332h-20q-96 0 -144 -45.5t-48 -120.5t48 -120.5t144 -45.5h20zM464 520v-332h20q96 0 144 45.5t48 120.5
t-48 120.5t-144 45.5h-20z" />
    <glyph glyph-name="afii10039" unicode="&#x425;" horiz-adv-x="546" 
d="M10 0l210 348l-184 319h114l130 -226l133 226h114l-192 -319l201 -348h-114l-146 255l-152 -255h-114z" />
    <glyph glyph-name="afii10040" unicode="&#x426;" horiz-adv-x="660" 
d="M80 0v667h102v-571h276v571h102v-571h86v-246h-96v150h-470z" />
    <glyph glyph-name="afii10041" unicode="&#x427;" horiz-adv-x="606" 
d="M424 0v274q-91 -7 -136 -7q-111 0 -163 41q-65 51 -65 162v197h102v-182q0 -75 36 -103q27 -21 106 -21q57 0 120 7v299h102v-667h-102z" />
    <glyph glyph-name="afii10042" unicode="&#x428;" horiz-adv-x="938" 
d="M80 0v667h102v-571h236v571h102v-571h236v571h102v-667h-778z" />
    <glyph glyph-name="afii10043" unicode="&#x429;" horiz-adv-x="958" 
d="M80 0v667h102v-571h236v571h102v-571h236v571h102v-571h86v-246h-96v150h-768z" />
    <glyph glyph-name="afii10044" unicode="&#x42a;" horiz-adv-x="592" 
d="M160 0v571h-150v96h252v-269h76q107 0 167 -53q63 -55 63 -147q0 -48 -21.5 -91.5t-61.5 -70.5q-54 -36 -146 -36h-179zM262 302v-206h72q134 0 134 101q0 44 -29.5 74.5t-102.5 30.5h-74z" />
    <glyph glyph-name="afii10045" unicode="&#x42b;" horiz-adv-x="740" 
d="M80 0v667h102v-269h76q107 0 167 -53q63 -55 63 -147q0 -48 -21.5 -91.5t-61.5 -70.5q-54 -36 -146 -36h-179zM182 302v-206h72q134 0 134 101q0 44 -29.5 74.5t-102.5 30.5h-74zM558 667h102v-667h-102v667z" />
    <glyph glyph-name="afii10046" unicode="&#x42c;" horiz-adv-x="512" 
d="M80 0v667h102v-269h76q107 0 167 -53q63 -55 63 -147q0 -48 -21.5 -91.5t-61.5 -70.5q-54 -36 -146 -36h-179zM182 302v-206h72q134 0 134 101q0 44 -29.5 74.5t-102.5 30.5h-74z" />
    <glyph glyph-name="afii10047" unicode="&#x42d;" horiz-adv-x="622" 
d="M48 511v120q84 48 193 48q146 0 234 -87q99 -98 99 -258q0 -157 -99 -256q-91 -91 -237 -91q-106 0 -190 50v121q76 -77 190 -77q102 0 162 60t68 149h-330v96h328q-9 81 -61 135q-62 64 -166 64q-108 0 -191 -74z" />
    <glyph glyph-name="afii10048" unicode="&#x42e;" horiz-adv-x="1000" 
d="M182 402h100q17 104 89 178q97 99 244 99q146 0 241.5 -99t95.5 -247t-96 -247t-241 -99q-166 0 -261 117q-69 86 -72 202h-100v-306h-102v667h102v-265zM615 81q103 0 169 71t66 181t-66 181t-169 71t-169 -71t-66 -181t66 -181t169 -71z" />
    <glyph glyph-name="afii10049" unicode="&#x42f;" horiz-adv-x="534" 
d="M20 0l198 278q-59 7 -103 45q-57 50 -57 142q0 84 51 139q27 29 64 44t60 17t57 2h164v-667h-102v267h-24l-182 -267h-126zM352 573h-50q-82 0 -114 -31q-32 -30 -32 -77q0 -54 38 -80q36 -24 102 -24h56v212z" />
    <glyph glyph-name="afii10065" unicode="&#x430;" horiz-adv-x="530" 
d="M370 372v49h98v-421h-98v44q-49 -57 -126 -57q-93 0 -148.5 66t-55.5 158q0 100 59.5 160.5t145.5 60.5q79 0 125 -60zM257 344q-52 0 -84.5 -39t-32.5 -96q0 -56 32.5 -95t84.5 -39q50 0 84.5 35t34.5 98q0 65 -34.5 100.5t-84.5 35.5z" />
    <glyph glyph-name="afii10066" unicode="&#x431;" horiz-adv-x="530" 
d="M380 710h100q-11 -52 -46 -90t-86 -52l-66 -18q-26 -7 -40 -12t-34.5 -18.5t-34.5 -32.5q-33 -44 -35 -114h1q44 59 143 59q89 0 147 -60q61 -63 61 -160q0 -98 -64.5 -161.5t-160.5 -63.5t-154 56q-32 30 -49 74t-19.5 72.5t-2.5 69.5q0 196 64 289q48 71 126 90l70 17
q69 17 80 55zM265 75q57 0 91 36.5t34 97.5q0 67 -36.5 101t-88.5 34t-88.5 -34t-36.5 -101q0 -61 34 -97.5t91 -36.5z" />
    <glyph glyph-name="afii10067" unicode="&#x432;" horiz-adv-x="442" 
d="M62 421h165q63 0 96 -25q39 -31 39 -81q0 -57 -50 -82q32 -6 57 -28q33 -30 33 -81q0 -61 -46 -96q-38 -28 -97 -28h-197v421zM160 257h50q26 0 39 9q19 12 19 34q0 21 -17 33q-12 8 -43 8h-48v-84zM160 80h73q33 0 51 12q20 13 20 37q0 26 -19 37q-17 11 -49 11h-76v-97
z" />
    <glyph glyph-name="afii10068" unicode="&#x433;" horiz-adv-x="328" 
d="M62 0v421h258v-90h-160v-331h-98z" />
    <glyph glyph-name="afii10069" unicode="&#x434;" horiz-adv-x="486" 
d="M98 421h316v-331h64v-210h-90v120h-294v-120h-90v210q51 3 77 55q17 37 17 111v165zM316 90v241h-124v-112q0 -91 -49 -129h173z" />
    <glyph glyph-name="afii10070" unicode="&#x435;" horiz-adv-x="482" 
d="M357 142l82 -46q-28 -50 -71 -77q-49 -32 -124 -32q-88 0 -142 54q-62 62 -62 161q0 104 67 173q57 57 141 57q82 0 135 -55q59 -61 59 -178v-12h-302q4 -53 36 -85q27 -27 75 -27q39 0 67 21q23 18 39 46zM147 267h195q-6 35 -30 57q-26 24 -66 24q-42 0 -69 -27
q-22 -20 -30 -54z" />
    <glyph glyph-name="afii10072" unicode="&#x436;" horiz-adv-x="624" 
d="M263 421h98v-156l127 156h118l-163 -192l179 -229h-122l-127 169l-12 -14v-155h-98v155l-12 14l-127 -169h-122l179 229l-163 192h118l127 -156v156z" />
    <glyph glyph-name="afii10073" unicode="&#x437;" horiz-adv-x="440" 
d="M119 312l-63 55q24 29 64 47q42 18 99 18q66 0 107 -29q44 -32 44 -86q0 -35 -18 -58q-15 -20 -40 -30q38 -8 61 -31q27 -27 27 -70q0 -57 -36 -93q-48 -48 -148 -48q-67 0 -110 25q-45 26 -66 75l78 40q14 -30 37 -44q25 -16 63 -16q46 0 67 21q15 17 15 37q0 21 -13 34
q-17 18 -70 18h-44v80h37q32 0 48 11q18 14 18 37q0 24 -18 36q-15 11 -47 11q-30 0 -55 -12q-21 -10 -37 -28z" />
    <glyph glyph-name="afii10074" unicode="&#x438;" horiz-adv-x="510" 
d="M62 421h98v-239l288 277v-459h-98v245l-288 -277v453z" />
    <glyph glyph-name="afii10075" unicode="&#x439;" horiz-adv-x="510" 
d="M62 421h98v-239l288 277v-459h-98v245l-288 -277v453zM94 603l80 23q19 -65 82 -65q62 0 82 65l80 -23q-16 -57 -64.5 -87.5t-97.5 -30.5t-97.5 30.5t-64.5 87.5z" />
    <glyph glyph-name="afii10076" unicode="&#x43a;" horiz-adv-x="442" 
d="M62 421h98v-150l140 150h130l-184 -184l194 -237h-124l-140 173l-16 -16v-157h-98v421z" />
    <glyph glyph-name="afii10077" unicode="&#x43b;" horiz-adv-x="470" 
d="M408 421v-421h-98v331h-124v-167q0 -78 -40 -121q-51 -57 -138 -43v90q43 -10 69 19q15 18 15 55v257h316z" />
    <glyph glyph-name="afii10078" unicode="&#x43c;" horiz-adv-x="580" 
d="M14 0l102 459l174 -321l174 321l102 -459h-100l-42 211l-134 -243l-134 243l-42 -211h-100z" />
    <glyph glyph-name="afii10079" unicode="&#x43d;" horiz-adv-x="494" 
d="M62 0v421h98v-156h174v156h98v-421h-98v175h-174v-175h-98z" />
    <glyph glyph-name="afii10080" unicode="&#x43e;" horiz-adv-x="530" 
d="M265 432q96 0 160.5 -62.5t64.5 -159.5q0 -96 -64.5 -159.5t-160.5 -63.5t-160.5 63.5t-64.5 159.5q0 97 64.5 159.5t160.5 62.5zM265 75q57 0 91 36.5t34 97.5q0 67 -36.5 101t-88.5 34t-88.5 -34t-36.5 -101q0 -61 34 -97.5t91 -36.5z" />
    <glyph glyph-name="afii10081" unicode="&#x43f;" horiz-adv-x="490" 
d="M62 421h366v-421h-98v331h-170v-331h-98v421z" />
    <glyph glyph-name="afii10082" unicode="&#x440;" horiz-adv-x="530" 
d="M160 49v-278h-98v650h98v-46q48 57 125 57q86 0 145.5 -60.5t59.5 -158.5q0 -101 -62 -163.5t-142 -62.5q-75 0 -126 62zM273 344q-50 0 -84.5 -35.5t-34.5 -100.5q0 -63 34.5 -98t84.5 -35q52 0 84.5 39t32.5 95q0 57 -32.5 96t-84.5 39z" />
    <glyph glyph-name="afii10083" unicode="&#x441;" horiz-adv-x="420" 
d="M388 402v-110q-53 52 -119 52q-56 0 -93 -37q-36 -36 -36 -97q0 -63 38 -101q36 -34 89 -34q73 0 121 54v-109q-53 -33 -128 -33q-101 0 -160 62q-60 62 -60 158q0 99 64 163q62 62 169 62q61 0 115 -30z" />
    <glyph glyph-name="afii10084" unicode="&#x442;" horiz-adv-x="360" 
d="M352 331h-123v-331h-98v331h-123v90h344v-90z" />
    <glyph glyph-name="afii10085" unicode="&#x443;" horiz-adv-x="482" 
d="M31 -229l155 295l-180 355h118l120 -246l122 246h110l-335 -650h-110z" />
    <glyph glyph-name="afii10086" unicode="&#x444;" horiz-adv-x="670" 
d="M286 -229v222q-108 -1 -173 55q-71 60 -71 163q0 102 70 162q64 55 174 55v239h98v-239q110 0 174 -55q70 -60 70 -162q0 -103 -71 -163q-65 -56 -173 -55v-222h-98zM286 81v259q-58 0 -92 -22q-52 -31 -52 -107q0 -71 49 -105q38 -27 95 -25zM384 340v-259q57 -2 95 25
q49 34 49 105q0 76 -52 107q-34 22 -92 22z" />
    <glyph glyph-name="afii10087" unicode="&#x445;" horiz-adv-x="496" 
d="M6 0l186 228l-150 193h116l93 -123l94 123h120l-155 -193l180 -228h-118l-121 157l-125 -157h-120z" />
    <glyph glyph-name="afii10088" unicode="&#x446;" horiz-adv-x="502" 
d="M62 0v421h98v-331h166v331h98v-331h70v-210h-90v120h-342z" />
    <glyph glyph-name="afii10089" unicode="&#x447;" horiz-adv-x="450" 
d="M290 0v163q-45 -9 -86 -9q-72 0 -111 31q-41 33 -41 101v135h98v-115q0 -43 25 -58q17 -10 49 -10q36 0 66 11v172h98v-421h-98z" />
    <glyph glyph-name="afii10090" unicode="&#x448;" horiz-adv-x="698" 
d="M62 0v421h98v-331h140v331h98v-331h140v331h98v-421h-574z" />
    <glyph glyph-name="afii10091" unicode="&#x449;" horiz-adv-x="714" 
d="M62 0v421h98v-331h140v331h98v-331h140v331h98v-331h70v-210h-90v120h-554z" />
    <glyph glyph-name="afii10092" unicode="&#x44a;" horiz-adv-x="436" 
d="M98 0v331h-90v90h188v-149h56q27 0 44 -1.5t41 -11.5t42 -30q33 -37 33 -92q0 -63 -38 -101q-17 -17 -40.5 -25.5t-39 -9.5t-43.5 -1h-153zM196 84h45q36 0 51 9q22 16 22 43q0 28 -21 42q-16 10 -51 10h-46v-104z" />
    <glyph glyph-name="afii10093" unicode="&#x44b;" horiz-adv-x="580" 
d="M62 0v421h98v-149h56q27 0 44 -1.5t41 -11.5t42 -30q33 -37 33 -92q0 -63 -38 -101q-17 -17 -40.5 -25.5t-39 -9.5t-43.5 -1h-153zM160 84h45q36 0 51 9q22 16 22 43q0 28 -21 42q-16 10 -51 10h-46v-104zM420 0v421h98v-421h-98z" />
    <glyph glyph-name="afii10094" unicode="&#x44c;" horiz-adv-x="400" 
d="M62 0v421h98v-149h56q27 0 44 -1.5t41 -11.5t42 -30q33 -37 33 -92q0 -63 -38 -101q-17 -17 -40.5 -25.5t-39 -9.5t-43.5 -1h-153zM160 84h45q36 0 51 9q22 16 22 43q0 28 -21 42q-16 10 -51 10h-46v-104z" />
    <glyph glyph-name="afii10095" unicode="&#x44d;" horiz-adv-x="428" 
d="M40 317v93q56 22 119 22q106 0 168 -62q61 -61 61 -159t-62 -161q-60 -63 -157 -63q-68 0 -129 24v93q51 -29 115 -29q61 0 95 34q25 25 31 65h-195v82h192q-8 45 -42 67q-30 21 -81 21q-60 0 -115 -27z" />
    <glyph glyph-name="afii10096" unicode="&#x44e;" horiz-adv-x="700" 
d="M160 265h67q10 59 55 105q62 62 157 62q94 0 157.5 -62.5t63.5 -159.5q0 -96 -63.5 -159.5t-157.5 -63.5q-100 0 -162 67q-46 50 -52 121h-65v-175h-98v421h98v-156zM439 344q-51 0 -86 -34t-35 -101t35 -100.5t86 -33.5t86 33.5t35 100.5t-35 101t-86 34z" />
    <glyph glyph-name="afii10097" unicode="&#x44f;" horiz-adv-x="418" 
d="M8 0l132 167q-39 6 -67 32q-35 34 -35 87q0 60 39 97q40 38 122 38h157v-421h-98v155h-20l-115 -155h-115zM258 235v102h-57q-35 0 -51 -9q-24 -15 -24 -42t20 -41q15 -10 54 -10h58z" />
    <glyph glyph-name="afii10071" unicode="&#x451;" horiz-adv-x="482" 
d="M357 142l82 -46q-28 -50 -71 -77q-49 -32 -124 -32q-88 0 -142 54q-62 62 -62 161q0 104 67 173q57 57 141 57q82 0 135 -55q59 -61 59 -178v-12h-302q4 -53 36 -85q27 -27 75 -27q39 0 67 21q23 18 39 46zM147 267h195q-6 35 -30 57q-26 24 -66 24q-42 0 -69 -27
q-22 -20 -30 -54zM102 547q0 26 18 44t44 18t44 -18t18 -44t-18 -44t-44 -18t-44 18t-18 44zM282 547q0 26 18 44t44 18t44 -18t18 -44t-18 -44t-44 -18t-44 18t-18 44z" />
    <glyph glyph-name="afii10099" unicode="&#x452;" horiz-adv-x="486" 
d="M62 0v512h-72v76h72v141h98v-141h200v-76h-200v-167q46 47 113 47q84 0 124 -57q27 -39 27 -117v-304q0 -83 -44 -117q-34 -27 -90 -27q-42 0 -66 9v88q22 -9 47 -9q33 0 46 22q9 15 9 60v269q0 52 -19 73q-20 22 -55 22q-48 0 -72 -35q-20 -29 -20 -106v-163h-98z" />
    <glyph glyph-name="afii10100" unicode="&#x453;" horiz-adv-x="328" 
d="M62 0v421h258v-90h-160v-331h-98zM265 675l90 -46l-156 -144l-54 34z" />
    <glyph glyph-name="afii10101" unicode="&#x454;" horiz-adv-x="428" 
d="M388 404v-104q-47 44 -117 44q-50 0 -82 -27q-27 -22 -39 -60h192v-80h-195q4 -44 35 -71q36 -31 91 -31q66 0 115 46v-104q-46 -30 -128 -30q-97 0 -160 64q-60 61 -60 159q0 102 68 165q61 57 161 57q67 0 119 -28z" />
    <glyph glyph-name="afii10102" unicode="&#x455;" horiz-adv-x="360" 
d="M319 358l-73 -48q-23 36 -60 36q-19 0 -30 -11q-9 -9 -9 -22q0 -15 14 -24q3 -2 6 -3.5l11 -5.5l16 -8l50 -25q42 -21 59 -39q31 -31 31 -78q0 -56 -37 -96q-43 -47 -118 -47q-56 0 -91 27q-38 28 -54 77l80 38q10 -29 23 -40q16 -16 43 -16q26 0 40 14t14 33
q0 18 -13 32q-14 14 -42 26l-36 17q-42 20 -58 36q-30 29 -30 71q0 53 35 90q38 40 103 40q45 0 78 -22q30 -19 48 -52z" />
    <glyph glyph-name="afii10103" unicode="&#x456;" horiz-adv-x="222" 
d="M62 421h98v-421h-98v421zM48 595q0 27 18 45t45 18t45 -18t18 -45t-18 -45t-45 -18t-45 18t-18 45z" />
    <glyph glyph-name="afii10104" unicode="&#x457;" horiz-adv-x="232" 
d="M67 421h98v-421h-98v421zM176 658q19 0 34 -16.5t15 -45.5t-15 -45.5t-34 -16.5t-34 16.5t-15 45.5t15 45.5t34 16.5zM56 658q19 0 34 -16.5t15 -45.5t-15 -45.5t-34 -16.5t-34 16.5t-15 45.5t15 45.5t34 16.5z" />
    <glyph glyph-name="afii10105" unicode="&#x458;" horiz-adv-x="222" 
d="M62 421h98v-650h-98v650zM48 595q0 27 18 45t45 18t45 -18t18 -45t-18 -45t-45 -18t-45 18t-18 45z" />
    <glyph glyph-name="afii10106" unicode="&#x459;" horiz-adv-x="648" 
d="M408 421v-149h56q27 0 44 -1.5t41 -11.5t42 -30q33 -37 33 -92q0 -63 -38 -101q-17 -17 -40.5 -25.5t-39 -9.5t-43.5 -1h-153v331h-124v-167q0 -78 -40 -121q-42 -45 -113 -45q-9 0 -25 2v90q12 -2 19 -2q33 0 50 21q15 18 15 55v257h316zM408 84h45q36 0 51 9
q22 16 22 43q0 28 -21 42q-16 10 -51 10h-46v-104z" />
    <glyph glyph-name="afii10107" unicode="&#x45a;" horiz-adv-x="672" 
d="M62 0v421h98v-149h174v149h98v-149h56q27 0 44 -1.5t41 -11.5t42 -30q33 -37 33 -92q0 -63 -38 -101q-17 -17 -40.5 -25.5t-39 -9.5t-43.5 -1h-153v188h-174v-188h-98zM432 84h45q36 0 51 9q22 16 22 43q0 28 -21 42q-16 10 -51 10h-46v-104z" />
    <glyph glyph-name="afii10108" unicode="&#x45b;" horiz-adv-x="486" 
d="M62 0v512h-72v76h72v141h98v-141h200v-76h-200v-167q46 47 113 47q84 0 124 -57q27 -39 27 -117v-218h-98v209q0 52 -19 73q-20 22 -55 22q-48 0 -72 -35q-20 -29 -20 -106v-163h-98z" />
    <glyph glyph-name="afii10109" unicode="&#x45c;" horiz-adv-x="442" 
d="M62 421h98v-150l140 150h130l-184 -184l194 -237h-124l-140 173l-16 -16v-157h-98v421zM296 675l90 -46l-156 -144l-54 34z" />
    <glyph glyph-name="afii10110" unicode="&#x45e;" horiz-adv-x="482" 
d="M31 -229l155 295l-180 355h118l120 -246l122 246h110l-335 -650h-110zM79 603l80 23q19 -65 82 -65q62 0 82 65l80 -23q-16 -57 -64.5 -87.5t-97.5 -30.5t-97.5 30.5t-64.5 87.5z" />
    <glyph glyph-name="afii10193" unicode="&#x45f;" horiz-adv-x="486" 
d="M62 0v421h98v-331h166v331h98v-421h-136v-130h-90v130h-136z" />
    <glyph glyph-name="afii10146" unicode="&#x462;" horiz-adv-x="592" 
d="M160 0v503h-150v94h150v97h102v-97h180v-94h-180v-105h76q107 0 167 -53q63 -56 63 -146q0 -49 -21 -92.5t-62 -70.5q-54 -36 -146 -36h-179zM262 302v-206h72q75 0 108 33q26 26 26 68q0 46 -28 73q-33 32 -104 32h-74z" />
    <glyph glyph-name="afii10194" unicode="&#x463;" horiz-adv-x="436" 
d="M8 421h90v246h98v-246h120v-84h-120v-65h56q27 0 44 -1.5t41 -11.5t42 -30q33 -37 33 -92q0 -63 -38 -101q-17 -17 -40.5 -25.5t-39 -9.5t-43.5 -1h-153v337h-90v84zM196 84h45q36 0 51 9q22 16 22 43q0 28 -21 42q-16 10 -51 10h-46v-104z" />
    <glyph glyph-name="afii10147" unicode="&#x472;" horiz-adv-x="790" 
d="M395 679q149 0 248 -99t99 -247t-99 -247t-248 -99t-248 99t-99 247t99 247t248 99zM637 287h-484q12 -88 78.5 -147t163.5 -59t163.5 59t78.5 147zM153 383h484q-12 85 -78.5 143.5t-163.5 58.5t-163.5 -58.5t-78.5 -143.5z" />
    <glyph glyph-name="afii10195" unicode="&#x473;" horiz-adv-x="530" 
d="M265 432q96 0 160.5 -62.5t64.5 -159.5q0 -96 -64.5 -159.5t-160.5 -63.5t-160.5 63.5t-64.5 159.5q0 97 64.5 159.5t160.5 62.5zM386 173h-242q8 -47 41.5 -72.5t79.5 -25.5t79.5 25.5t41.5 72.5zM144 253h242q-9 41 -40.5 66t-80.5 25t-80.5 -25t-40.5 -66z" />
    <glyph glyph-name="afii10148" unicode="&#x474;" horiz-adv-x="600" 
d="M4 667h110l186 -465l186 465h110l-296 -710z" />
    <glyph glyph-name="afii10196" unicode="&#x475;" horiz-adv-x="448" 
d="M6 421h110l108 -240l108 240h110l-218 -451z" />
    <glyph glyph-name="afii10050" unicode="&#x490;" horiz-adv-x="428" 
d="M80 0v667h238v150h96v-246h-232v-571h-102z" />
    <glyph glyph-name="afii10098" unicode="&#x491;" horiz-adv-x="328" 
d="M62 0v421h168v120h90v-210h-160v-331h-98z" />
    <glyph glyph-name="uni0492" unicode="&#x492;" horiz-adv-x="428" 
d="M80 0v322h-90v86h90v259h334v-96h-232v-163h150v-86h-150v-322h-102z" />
    <glyph glyph-name="uni0493" unicode="&#x493;" horiz-adv-x="328" 
d="M62 0v168h-72v80h72v173h258v-90h-160v-83h100v-80h-100v-168h-98z" />
    <glyph glyph-name="uni0494" unicode="&#x494;" horiz-adv-x="584" 
d="M402 571h-220v-186q71 23 137 23q80 0 130 -30q87 -51 87 -179q0 -116 -73 -168q-51 -37 -140 -37q-27 0 -67 6v94q27 -6 64 -6q51 0 78 21q34 28 34 89q0 71 -53 100q-31 16 -77 16q-68 0 -120 -23v-291h-102v667h322v-96z" />
    <glyph glyph-name="uni0495" unicode="&#x495;" horiz-adv-x="440" 
d="M62 0v421h258v-90h-160v-95h30q98 0 153 -52q57 -53 57 -147q0 -109 -77 -180q-60 -55 -143 -65v90q47 7 78 41q42 44 42 113q0 57 -33 86q-29 26 -86 26h-21v-148h-98z" />
    <glyph glyph-name="uni0496" unicode="&#x496;" horiz-adv-x="856" 
d="M372 667h102v-269l238 269h124l-275 -306l206 -265h75v-246h-96v150h-30l-226 294l-16 -18v-276h-102v276l-16 18l-226 -294h-126l281 361l-275 306h124l238 -269v269z" />
    <glyph glyph-name="uni0497" unicode="&#x497;" horiz-adv-x="630" 
d="M263 421h98v-156l127 156h118l-163 -192l109 -139h70v-210h-90v120h-32l-127 169l-12 -14v-155h-98v155l-12 14l-127 -169h-122l179 229l-163 192h118l127 -156v156z" />
    <glyph glyph-name="uni0498" unicode="&#x498;" horiz-adv-x="570" 
d="M137 516l-67 65q37 49 86 72q50 25 121 25q100 0 155 -53q48 -47 48 -117q0 -48 -22 -83q-21 -36 -60 -58q55 -14 90 -59q34 -43 34 -113q0 -90 -67 -149q-48 -42 -112 -52v-160h-96v156q-76 5 -136 50q-55 41 -85 108l90 46q20 -51 62 -81q44 -31 110 -31t102 36
q32 32 32 82q0 52 -39 78q-37 26 -121 26h-60v96h54q64 0 96 27q30 25 30 68q0 45 -32 69q-26 20 -77 20q-48 0 -81 -19q-32 -18 -55 -49z" />
    <glyph glyph-name="uni0499" unicode="&#x499;" horiz-adv-x="440" 
d="M119 312l-63 55q24 29 64 47q42 18 99 18q66 0 107 -29q44 -32 44 -86q0 -35 -18 -58q-15 -20 -40 -30q38 -8 61 -31q27 -27 27 -70q0 -57 -36 -93t-88 -42v-123h-90v121q-50 1 -91 29q-37 25 -55 67l78 40q14 -30 37 -44q25 -16 63 -16q46 0 67 21q15 17 15 37
q0 21 -13 34q-17 18 -70 18h-44v80h37q32 0 48 11q18 14 18 37q0 24 -18 36q-15 11 -47 11q-30 0 -55 -12q-21 -10 -37 -28z" />
    <glyph glyph-name="uni049A" unicode="&#x49a;" horiz-adv-x="590" 
d="M80 667h102v-266l258 266h134l-301 -302l223 -269h80v-246h-96v150h-40l-238 296l-20 -20v-276h-102v667z" />
    <glyph glyph-name="uni049B" unicode="&#x49b;" horiz-adv-x="448" 
d="M62 421h98v-150l140 150h130l-184 -184l121 -147h73v-210h-90v120h-34l-140 173l-16 -16v-157h-98v421z" />
    <glyph glyph-name="uni049C" unicode="&#x49c;" horiz-adv-x="680" 
d="M80 667h102v-264h86v140h90v-140l192 264h120l-227 -302l227 -365h-120l-192 313v-150h-90v150h-86v-313h-102v667z" />
    <glyph glyph-name="uni049D" unicode="&#x49d;" horiz-adv-x="526" 
d="M62 421h98v-152h60v100h80v-106l114 158h110l-138 -186l138 -235h-110l-114 195v-116h-80v110h-60v-189h-98v421z" />
    <glyph glyph-name="uni04A0" unicode="&#x4a0;" horiz-adv-x="700" 
d="M194 0v571h-184v96h286v-266l258 266h134l-301 -302l303 -365h-136l-238 296l-20 -20v-276h-102z" />
    <glyph glyph-name="uni04A1" unicode="&#x4a1;" horiz-adv-x="510" 
d="M130 0v331h-122v90h220v-150l140 150h130l-184 -184l194 -237h-124l-140 173l-16 -16v-157h-98z" />
    <glyph glyph-name="uni04A2" unicode="&#x4a2;" horiz-adv-x="670" 
d="M80 0v667h102v-264h286v264h102v-571h86v-246h-96v150h-92v307h-286v-307h-102z" />
    <glyph glyph-name="uni04A3" unicode="&#x4a3;" horiz-adv-x="510" 
d="M62 0v421h98v-156h174v156h98v-331h70v-210h-90v120h-78v175h-174v-175h-98z" />
    <glyph glyph-name="uni04A4" unicode="&#x4a4;" horiz-adv-x="816" 
d="M80 0v667h102v-264h286v264h334v-96h-232v-571h-102v307h-286v-307h-102z" />
    <glyph glyph-name="uni04A5" unicode="&#x4a5;" horiz-adv-x="600" 
d="M62 0v421h98v-156h174v156h258v-90h-160v-331h-98v175h-174v-175h-98z" />
    <glyph glyph-name="uni04AA" unicode="&#x4aa;" horiz-adv-x="620" 
d="M574 631v-120q-76 74 -181 74q-102 0 -166 -61q-36 -35 -56.5 -86.5t-20.5 -106.5q0 -107 67 -177q69 -73 177 -73q100 0 180 77v-121q-62 -37 -131 -46v-157h-96v159q-109 9 -192 86q-107 99 -107 252q0 160 107 261q92 87 240 87q103 0 179 -48z" />
    <glyph glyph-name="uni04AB" unicode="&#x4ab;" horiz-adv-x="420" 
d="M388 402v-110q-53 52 -119 52q-56 0 -93 -37q-36 -36 -36 -97q0 -63 38 -101q36 -34 89 -34q73 0 121 54v-109q-38 -25 -79 -28v-122h-90v120q-68 7 -119 59q-60 62 -60 158q0 99 64 163q62 62 169 62q61 0 115 -30z" />
    <glyph glyph-name="uni04AE" unicode="&#x4ae;" horiz-adv-x="540" 
d="M219 0v288l-219 379h116l154 -267l154 267h116l-219 -379v-288h-102z" />
    <glyph glyph-name="uni04AF" unicode="&#x4af;" horiz-adv-x="448" 
d="M6 421h110l108 -237l108 237h110l-169 -350v-300h-98v300z" />
    <glyph glyph-name="uni04B0" unicode="&#x4b0;" horiz-adv-x="540" 
d="M219 0v202h-190v86h190l-219 379h116l154 -267l154 267h116l-219 -379h190v-86h-190v-202h-102z" />
    <glyph glyph-name="uni04B1" unicode="&#x4b1;" horiz-adv-x="448" 
d="M6 421h110l108 -237l108 237h110l-169 -350v-51h130v-86h-130v-163h-98v163h-130v86h130v51z" />
    <glyph glyph-name="uni04B2" unicode="&#x4b2;" horiz-adv-x="570" 
d="M10 0l210 348l-184 319h114l130 -226l133 226h114l-192 -319l145 -252h76v-246h-96v150h-38l-146 255l-152 -255h-114z" />
    <glyph glyph-name="uni04B3" unicode="&#x4b3;" horiz-adv-x="498" 
d="M6 0l186 228l-150 193h116l93 -123l94 123h120l-155 -193l109 -138h71v-210h-90v120h-28l-121 157l-125 -157h-120z" />
    <glyph glyph-name="uni04B6" unicode="&#x4b6;" horiz-adv-x="626" 
d="M424 0v274q-91 -7 -136 -7q-111 0 -163 41q-65 51 -65 162v197h102v-182q0 -75 36 -103q27 -21 106 -21q57 0 120 7v299h102v-571h86v-246h-96v150h-92z" />
    <glyph glyph-name="uni04B7" unicode="&#x4b7;" horiz-adv-x="466" 
d="M290 0v163q-45 -9 -86 -9q-72 0 -111 31q-41 33 -41 101v135h98v-115q0 -43 25 -58q17 -10 49 -10q36 0 66 11v172h98v-331h70v-210h-90v120h-78z" />
    <glyph glyph-name="uni04B8" unicode="&#x4b8;" horiz-adv-x="640" 
d="M458 0v274q-48 -6 -98 -6v-138h-90v138q-88 3 -139 40q-71 52 -71 162v197h102v-182q0 -74 41 -103q25 -18 67 -20v148h90v-148q50 0 98 6v299h102v-667h-102z" />
    <glyph glyph-name="uni04B9" unicode="&#x4b9;" horiz-adv-x="530" 
d="M370 0v161q-39 -7 -68 -8v-88h-80v88q-83 0 -124 30q-46 33 -46 103v135h98v-115q0 -44 32 -58q17 -7 40 -7v114h80v-114q33 0 68 8v172h98v-421h-98z" />
    <glyph glyph-name="uni04BA" unicode="&#x4ba;" horiz-adv-x="606" 
d="M182 667v-264q62 7 129 7q118 0 170 -41q65 -51 65 -162v-207h-102v192q0 75 -36 103q-27 21 -106 21q-55 0 -120 -7v-309h-102v667h102z" />
    <glyph glyph-name="uni04BB" unicode="&#x4bb;" horiz-adv-x="486" 
d="M62 0v729h98v-344q46 47 113 47q84 0 124 -57q27 -39 27 -117v-258h-98v249q0 52 -19 73q-20 22 -55 22q-48 0 -72 -35q-20 -29 -20 -106v-203h-98z" />
    <glyph glyph-name="uni04C0" unicode="&#x4c0;" horiz-adv-x="262" 
d="M80 667h102v-667h-102v667z" />
    <glyph glyph-name="uni04C1" unicode="&#x4c1;" horiz-adv-x="846" 
d="M372 667h102v-269l238 269h124l-275 -306l281 -361h-126l-226 294l-16 -18v-276h-102v276l-16 18l-226 -294h-126l281 361l-275 306h124l238 -269v269zM256 832l80 36q6 -19 18.5 -31.5t28 -17t23.5 -6t15 -1.5t15 1.5t23.5 6t28 17t18.5 31.5l80 -36q-23 -56 -69.5 -79
t-95.5 -23t-95.5 23t-69.5 79z" />
    <glyph glyph-name="uni04C2" unicode="&#x4c2;" horiz-adv-x="624" 
d="M263 421h98v-156l127 156h118l-163 -192l179 -229h-122l-127 169l-12 -14v-155h-98v155l-12 14l-127 -169h-122l179 229l-163 192h118l127 -156v156zM148 603l80 23q19 -65 82 -65q62 0 82 65l80 -23q-16 -57 -64.5 -87.5t-97.5 -30.5t-97.5 30.5t-64.5 87.5z" />
    <glyph glyph-name="uni04C3" unicode="&#x4c3;" horiz-adv-x="616" 
d="M80 667h102v-274l258 274h134l-267 -268q51 0 103.5 -19.5t88.5 -55.5q69 -70 69 -208q0 -148 -63 -217q-54 -59 -158 -59q-55 0 -105 21l24 93q38 -20 79 -20q48 0 78 30q43 44 43 145t-51 154q-47 49 -145 49q-42 0 -88 -11v-301h-102v667z" />
    <glyph glyph-name="uni04C4" unicode="&#x4c4;" horiz-adv-x="440" 
d="M62 421h98v-150l140 150h130l-190 -192q67 -7 111 -53q49 -53 49 -141q0 -109 -77 -178q-60 -54 -143 -65v90q47 7 78 41q42 44 42 113q0 51 -29 82q-29 30 -92 30h-19v-148h-98v421z" />
    <glyph glyph-name="uni04C7" unicode="&#x4c7;" horiz-adv-x="650" 
d="M80 0v667h102v-264h286v264h102v-753q0 -82 -44 -117q-33 -27 -94 -27q-36 0 -66 9v92q23 -9 47 -9q33 0 46 22q9 15 9 60v363h-286v-307h-102z" />
    <glyph glyph-name="uni04C8" unicode="&#x4c8;" horiz-adv-x="494" 
d="M62 0v421h98v-156h174v156h98v-507q0 -83 -44 -117q-34 -27 -90 -27q-42 0 -66 9v88q22 -9 47 -9q33 0 46 22q9 15 9 60v235h-174v-175h-98z" />
    <glyph glyph-name="uni04D0" unicode="&#x4d0;" horiz-adv-x="656" 
d="M542 0l-70 161h-285l-73 -161h-110l332 706l316 -706h-110zM229 257h202l-99 226zM167 832l80 36q6 -19 18.5 -31.5t28 -17t23.5 -6t15 -1.5t15 1.5t23.5 6t28 17t18.5 31.5l80 -36q-23 -56 -69.5 -79t-95.5 -23t-95.5 23t-69.5 79z" />
    <glyph glyph-name="uni04D1" unicode="&#x4d1;" horiz-adv-x="530" 
d="M370 372v49h98v-421h-98v44q-49 -57 -126 -57q-93 0 -148.5 66t-55.5 158q0 100 59.5 160.5t145.5 60.5q79 0 125 -60zM257 344q-52 0 -84.5 -39t-32.5 -96q0 -56 32.5 -95t84.5 -39q50 0 84.5 35t34.5 98q0 65 -34.5 100.5t-84.5 35.5zM88 603l80 23q19 -65 82 -65
q62 0 82 65l80 -23q-16 -57 -64.5 -87.5t-97.5 -30.5t-97.5 30.5t-64.5 87.5z" />
    <glyph glyph-name="uni04D2" unicode="&#x4d2;" horiz-adv-x="656" 
d="M542 0l-70 161h-285l-73 -161h-110l332 706l316 -706h-110zM229 257h202l-99 226zM172 795q0 26 18 44t44 18t44 -18t18 -44t-18 -44t-44 -18t-44 18t-18 44zM368 795q0 26 18 44t44 18t44 -18t18 -44t-18 -44t-44 -18t-44 18t-18 44z" />
    <glyph glyph-name="uni04D3" unicode="&#x4d3;" horiz-adv-x="530" 
d="M370 372v49h98v-421h-98v44q-49 -57 -126 -57q-93 0 -148.5 66t-55.5 158q0 100 59.5 160.5t145.5 60.5q79 0 125 -60zM257 344q-52 0 -84.5 -39t-32.5 -96q0 -56 32.5 -95t84.5 -39q50 0 84.5 35t34.5 98q0 65 -34.5 100.5t-84.5 35.5zM98 569q0 26 18 44t44 18t44 -18
t18 -44t-18 -44t-44 -18t-44 18t-18 44zM278 569q0 26 18 44t44 18t44 -18t18 -44t-18 -44t-44 -18t-44 18t-18 44z" />
    <glyph glyph-name="uni04D4" unicode="&#x4d4;" horiz-adv-x="926" 
d="M546 0l-70 159h-283l-73 -159h-110l320 667h295l42 -96h-265l70 -159h258l42 -96h-258l95 -220h265l42 -96h-370zM238 255h198l-95 217z" />
    <glyph glyph-name="uni04D5" unicode="&#x4d5;" horiz-adv-x="756" 
d="M99 328v91q57 13 119 13q53 0 87 -13q37 -14 63 -47q24 29 58 43q38 17 87 17q91 0 144 -55q59 -62 59 -178v-12h-302q4 -53 36 -85q27 -27 75 -27q39 0 67 21q23 18 39 46l82 -46q-28 -50 -71 -77q-50 -32 -126 -32q-51 0 -88 18q-37 17 -60 50q-29 -35 -68 -52
q-38 -16 -89 -16q-83 0 -129 45q-42 41 -42 96q0 60 40 98q46 45 128 45q59 0 108 -28q0 51 -28 76q-29 25 -86 25q-48 0 -103 -16zM220 187q-46 0 -69 -21q-17 -16 -17 -37q0 -22 20 -39q23 -19 66 -19q38 0 63 16q27 17 27 44q0 26 -31 43q-25 13 -59 13zM421 267h195
q-6 35 -30 57q-26 24 -66 24t-69 -27q-22 -22 -30 -54z" />
    <glyph glyph-name="uni04D6" unicode="&#x4d6;" 
d="M448 667v-96h-266v-169h258v-96h-258v-210h266v-96h-368v667h368zM100 832l80 36q6 -19 18.5 -31.5t28 -17t23.5 -6t15 -1.5t15 1.5t23.5 6t28 17t18.5 31.5l80 -36q-23 -56 -69.5 -79t-95.5 -23t-95.5 23t-69.5 79z" />
    <glyph glyph-name="uni04D7" unicode="&#x4d7;" horiz-adv-x="482" 
d="M357 142l82 -46q-28 -50 -71 -77q-49 -32 -124 -32q-88 0 -142 54q-62 62 -62 161q0 104 67 173q57 57 141 57q82 0 135 -55q59 -61 59 -178v-12h-302q4 -53 36 -85q27 -27 75 -27q39 0 67 21q23 18 39 46zM147 267h195q-6 35 -30 57q-26 24 -66 24q-42 0 -69 -27
q-22 -20 -30 -54zM79 603l80 23q19 -65 82 -65q62 0 82 65l80 -23q-16 -57 -64.5 -87.5t-97.5 -30.5t-97.5 30.5t-64.5 87.5z" />
    <glyph glyph-name="uni04D8" unicode="&#x4d8;" horiz-adv-x="748" 
d="M149 478l-72 66q31 42 73 71q89 64 203 64q154 0 252 -102q95 -99 95 -244q0 -147 -102 -249q-97 -97 -239 -97q-160 0 -248 124q-63 89 -63 215v31h549q-7 102 -77.5 165t-166.5 63q-126 0 -204 -107zM589 263h-432q6 -64 44 -111q58 -71 159 -71q111 0 177 77
q38 44 52 105z" />
    <glyph glyph-name="afii10846" unicode="&#x4d9;" horiz-adv-x="488" 
d="M133 292l-89 30q24 51 73 80q50 30 117 30q93 0 149 -52q65 -61 65 -174q0 -104 -64 -166q-54 -53 -142 -53q-84 0 -135 50q-67 65 -67 180v25h306q-5 49 -35 76q-28 26 -78 26q-38 0 -63 -16q-19 -11 -37 -36zM339 162h-195q6 -45 30 -68q23 -23 66 -23q42 0 68 26
q27 27 31 65z" />
    <glyph glyph-name="uni04DA" unicode="&#x4da;" horiz-adv-x="748" 
d="M149 478l-72 66q31 42 73 71q89 64 203 64q154 0 252 -102q95 -99 95 -244q0 -147 -102 -249q-97 -97 -239 -97q-160 0 -248 124q-63 89 -63 215v31h549q-7 102 -77.5 165t-166.5 63q-126 0 -204 -107zM589 263h-432q6 -64 44 -111q58 -71 159 -71q111 0 177 77
q38 44 52 105zM214 795q0 26 18 44t44 18t44 -18t18 -44t-18 -44t-44 -18t-44 18t-18 44zM410 795q0 26 18 44t44 18t44 -18t18 -44t-18 -44t-44 -18t-44 18t-18 44z" />
    <glyph glyph-name="uni04DB" unicode="&#x4db;" horiz-adv-x="488" 
d="M133 292l-89 30q24 51 73 80q50 30 117 30q93 0 149 -52q65 -61 65 -174q0 -104 -64 -166q-54 -53 -142 -53q-84 0 -135 50q-67 65 -67 180v25h306q-5 49 -35 76q-28 26 -78 26q-38 0 -63 -16q-19 -11 -37 -36zM339 162h-195q6 -45 30 -68q23 -23 66 -23q42 0 68 26
q27 27 31 65zM92 569q0 26 18 44t44 18t44 -18t18 -44t-18 -44t-44 -18t-44 18t-18 44zM272 569q0 26 18 44t44 18t44 -18t18 -44t-18 -44t-44 -18t-44 18t-18 44z" />
    <glyph glyph-name="uni04DC" unicode="&#x4dc;" horiz-adv-x="846" 
d="M372 667h102v-269l238 269h124l-275 -306l281 -361h-126l-226 294l-16 -18v-276h-102v276l-16 18l-226 -294h-126l281 361l-275 306h124l238 -269v269zM263 795q0 26 18 44t44 18t44 -18t18 -44t-18 -44t-44 -18t-44 18t-18 44zM459 795q0 26 18 44t44 18t44 -18t18 -44
t-18 -44t-44 -18t-44 18t-18 44z" />
    <glyph glyph-name="uni04DD" unicode="&#x4dd;" horiz-adv-x="624" 
d="M263 421h98v-156l127 156h118l-163 -192l179 -229h-122l-127 169l-12 -14v-155h-98v155l-12 14l-127 -169h-122l179 229l-163 192h118l127 -156v156zM160 569q0 26 18 44t44 18t44 -18t18 -44t-18 -44t-44 -18t-44 18t-18 44zM340 569q0 26 18 44t44 18t44 -18t18 -44
t-18 -44t-44 -18t-44 18t-18 44z" />
    <glyph glyph-name="uni04DE" unicode="&#x4de;" horiz-adv-x="570" 
d="M137 516l-67 65q37 49 86 72q50 25 121 25q100 0 155 -53q48 -47 48 -117q0 -48 -22 -83q-21 -36 -60 -58q55 -14 90 -59q34 -43 34 -113q0 -90 -67 -149q-68 -58 -180 -58q-95 0 -164 52q-54 42 -85 108l90 46q20 -51 62 -81q44 -31 110 -31t102 36q32 32 32 82
q0 52 -39 78q-37 26 -121 26h-60v96h54q64 0 96 27q30 25 30 68q0 45 -32 69q-26 20 -77 20q-48 0 -81 -19q-32 -18 -55 -49zM120 795q0 26 18 44t44 18t44 -18t18 -44t-18 -44t-44 -18t-44 18t-18 44zM316 795q0 26 18 44t44 18t44 -18t18 -44t-18 -44t-44 -18t-44 18
t-18 44z" />
    <glyph glyph-name="uni04DF" unicode="&#x4df;" horiz-adv-x="440" 
d="M119 312l-63 55q24 29 64 47q42 18 99 18q66 0 107 -29q44 -32 44 -86q0 -35 -18 -58q-15 -20 -40 -30q38 -8 61 -31q27 -27 27 -70q0 -57 -36 -93q-48 -48 -148 -48q-67 0 -110 25q-45 26 -66 75l78 40q14 -30 37 -44q25 -16 63 -16q46 0 67 21q15 17 15 37q0 21 -13 34
q-17 18 -70 18h-44v80h37q32 0 48 11q18 14 18 37q0 24 -18 36q-15 11 -47 11q-30 0 -55 -12q-21 -10 -37 -28zM78 569q0 26 18 44t44 18t44 -18t18 -44t-18 -44t-44 -18t-44 18t-18 44zM258 569q0 26 18 44t44 18t44 -18t18 -44t-18 -44t-44 -18t-44 18t-18 44z" />
    <glyph glyph-name="uni04E2" unicode="&#x4e2;" horiz-adv-x="712" 
d="M530 0v449l-450 -479v697h102v-451l450 479v-695h-102zM184 733v80h360v-80h-360z" />
    <glyph glyph-name="uni04E3" unicode="&#x4e3;" horiz-adv-x="510" 
d="M62 421h98v-239l288 277v-459h-98v245l-288 -277v453zM90 508v78h330v-78h-330z" />
    <glyph glyph-name="uni04E4" unicode="&#x4e4;" horiz-adv-x="712" 
d="M530 0v449l-450 -479v697h102v-451l450 479v-695h-102zM204 795q0 26 18 44t44 18t44 -18t18 -44t-18 -44t-44 -18t-44 18t-18 44zM400 795q0 26 18 44t44 18t44 -18t18 -44t-18 -44t-44 -18t-44 18t-18 44z" />
    <glyph glyph-name="uni04E5" unicode="&#x4e5;" horiz-adv-x="510" 
d="M62 421h98v-239l288 277v-459h-98v245l-288 -277v453zM103 569q0 26 18 44t44 18t44 -18t18 -44t-18 -44t-44 -18t-44 18t-18 44zM283 569q0 26 18 44t44 18t44 -18t18 -44t-18 -44t-44 -18t-44 18t-18 44z" />
    <glyph glyph-name="uni04E6" unicode="&#x4e6;" horiz-adv-x="790" 
d="M395 679q149 0 248 -99t99 -247t-99 -247t-248 -99t-248 99t-99 247t99 247t248 99zM395 81q107 0 176 70.5t69 181.5t-69 181.5t-176 70.5t-176 -70.5t-69 -181.5t69 -181.5t176 -70.5zM235 795q0 26 18 44t44 18t44 -18t18 -44t-18 -44t-44 -18t-44 18t-18 44zM431 795
q0 26 18 44t44 18t44 -18t18 -44t-18 -44t-44 -18t-44 18t-18 44z" />
    <glyph glyph-name="uni04E7" unicode="&#x4e7;" horiz-adv-x="530" 
d="M265 432q96 0 160.5 -62.5t64.5 -159.5q0 -96 -64.5 -159.5t-160.5 -63.5t-160.5 63.5t-64.5 159.5q0 97 64.5 159.5t160.5 62.5zM265 75q57 0 91 36.5t34 97.5q0 67 -36.5 101t-88.5 34t-88.5 -34t-36.5 -101q0 -61 34 -97.5t91 -36.5zM113 569q0 26 18 44t44 18t44 -18
t18 -44t-18 -44t-44 -18t-44 18t-18 44zM293 569q0 26 18 44t44 18t44 -18t18 -44t-18 -44t-44 -18t-44 18t-18 44z" />
    <glyph glyph-name="uni04E8" unicode="&#x4e8;" horiz-adv-x="790" 
d="M395 679q149 0 248 -99t99 -247t-99 -247t-248 -99t-248 99t-99 247t99 247t248 99zM637 287h-484q12 -88 78.5 -147t163.5 -59t163.5 59t78.5 147zM153 383h484q-12 85 -78.5 143.5t-163.5 58.5t-163.5 -58.5t-78.5 -143.5z" />
    <glyph glyph-name="uni04E9" unicode="&#x4e9;" horiz-adv-x="530" 
d="M265 432q96 0 160.5 -62.5t64.5 -159.5q0 -96 -64.5 -159.5t-160.5 -63.5t-160.5 63.5t-64.5 159.5q0 97 64.5 159.5t160.5 62.5zM386 173h-242q8 -47 41.5 -72.5t79.5 -25.5t79.5 25.5t41.5 72.5zM144 253h242q-9 41 -40.5 66t-80.5 25t-80.5 -25t-40.5 -66z" />
    <glyph glyph-name="uni04EA" unicode="&#x4ea;" horiz-adv-x="790" 
d="M395 679q149 0 248 -99t99 -247t-99 -247t-248 -99t-248 99t-99 247t99 247t248 99zM637 287h-484q12 -88 78.5 -147t163.5 -59t163.5 59t78.5 147zM153 383h484q-12 85 -78.5 143.5t-163.5 58.5t-163.5 -58.5t-78.5 -143.5zM235 795q0 26 18 44t44 18t44 -18t18 -44
t-18 -44t-44 -18t-44 18t-18 44zM431 795q0 26 18 44t44 18t44 -18t18 -44t-18 -44t-44 -18t-44 18t-18 44z" />
    <glyph glyph-name="uni04EB" unicode="&#x4eb;" horiz-adv-x="530" 
d="M265 432q96 0 160.5 -62.5t64.5 -159.5q0 -96 -64.5 -159.5t-160.5 -63.5t-160.5 63.5t-64.5 159.5q0 97 64.5 159.5t160.5 62.5zM386 173h-242q8 -47 41.5 -72.5t79.5 -25.5t79.5 25.5t41.5 72.5zM144 253h242q-9 41 -40.5 66t-80.5 25t-80.5 -25t-40.5 -66zM113 569
q0 26 18 44t44 18t44 -18t18 -44t-18 -44t-44 -18t-44 18t-18 44zM293 569q0 26 18 44t44 18t44 -18t18 -44t-18 -44t-44 -18t-44 18t-18 44z" />
    <glyph glyph-name="uni04EE" unicode="&#x4ee;" horiz-adv-x="570" 
d="M6 667h124l172 -356l156 356h106l-301 -667h-106l86 189zM114 733v80h360v-80h-360z" />
    <glyph glyph-name="uni04EF" unicode="&#x4ef;" horiz-adv-x="482" 
d="M31 -229l155 295l-180 355h118l120 -246l122 246h110l-335 -650h-110zM76 508v78h330v-78h-330z" />
    <glyph glyph-name="uni04F0" unicode="&#x4f0;" horiz-adv-x="570" 
d="M6 667h124l172 -356l156 356h106l-301 -667h-106l86 189zM134 795q0 26 18 44t44 18t44 -18t18 -44t-18 -44t-44 -18t-44 18t-18 44zM330 795q0 26 18 44t44 18t44 -18t18 -44t-18 -44t-44 -18t-44 18t-18 44z" />
    <glyph glyph-name="uni04F1" unicode="&#x4f1;" horiz-adv-x="482" 
d="M31 -229l155 295l-180 355h118l120 -246l122 246h110l-335 -650h-110zM89 569q0 26 18 44t44 18t44 -18t18 -44t-18 -44t-44 -18t-44 18t-18 44zM269 569q0 26 18 44t44 18t44 -18t18 -44t-18 -44t-44 -18t-44 18t-18 44z" />
    <glyph glyph-name="uni04F2" unicode="&#x4f2;" horiz-adv-x="570" 
d="M6 667h124l172 -356l156 356h106l-301 -667h-106l86 189zM276 906l78 -52l-156 -127l-44 36zM476 906l78 -52l-156 -127l-44 36z" />
    <glyph glyph-name="uni04F3" unicode="&#x4f3;" horiz-adv-x="482" 
d="M31 -229l155 295l-180 355h118l120 -246l122 246h110l-335 -650h-110zM223 675l82 -46l-146 -144l-42 34zM403 675l82 -46l-146 -144l-42 34z" />
    <glyph glyph-name="uni04F4" unicode="&#x4f4;" horiz-adv-x="606" 
d="M424 0v274q-91 -7 -136 -7q-111 0 -163 41q-65 51 -65 162v197h102v-182q0 -75 36 -103q27 -21 106 -21q57 0 120 7v299h102v-667h-102zM143 795q0 26 18 44t44 18t44 -18t18 -44t-18 -44t-44 -18t-44 18t-18 44zM339 795q0 26 18 44t44 18t44 -18t18 -44t-18 -44
t-44 -18t-44 18t-18 44z" />
    <glyph glyph-name="uni04F5" unicode="&#x4f5;" horiz-adv-x="450" 
d="M290 0v163q-45 -9 -86 -9q-72 0 -111 31q-41 33 -41 101v135h98v-115q0 -43 25 -58q17 -10 49 -10q36 0 66 11v172h98v-421h-98zM73 569q0 26 18 44t44 18t44 -18t18 -44t-18 -44t-44 -18t-44 18t-18 44zM253 569q0 26 18 44t44 18t44 -18t18 -44t-18 -44t-44 -18t-44 18
t-18 44z" />
    <glyph glyph-name="uni04F8" unicode="&#x4f8;" horiz-adv-x="740" 
d="M80 0v667h102v-269h76q107 0 167 -53q63 -55 63 -147q0 -48 -21.5 -91.5t-61.5 -70.5q-54 -36 -146 -36h-179zM182 302v-206h72q134 0 134 101q0 44 -29.5 74.5t-102.5 30.5h-74zM558 667h102v-667h-102v667zM205 795q0 26 18 44t44 18t44 -18t18 -44t-18 -44t-44 -18
t-44 18t-18 44zM401 795q0 26 18 44t44 18t44 -18t18 -44t-18 -44t-44 -18t-44 18t-18 44z" />
    <glyph glyph-name="uni04F9" unicode="&#x4f9;" horiz-adv-x="580" 
d="M62 0v421h98v-149h56q27 0 44 -1.5t41 -11.5t42 -30q33 -37 33 -92q0 -63 -38 -101q-17 -17 -40.5 -25.5t-39 -9.5t-43.5 -1h-153zM160 84h45q36 0 51 9q22 16 22 43q0 28 -21 42q-16 10 -51 10h-46v-104zM420 0v421h98v-421h-98zM143 569q0 26 18 44t44 18t44 -18
t18 -44t-18 -44t-44 -18t-44 18t-18 44zM323 569q0 26 18 44t44 18t44 -18t18 -44t-18 -44t-44 -18t-44 18t-18 44z" />
    <glyph glyph-name="uni2010" unicode="&#x2010;" horiz-adv-x="340" 
d="M50 162v102h240v-102h-240z" />
    <glyph glyph-name="uni2011" unicode="&#x2011;" horiz-adv-x="340" 
d="M50 162v102h240v-102h-240z" />
    <glyph glyph-name="figuredash" unicode="&#x2012;" horiz-adv-x="620" 
d="M70 294v90h480v-90h-480z" />
    <glyph glyph-name="endash" unicode="&#x2013;" horiz-adv-x="620" 
d="M70 168v90h480v-90h-480z" />
    <glyph glyph-name="emdash" unicode="&#x2014;" horiz-adv-x="840" 
d="M70 168v90h700v-90h-700z" />
    <glyph glyph-name="afii00208" unicode="&#x2015;" horiz-adv-x="840" 
d="M70 168v90h700v-90h-700z" />
    <glyph glyph-name="quoteleft" unicode="&#x2018;" horiz-adv-x="290" 
d="M240 667l-102 -254l-88 34l124 247z" />
    <glyph glyph-name="quoteright" unicode="&#x2019;" horiz-adv-x="290" 
d="M50 447l102 254l88 -34l-124 -247z" />
    <glyph glyph-name="quotesinglbase" unicode="&#x201a;" horiz-adv-x="340" 
d="M50 -129l102 254l88 -34l-124 -247z" />
    <glyph glyph-name="quotedblleft" unicode="&#x201c;" horiz-adv-x="462" 
d="M412 667l-102 -254l-86 34l123 247zM238 667l-102 -254l-86 34l123 247z" />
    <glyph glyph-name="quotedblright" unicode="&#x201d;" horiz-adv-x="462" 
d="M50 447l102 254l86 -34l-123 -247zM224 447l102 254l86 -34l-123 -247z" />
    <glyph glyph-name="quotedblbase" unicode="&#x201e;" horiz-adv-x="512" 
d="M50 -129l102 254l86 -34l-123 -247zM224 -129l102 254l86 -34l-123 -247z" />
    <glyph glyph-name="dagger" unicode="&#x2020;" horiz-adv-x="568" 
d="M235 516v213h98v-213h138v-94h-138v-599h-98v599h-138v94h138z" />
    <glyph glyph-name="daggerdbl" unicode="&#x2021;" horiz-adv-x="568" 
d="M235 516v213h98v-213h138v-94h-138v-251h138v-94h-138v-254h-98v254h-138v94h138v251h-138v94h138z" />
    <glyph glyph-name="bullet" unicode="&#x2022;" horiz-adv-x="1000" 
d="M360 340q0 58 41 99t99 41t99 -41t41 -99t-41 -99t-99 -41t-99 41t-41 99z" />
    <glyph glyph-name="ellipsis" unicode="&#x2026;" horiz-adv-x="800" 
d="M80 48q0 25 17.5 42.5t42.5 17.5t42.5 -17.5t17.5 -42.5t-17.5 -42.5t-42.5 -17.5t-42.5 17.5t-17.5 42.5zM340 48q0 25 17.5 42.5t42.5 17.5t42.5 -17.5t17.5 -42.5t-17.5 -42.5t-42.5 -17.5t-42.5 17.5t-17.5 42.5zM600 48q0 25 17.5 42.5t42.5 17.5t42.5 -17.5
t17.5 -42.5t-17.5 -42.5t-42.5 -17.5t-42.5 17.5t-17.5 42.5z" />
    <glyph glyph-name="perthousand" unicode="&#x2030;" horiz-adv-x="1200" 
d="M194 673q66 0 113.5 -46.5t47.5 -110.5t-47.5 -110.5t-113.5 -46.5t-113.5 46.5t-47.5 110.5t47.5 110.5t113.5 46.5zM194 431q39 0 61 26.5t22 58.5t-22 58.5t-61 26.5t-61 -26.5t-22 -58.5t22 -58.5t61 -26.5zM191 18l381 660l47 -27l-381 -662zM616 307
q66 0 113.5 -46.5t47.5 -110.5t-47.5 -110.5t-113.5 -46.5t-113.5 46.5t-47.5 110.5t47.5 110.5t113.5 46.5zM616 65q39 0 61 26.5t22 58.5t-22 58.5t-61 26.5t-61 -26.5t-22 -58.5t22 -58.5t61 -26.5zM1006 307q66 0 113.5 -46.5t47.5 -110.5t-47.5 -110.5t-113.5 -46.5
t-113.5 46.5t-47.5 110.5t47.5 110.5t113.5 46.5zM1006 65q39 0 61 26.5t22 58.5t-22 58.5t-61 26.5t-61 -26.5t-22 -58.5t22 -58.5t61 -26.5z" />
    <glyph glyph-name="guilsinglleft" unicode="&#x2039;" horiz-adv-x="321" 
d="M140 219l127 -165l-65 -47l-162 212l162 212l65 -47z" />
    <glyph glyph-name="guilsinglright" unicode="&#x203a;" horiz-adv-x="321" 
d="M181 219l-127 165l65 47l162 -212l-162 -212l-65 47z" />
    <glyph glyph-name="fraction" unicode="&#x2044;" horiz-adv-x="230" 
d="M-100 17l382 661l48 -28l-382 -661z" />
    <glyph glyph-name="uni2070" unicode="&#x2070;" horiz-adv-x="370" 
d="M185 260q-57 0 -98 44q-55 60 -55 163t55 163q41 44 98 44t98 -44q55 -60 55 -163t-55 -163q-41 -44 -98 -44zM185 608q-31 0 -53 -30q-28 -38 -28 -111t28 -111q22 -30 53 -30t53 30q28 38 28 111t-28 111q-22 30 -53 30z" />
    <glyph glyph-name="uni2074" unicode="&#x2074;" horiz-adv-x="370" 
d="M295 697v-307h43v-66h-43v-57h-72v57h-209zM139 390h84v114z" />
    <glyph glyph-name="uni2075" unicode="&#x2075;" horiz-adv-x="370" 
d="M299 667v-66h-126l-17 -61q6 1 19 1q57 0 95 -29q48 -38 48 -105q0 -66 -44 -106.5t-114 -40.5q-91 0 -140 85l56 39q25 -58 85 -58q40 0 62.5 22t22.5 56t-22.5 55.5t-62.5 21.5q-48 0 -76 -34h-27l66 220h175z" />
    <glyph glyph-name="uni2076" unicode="&#x2076;" horiz-adv-x="370" 
d="M212 691l61 -43l-89 -128q6 1 18 1q52 0 90 -30.5t38 -92.5q0 -60 -40 -99t-105 -39q-69 0 -107 38.5t-38 90.5q0 54 33 102zM184 457q-31 0 -51.5 -18.5t-20.5 -47.5t21 -48t52 -19t52 19t21 48t-21 47.5t-53 18.5z" />
    <glyph glyph-name="uni2077" unicode="&#x2077;" horiz-adv-x="370" 
d="M34 283l194 318h-192v66h318l-252 -414z" />
    <glyph glyph-name="uni2078" unicode="&#x2078;" horiz-adv-x="370" 
d="M185 674q58 0 92 -34t34 -80q0 -54 -44 -85q55 -25 55 -94q0 -55 -40 -88t-97 -33t-97 33t-40 88q0 69 55 94q-44 31 -44 85q0 46 34 80t92 34zM185 610q-28 0 -43 -16t-15 -37q0 -20 15 -35.5t43 -15.5q27 0 42.5 15t15.5 36t-15 37t-43 16zM185 442q-31 0 -48 -17.5
t-17 -41.5q0 -23 17 -41t48 -18t48 18t17 41q0 24 -17 41.5t-48 17.5z" />
    <glyph glyph-name="uni2079" unicode="&#x2079;" horiz-adv-x="370" 
d="M158 243l-61 43l89 128q-6 -1 -17 -1q-51 0 -90 32t-39 90q0 61 40 100t105 39q69 0 107 -38.5t38 -90.5q0 -56 -33 -102zM186 477q31 0 51.5 18.5t20.5 47.5t-21 48t-52 19t-52 -19t-21 -48t21 -47.5t53 -18.5z" />
    <glyph glyph-name="uni2080" unicode="&#x2080;" horiz-adv-x="370" 
d="M185 -7q-57 0 -98 44q-55 61 -55 163t55 163q41 44 98 44t98 -44q55 -61 55 -163t-55 -163q-41 -44 -98 -44zM185 341q-31 0 -53 -30q-28 -38 -28 -111t28 -111q22 -30 53 -30t53 30q28 38 28 111t-28 111q-22 30 -53 30z" />
    <glyph glyph-name="uni2081" unicode="&#x2081;" horiz-adv-x="370" 
d="M162 0v334h-78l42 66h110v-400h-74z" />
    <glyph glyph-name="uni2082" unicode="&#x2082;" horiz-adv-x="370" 
d="M314 66v-66h-290l146 162q34 38 50 62q21 30 21 57t-17.5 43.5t-45.5 16.5q-32 0 -51 -22t-22 -51h-70q3 58 37 96q38 43 103 43t101.5 -36t36.5 -88q0 -36 -30 -85q-19 -30 -55 -70l-55 -62h141z" />
    <glyph glyph-name="uni2083" unicode="&#x2083;" horiz-adv-x="370" 
d="M115 286h-70q3 41 23 70q33 51 110 51q63 0 95 -32.5t32 -79.5q0 -62 -52 -84q11 -4 21.5 -10.5t24 -28.5t13.5 -52q0 -53 -36.5 -90t-104.5 -37q-95 0 -128 78q-10 24 -11 48h70q6 -60 69 -60q34 0 51.5 18t17.5 44q0 12 -3.5 23t-20 23t-45.5 12h-24v66h24q63 0 63 47
q0 24 -16 36.5t-42 12.5q-28 0 -43.5 -15t-17.5 -40z" />
    <glyph glyph-name="uni2084" unicode="&#x2084;" horiz-adv-x="370" 
d="M295 430v-307h43v-66h-43v-57h-72v57h-209zM139 123h84v114z" />
    <glyph glyph-name="uni2085" unicode="&#x2085;" horiz-adv-x="370" 
d="M299 400v-66h-126l-17 -61q6 1 19 1q57 0 95 -29q48 -38 48 -105q0 -66 -44 -106.5t-114 -40.5q-91 0 -140 85l56 39q25 -58 85 -58q40 0 62.5 22t22.5 56t-22.5 55.5t-62.5 21.5q-48 0 -76 -34h-27l66 220h175z" />
    <glyph glyph-name="uni2086" unicode="&#x2086;" horiz-adv-x="370" 
d="M212 424l61 -43l-89 -128q6 1 18 1q52 0 90 -30.5t38 -92.5q0 -61 -40 -99.5t-105 -38.5q-69 0 -107 38.5t-38 90.5q0 54 33 102zM184 190q-31 0 -51.5 -18.5t-20.5 -47.5t21 -48t52 -19t52 19t21 48t-21 47.5t-53 18.5z" />
    <glyph glyph-name="uni2087" unicode="&#x2087;" horiz-adv-x="370" 
d="M34 16l194 318h-192v66h318l-252 -414z" />
    <glyph glyph-name="uni2088" unicode="&#x2088;" horiz-adv-x="370" 
d="M185 407q58 0 92 -34t34 -80q0 -54 -44 -85q55 -25 55 -94q0 -55 -40 -88t-97 -33t-97 33t-40 88q0 69 55 94q-44 31 -44 85q0 46 34 80t92 34zM185 343q-28 0 -43 -16t-15 -37q0 -20 15 -35.5t43 -15.5q27 0 42.5 15.5t15.5 35.5q0 21 -15 37t-43 16zM185 175
q-31 0 -48 -17.5t-17 -41.5q0 -23 17 -41t48 -18t48 18t17 41q0 24 -17 41.5t-48 17.5z" />
    <glyph glyph-name="uni2089" unicode="&#x2089;" horiz-adv-x="370" 
d="M158 -24l-61 43l89 128q-6 -1 -17 -1q-51 0 -90 32t-39 90q0 61 40 100t105 39q69 0 107 -38.5t38 -90.5q0 -56 -33 -102zM186 210q31 0 51.5 18.5t20.5 47.5t-21 48t-52 19t-52 -19t-21 -48t21 -47.5t53 -18.5z" />
    <glyph glyph-name="Euro" unicode="&#x20ac;" horiz-adv-x="568" 
d="M542 641l-43 -89q-48 33 -118 33q-79 0 -135.5 -36.5t-78.5 -102.5h291l-30 -70h-275q-5 -39 -1 -74h247l-30 -70h-207q17 -70 75 -110.5t135 -40.5q87 0 160 57v-109q-81 -42 -163 -42q-144 0 -229 82q-68 64 -82 163h-68l30 70h30q-4 35 1 74h-61l30 70h41
q22 86 82 146q88 87 241 87q92 0 158 -38z" />
    <glyph glyph-name="uni20B4" unicode="&#x20b4;" horiz-adv-x="568" 
d="M80 567q36 48 83 76q58 36 133 36q76 0 120 -36q44 -35 44 -90q0 -57 -47 -106h111v-70h-164l-72 -74h236v-70h-297q-41 -35 -41 -83q0 -29 22 -49q24 -20 68 -20q54 0 93 31q33 27 47 62l85 -40q-22 -55 -72 -95q-65 -52 -161 -52q-78 0 -124 33q-60 42 -60 114
q0 55 39 99h-83v70h138l72 74h-210v70h269q49 35 49 80q0 26 -16 41q-18 17 -55 17q-38 0 -73 -20q-34 -20 -52 -46z" />
    <glyph glyph-name="uni20B6" unicode="&#x20b6;" horiz-adv-x="568" 
d="M281 667q92 0 146 -36q41 -26 62 -69t21 -87q0 -84 -53 -137q-61 -61 -175 -61h-46v-74h158v-70h-158v-133h-102v133h-73v70h73v74h-73v88h73v302h147zM236 573v-208h46q70 0 104 34q26 26 26 71q0 44 -28 72q-32 31 -103 31h-45z" />
    <glyph glyph-name="uni20B7" unicode="&#x20b7;" horiz-adv-x="568" 
d="M281 667q92 0 146 -36q41 -26 62 -69t21 -87q0 -84 -53 -137q-61 -61 -175 -61h-46v-74h158v-70h-158v-133h-102v133h-73v70h73v74h-73v88h73v302h147zM236 573v-208h46q70 0 104 34q26 26 26 71q0 44 -28 72q-32 31 -103 31h-45z" />
    <glyph glyph-name="uni20B8" unicode="&#x20b8;" horiz-adv-x="568" 
d="M281 667q92 0 146 -36q41 -26 62 -69t21 -87q0 -84 -53 -137q-61 -61 -175 -61h-46v-74h158v-70h-158v-133h-102v133h-73v70h73v74h-73v88h73v302h147zM236 573v-208h46q70 0 104 34q26 26 26 71q0 44 -28 72q-32 31 -103 31h-45z" />
    <glyph glyph-name="uni20B9" unicode="&#x20b9;" horiz-adv-x="568" 
d="M281 667q92 0 146 -36q41 -26 62 -69t21 -87q0 -84 -53 -137q-61 -61 -175 -61h-46v-74h158v-70h-158v-133h-102v133h-73v70h73v74h-73v88h73v302h147zM236 573v-208h46q70 0 104 34q26 26 26 71q0 44 -28 72q-32 31 -103 31h-45z" />
    <glyph glyph-name="uni20BA" unicode="&#x20ba;" horiz-adv-x="568" 
d="M281 667q92 0 146 -36q41 -26 62 -69t21 -87q0 -84 -53 -137q-61 -61 -175 -61h-46v-74h158v-70h-158v-133h-102v133h-73v70h73v74h-73v88h73v302h147zM236 573v-208h46q70 0 104 34q26 26 26 71q0 44 -28 72q-32 31 -103 31h-45z" />
    <glyph glyph-name="uni20BB" unicode="&#x20bb;" horiz-adv-x="568" 
d="M281 667q92 0 146 -36q41 -26 62 -69t21 -87q0 -84 -53 -137q-61 -61 -175 -61h-46v-74h158v-70h-158v-133h-102v133h-73v70h73v74h-73v88h73v302h147zM236 573v-208h46q70 0 104 34q26 26 26 71q0 44 -28 72q-32 31 -103 31h-45z" />
    <glyph glyph-name="uni20BC" unicode="&#x20bc;" horiz-adv-x="568" 
d="M281 667q92 0 146 -36q41 -26 62 -69t21 -87q0 -84 -53 -137q-61 -61 -175 -61h-46v-74h158v-70h-158v-133h-102v133h-73v70h73v74h-73v88h73v302h147zM236 573v-208h46q70 0 104 34q26 26 26 71q0 44 -28 72q-32 31 -103 31h-45z" />
    <glyph glyph-name="uni20BD" unicode="&#x20bd;" horiz-adv-x="568" 
d="M281 667q92 0 146 -36q41 -26 62 -69t21 -87q0 -84 -53 -137q-61 -61 -175 -61h-46v-74h158v-70h-158v-133h-102v133h-73v70h73v74h-73v88h73v302h147zM236 573v-208h46q70 0 104 34q26 26 26 71q0 44 -28 72q-32 31 -103 31h-45z" />
    <glyph glyph-name="uni20BE" unicode="&#x20be;" horiz-adv-x="568" 
d="M281 667q92 0 146 -36q41 -26 62 -69t21 -87q0 -84 -53 -137q-61 -61 -175 -61h-46v-74h158v-70h-158v-133h-102v133h-73v70h73v74h-73v88h73v302h147zM236 573v-208h46q70 0 104 34q26 26 26 71q0 44 -28 72q-32 31 -103 31h-45z" />
    <glyph glyph-name="uni20BF" unicode="&#x20bf;" horiz-adv-x="568" 
d="M281 667q92 0 146 -36q41 -26 62 -69t21 -87q0 -84 -53 -137q-61 -61 -175 -61h-46v-74h158v-70h-158v-133h-102v133h-73v70h73v74h-73v88h73v302h147zM236 573v-208h46q70 0 104 34q26 26 26 71q0 44 -28 72q-32 31 -103 31h-45z" />
    <glyph glyph-name="uni20C0" unicode="&#x20c0;" horiz-adv-x="568" 
d="M281 667q92 0 146 -36q41 -26 62 -69t21 -87q0 -84 -53 -137q-61 -61 -175 -61h-46v-74h158v-70h-158v-133h-102v133h-73v70h73v74h-73v88h73v302h147zM236 573v-208h46q70 0 104 34q26 26 26 71q0 44 -28 72q-32 31 -103 31h-45z" />
    <glyph glyph-name="uni20C1" unicode="&#x20c1;" horiz-adv-x="568" 
d="M281 667q92 0 146 -36q41 -26 62 -69t21 -87q0 -84 -53 -137q-61 -61 -175 -61h-46v-74h158v-70h-158v-133h-102v133h-73v70h73v74h-73v88h73v302h147zM236 573v-208h46q70 0 104 34q26 26 26 71q0 44 -28 72q-32 31 -103 31h-45z" />
    <glyph glyph-name="uni20C2" unicode="&#x20c2;" horiz-adv-x="568" 
d="M281 667q92 0 146 -36q41 -26 62 -69t21 -87q0 -84 -53 -137q-61 -61 -175 -61h-46v-74h158v-70h-158v-133h-102v133h-73v70h73v74h-73v88h73v302h147zM236 573v-208h46q70 0 104 34q26 26 26 71q0 44 -28 72q-32 31 -103 31h-45z" />
    <glyph glyph-name="uni20C3" unicode="&#x20c3;" horiz-adv-x="568" 
d="M281 667q92 0 146 -36q41 -26 62 -69t21 -87q0 -84 -53 -137q-61 -61 -175 -61h-46v-74h158v-70h-158v-133h-102v133h-73v70h73v74h-73v88h73v302h147zM236 573v-208h46q70 0 104 34q26 26 26 71q0 44 -28 72q-32 31 -103 31h-45z" />
    <glyph glyph-name="uni20C4" unicode="&#x20c4;" horiz-adv-x="568" 
d="M281 667q92 0 146 -36q41 -26 62 -69t21 -87q0 -84 -53 -137q-61 -61 -175 -61h-46v-74h158v-70h-158v-133h-102v133h-73v70h73v74h-73v88h73v302h147zM236 573v-208h46q70 0 104 34q26 26 26 71q0 44 -28 72q-32 31 -103 31h-45z" />
    <glyph glyph-name="uni20C5" unicode="&#x20c5;" horiz-adv-x="568" 
d="M281 667q92 0 146 -36q41 -26 62 -69t21 -87q0 -84 -53 -137q-61 -61 -175 -61h-46v-74h158v-70h-158v-133h-102v133h-73v70h73v74h-73v88h73v302h147zM236 573v-208h46q70 0 104 34q26 26 26 71q0 44 -28 72q-32 31 -103 31h-45z" />
    <glyph glyph-name="uni20C6" unicode="&#x20c6;" horiz-adv-x="568" 
d="M281 667q92 0 146 -36q41 -26 62 -69t21 -87q0 -84 -53 -137q-61 -61 -175 -61h-46v-74h158v-70h-158v-133h-102v133h-73v70h73v74h-73v88h73v302h147zM236 573v-208h46q70 0 104 34q26 26 26 71q0 44 -28 72q-32 31 -103 31h-45z" />
    <glyph glyph-name="uni20C7" unicode="&#x20c7;" horiz-adv-x="568" 
d="M281 667q92 0 146 -36q41 -26 62 -69t21 -87q0 -84 -53 -137q-61 -61 -175 -61h-46v-74h158v-70h-158v-133h-102v133h-73v70h73v74h-73v88h73v302h147zM236 573v-208h46q70 0 104 34q26 26 26 71q0 44 -28 72q-32 31 -103 31h-45z" />
    <glyph glyph-name="uni20C8" unicode="&#x20c8;" horiz-adv-x="568" 
d="M281 667q92 0 146 -36q41 -26 62 -69t21 -87q0 -84 -53 -137q-61 -61 -175 -61h-46v-74h158v-70h-158v-133h-102v133h-73v70h73v74h-73v88h73v302h147zM236 573v-208h46q70 0 104 34q26 26 26 71q0 44 -28 72q-32 31 -103 31h-45z" />
    <glyph glyph-name="uni20C9" unicode="&#x20c9;" horiz-adv-x="568" 
d="M281 667q92 0 146 -36q41 -26 62 -69t21 -87q0 -84 -53 -137q-61 -61 -175 -61h-46v-74h158v-70h-158v-133h-102v133h-73v70h73v74h-73v88h73v302h147zM236 573v-208h46q70 0 104 34q26 26 26 71q0 44 -28 72q-32 31 -103 31h-45z" />
    <glyph glyph-name="uni20CA" unicode="&#x20ca;" horiz-adv-x="568" 
d="M281 667q92 0 146 -36q41 -26 62 -69t21 -87q0 -84 -53 -137q-61 -61 -175 -61h-46v-74h158v-70h-158v-133h-102v133h-73v70h73v74h-73v88h73v302h147zM236 573v-208h46q70 0 104 34q26 26 26 71q0 44 -28 72q-32 31 -103 31h-45z" />
    <glyph glyph-name="uni20CB" unicode="&#x20cb;" horiz-adv-x="568" 
d="M281 667q92 0 146 -36q41 -26 62 -69t21 -87q0 -84 -53 -137q-61 -61 -175 -61h-46v-74h158v-70h-158v-133h-102v133h-73v70h73v74h-73v88h73v302h147zM236 573v-208h46q70 0 104 34q26 26 26 71q0 44 -28 72q-32 31 -103 31h-45z" />
    <glyph glyph-name="uni20CC" unicode="&#x20cc;" horiz-adv-x="568" 
d="M281 667q92 0 146 -36q41 -26 62 -69t21 -87q0 -84 -53 -137q-61 -61 -175 -61h-46v-74h158v-70h-158v-133h-102v133h-73v70h73v74h-73v88h73v302h147zM236 573v-208h46q70 0 104 34q26 26 26 71q0 44 -28 72q-32 31 -103 31h-45z" />
    <glyph glyph-name="uni20CD" unicode="&#x20cd;" horiz-adv-x="568" 
d="M281 667q92 0 146 -36q41 -26 62 -69t21 -87q0 -84 -53 -137q-61 -61 -175 -61h-46v-74h158v-70h-158v-133h-102v133h-73v70h73v74h-73v88h73v302h147zM236 573v-208h46q70 0 104 34q26 26 26 71q0 44 -28 72q-32 31 -103 31h-45z" />
    <glyph glyph-name="uni20CE" unicode="&#x20ce;" horiz-adv-x="568" 
d="M281 667q92 0 146 -36q41 -26 62 -69t21 -87q0 -84 -53 -137q-61 -61 -175 -61h-46v-74h158v-70h-158v-133h-102v133h-73v70h73v74h-73v88h73v302h147zM236 573v-208h46q70 0 104 34q26 26 26 71q0 44 -28 72q-32 31 -103 31h-45z" />
    <glyph glyph-name="uni20CF" unicode="&#x20cf;" horiz-adv-x="568" 
d="M281 667q92 0 146 -36q41 -26 62 -69t21 -87q0 -84 -53 -137q-61 -61 -175 -61h-46v-74h158v-70h-158v-133h-102v133h-73v70h73v74h-73v88h73v302h147zM236 573v-208h46q70 0 104 34q26 26 26 71q0 44 -28 72q-32 31 -103 31h-45z" />
    <glyph glyph-name="afii61352" unicode="&#x2116;" horiz-adv-x="1060" 
d="M182 0h-102v712l444 -483v438h102v-708l-444 483v-442zM857 667q66 0 113.5 -46.5t47.5 -110.5t-47.5 -110.5t-113.5 -46.5t-113.5 46.5t-47.5 110.5t47.5 110.5t113.5 46.5zM857 425q39 0 61 26.5t22 58.5t-22 58.5t-61 26.5t-61 -26.5t-22 -58.5t22 -58.5t61 -26.5z
M716 203v80h282v-80h-282z" />
    <glyph glyph-name="uni2117" unicode="&#x2117;" horiz-adv-x="758" 
d="M274 527h109q62 0 94 -31q30 -28 30 -80q0 -51 -28 -80q-33 -35 -112 -35h-22v-148h-71v374zM345 464v-104h14q40 0 60 15q18 14 18 41q0 25 -19 39q-13 9 -49 9h-24zM379 630q-122 0 -206 -84t-84 -213t84 -213t206 -84t206 84t84 213t-84 213t-206 84zM725 333
q0 -151 -98 -249t-248 -98t-248 98t-98 249t98 249t248 98t248 -98t98 -249z" />
    <glyph glyph-name="trademark" unicode="&#x2122;" horiz-adv-x="710" 
d="M238 601h-84v-314h-70v314h-84v66h238v-66zM331 287h-71l82 414l126 -280l127 280l81 -414h-71l-35 206l-102 -213l-102 213z" />
    <glyph glyph-name="Omega" unicode="&#x2126;" horiz-adv-x="666" 
d="M374 0v108q71 30 114 90q48 65 48 153q0 112 -69 179q-57 55 -134 55t-134 -55q-69 -67 -69 -179q0 -88 48 -153q43 -60 114 -90v-108h-264v96h161q-80 40 -124 117q-37 63 -37 144q0 150 93 241q82 81 212 81t212 -81q93 -91 93 -241q0 -81 -37 -144q-44 -77 -124 -117
h161v-96h-264z" />
    <glyph glyph-name="partialdiff" unicode="&#x2202;" horiz-adv-x="530" 
d="M96 586l18 87q123 -15 213 -76q78 -54 118 -135q45 -89 45 -212q0 -137 -66 -204q-59 -59 -157 -59q-100 0 -162 63q-65 66 -65 160q0 100 64 164q58 58 142 58q78 0 131 -47q-27 96 -114 148q-76 46 -167 53zM265 75q56 0 86 30q39 37 39 104t-40 104q-35 31 -85 31
q-52 0 -85 -31q-40 -40 -40 -104q0 -69 40 -105q33 -29 85 -29z" />
    <glyph glyph-name="Delta" unicode="&#x2206;" horiz-adv-x="668" 
d="M644 0h-620l256 667h104zM332 529l-160 -433h320z" />
    <glyph glyph-name="product" unicode="&#x220f;" horiz-adv-x="714" 
d="M38 654v96h638v-96h-80v-808h80v-96h-263v96h81v808h-273v-808h80v-96h-263v96h81v808h-81z" />
    <glyph glyph-name="summation" unicode="&#x2211;" horiz-adv-x="700" 
d="M32 750h598v-245h-94v149h-364l220 -382l-220 -426h372v147h94v-243h-606v46l252 476l-252 432v46z" />
    <glyph glyph-name="minus" unicode="&#x2212;" 
d="M33 291v90h434v-90h-434z" />
    <glyph glyph-name="uni2215" unicode="&#x2215;" horiz-adv-x="684" 
d="M0 -177l526 942l80 -36l-526 -942z" />
    <glyph glyph-name="uni2219" unicode="&#x2219;" horiz-adv-x="200" 
d="M22 340q0 33 22.5 55.5t55.5 22.5t55.5 -22.5t22.5 -55.5t-22.5 -55.5t-55.5 -22.5t-55.5 22.5t-22.5 55.5z" />
    <glyph glyph-name="radical" unicode="&#x221a;" horiz-adv-x="668" 
d="M394 827h274v-88h-190l-193 -739h-126l-71 286h-88v88h168l50 -251h8z" />
    <glyph glyph-name="infinity" unicode="&#x221e;" horiz-adv-x="670" 
d="M335 275q-67 -93 -162 -93q-68 0 -111.5 44t-43.5 113q0 70 43.5 114.5t112.5 44.5q98 0 161 -93q63 93 161 93q69 0 112.5 -44.5t43.5 -114.5q0 -69 -43.5 -113t-111.5 -44q-95 0 -162 93zM482 410q-27 0 -53.5 -20.5t-44.5 -49.5q17 -30 44 -50t54 -20q31 0 51 20
t20 50q0 29 -21 49.5t-50 20.5zM188 270q27 0 54 20t44 50q-18 29 -44.5 49.5t-53.5 20.5q-29 0 -50 -20.5t-21 -49.5q0 -30 20 -50t51 -20z" />
    <glyph glyph-name="integral" unicode="&#x222b;" 
d="M75 -239l18 86q24 -13 53 -13q26 0 40 15t14 87v618q0 37 1 55.5t8.5 47t23.5 47.5q40 46 117 46q41 0 75 -11l-18 -86q-24 13 -53 13q-26 0 -40 -15t-14 -87v-618q0 -37 -1 -55.5t-8.5 -47t-23.5 -47.5q-40 -46 -117 -46q-41 0 -75 11z" />
    <glyph glyph-name="approxequal" unicode="&#x2248;" 
d="M435 505l57 -33q-26 -62 -66 -93q-36 -28 -83 -28q-36 0 -112 32q-61 26 -87 26q-31 0 -51 -22q-18 -18 -29 -45l-56 36q21 51 50 83q37 42 92 42q38 0 110 -31q65 -28 93 -28q29 0 49 18q20 17 33 43zM435 323l57 -33q-26 -62 -66 -93q-36 -28 -83 -28q-36 0 -112 32
q-61 26 -87 26q-31 0 -51 -22q-18 -18 -29 -45l-56 36q21 51 50 83q37 42 92 42q38 0 110 -31q65 -28 93 -28q29 0 49 18q20 17 33 43z" />
    <glyph glyph-name="notequal" unicode="&#x2260;" 
d="M33 380v84h238l52 110h78l-52 -110h118v-84h-158l-37 -78h195v-84h-235l-55 -116h-78l55 116h-121v84h161l37 78h-198z" />
    <glyph glyph-name="lessequal" unicode="&#x2264;" 
d="M137 391l330 -149v-92l-434 200v82l434 200v-92zM467 32h-434v90h434v-90z" />
    <glyph glyph-name="greaterequal" unicode="&#x2265;" 
d="M363 391l-330 149v92l434 -200v-82l-434 -200v92zM467 32h-434v90h434v-90z" />
    <glyph glyph-name="dotmath" unicode="&#x22c5;" horiz-adv-x="200" 
d="M22 340q0 33 22.5 55.5t55.5 22.5t55.5 -22.5t22.5 -55.5t-22.5 -55.5t-55.5 -22.5t-55.5 22.5t-22.5 55.5z" />
    <glyph glyph-name="lozenge" unicode="&#x25ca;" horiz-adv-x="700" 
d="M90 334l260 360l260 -360l-260 -360zM496 334l-146 202l-146 -202l146 -202z" />
    <glyph glyph-name="openbullet" unicode="&#x25e6;" 
d="M104 522q0 61 42 103t104 42t104 -42t42 -103t-42 -103t-104 -42t-104 42t-42 103zM166 522q0 -37 24.5 -62t59.5 -25t59.5 25t24.5 62t-24.5 62t-59.5 25t-59.5 -25t-24.5 -62z" />
    <glyph glyph-name="uniF400" unicode="&#xf400;" horiz-adv-x="2" 
d="M-173 675l90 -46l-156 -144l-54 34z" />
    <glyph glyph-name="uniF401" unicode="&#xf401;" horiz-adv-x="2" 
d="M-314 727l-48 40l138 139l86 -60z" />
    <glyph glyph-name="uniF406" unicode="&#xf406;" 
d="M338 874h82q-9 -49 -40 -86q-48 -58 -130 -58t-130 58q-31 37 -40 86h82q9 -33 34 -49q22 -15 54 -15t54 15q25 16 34 49z" />
    <glyph glyph-name="uniF407" unicode="&#xf407;" 
d="M290 -53l86 -38l-112 -133l-64 32z" />
    <glyph glyph-name="uniF408" unicode="&#xf408;" 
d="M250 812l-99 -82l-66 56l165 134l165 -134l-66 -56z" />
    <glyph glyph-name="uniF409" unicode="&#xf409;" 
d="M170 -242l72 192l88 -34l-90 -186z" />
    <glyph glyph-name="uniF40A" unicode="&#xf40a;" 
d="M150 468l82 212l88 -34l-104 -206z" />
    <glyph glyph-name="uniF40B" unicode="&#xf40b;" 
d="M183 801q0 29 19.5 48t47.5 19t47.5 -19t19.5 -48t-19.5 -48t-47.5 -19t-47.5 19t-19.5 48z" />
    <glyph glyph-name="uniF40C" unicode="&#xf40c;" 
d="M153 823q0 41 28.5 69t68.5 28t68.5 -28t28.5 -69q0 -40 -28 -68.5t-69 -28.5q-40 0 -68.5 28.5t-28.5 68.5zM207 823q0 -18 12.5 -30.5t30.5 -12.5t30.5 12.5t12.5 30.5t-12.5 30.5t-30.5 12.5t-30.5 -12.5t-12.5 -30.5z" />
    <glyph glyph-name="uniF40D" unicode="&#xf40d;" 
d="M372 863l58 -46q-41 -84 -116 -84q-27 0 -55 13l-20.5 10t-12 6t-9.5 4q-25 9 -37 9q-36 0 -51 -42l-59 41q19 34 42 54q32 27 70 27q22 0 49 -9q32 -14 46 -21q28 -14 41 -14q39 0 54 52z" />
    <glyph glyph-name="uniF40E" unicode="&#xf40e;" 
d="M246 0h78q-31 -17 -51 -39q-21 -23 -21 -45q0 -31 40 -31q24 0 52 7l-9 -70q-31 -15 -66 -15q-41 0 -70 24t-29 64q0 34 26 64q19 22 50 41z" />
    <glyph glyph-name="uniF43E" unicode="&#xf43e;" horiz-adv-x="428" 
d="M418 571h-153v-571h-102v571h-153v96h408v-96zM200 -53l86 -38l-112 -133l-64 32z" />
    <glyph glyph-name="uniF43F" unicode="&#xf43f;" horiz-adv-x="242" 
d="M238 331h-75v-331h-98v331h-41v90h41v154h98v-154h75v-90zM98 -53l82 -32l-102 -134l-64 32z" />
    <glyph glyph-name="uniF47E" unicode="&#xf47e;" horiz-adv-x="654" 
d="M80 667h102v-402q0 -78 21 -115q17 -28 50 -48.5t74 -20.5t74 20.5t50 48.5q21 37 21 115v402h102v-429q0 -105 -62 -173q-72 -78 -185 -78t-185 78q-62 68 -62 173v429zM260 801q0 29 19 48t48 19t48 -19t19 -48t-19 -48t-48 -19t-48 19t-19 48z" />
    <glyph glyph-name="uniF47F" unicode="&#xf47f;" horiz-adv-x="484" 
d="M62 421h98v-241q0 -53 18 -76q22 -29 64 -29t64 29q18 23 18 76v241h98v-244q0 -93 -45 -138q-52 -52 -137 -52q-82 0 -133 52q-45 45 -45 138v244zM177 550q0 27 19 46t46 19t46 -19t19 -46t-19 -46t-46 -19t-46 19t-19 46z" />
    <glyph glyph-name="uniF481" unicode="&#xf481;" horiz-adv-x="656" 
d="M542 0l-70 161h-285l-73 -161h-110l332 706l316 -706h-110zM229 257h202l-99 226zM323 -53l86 -38l-112 -133l-64 32z" />
    <glyph glyph-name="uniF482" unicode="&#xf482;" horiz-adv-x="530" 
d="M370 372v49h98v-421h-98v44q-49 -57 -126 -57q-93 0 -148.5 66t-55.5 158q0 100 59.5 160.5t145.5 60.5q79 0 125 -60zM257 344q-52 0 -84.5 -39t-32.5 -96q0 -56 32.5 -95t84.5 -39q50 0 84.5 35t34.5 98q0 65 -34.5 100.5t-84.5 35.5zM258 -53l82 -32l-102 -134l-64 32
z" />
    <glyph glyph-name="uniF483" unicode="&#xf483;" horiz-adv-x="554" 
d="M524 667l-328 -571h320v-96h-486l328 571h-274v96h440zM216 823q0 41 28.5 69t68.5 28q41 0 69 -28t28 -69q0 -40 -28 -68.5t-69 -28.5q-40 0 -68.5 28.5t-28.5 68.5zM270 823q0 -18 12.5 -30.5t30.5 -12.5t30.5 12.5t12.5 30.5t-12.5 30.5t-30.5 12.5t-30.5 -12.5
t-12.5 -30.5z" />
    <glyph glyph-name="uniF484" unicode="&#xf484;" horiz-adv-x="480" 
d="M472 421l-271 -331h250v-90h-443l273 331h-215v90h406zM173 579q0 38 28 66t66 28t66 -28t28 -66t-28 -66t-66 -28t-66 28t-28 66zM224 579q0 -18 12.5 -30.5t30.5 -12.5t30.5 12.5t12.5 30.5t-12.5 30.5t-30.5 12.5t-30.5 -12.5t-12.5 -30.5z" />
    <glyph glyph-name="uniF485" unicode="&#xf485;" horiz-adv-x="980" 
d="M450 567l-82 -48q-10 24 -30 42q-30 24 -72 24q-45 0 -69.5 -23t-24.5 -57q0 -52 72 -81l67 -27q157 -64 157 -196q0 -95 -60.5 -154.5t-154.5 -59.5q-97 0 -157 67q-49 55 -56 130l101 22q0 -48 28 -85q32 -40 87 -40q47 0 78.5 31t31.5 81q0 46 -26.5 71t-69.5 43
l-64 27q-136 57 -136 169q0 72 52.5 124t142.5 52q81 0 134 -45q32 -28 51 -67zM913 567l-82 -48q-10 24 -30 42q-30 24 -72 24q-45 0 -69.5 -23t-24.5 -57q0 -52 72 -81l67 -27q157 -64 157 -196q0 -95 -60.5 -154.5t-154.5 -59.5q-97 0 -157 67q-49 55 -56 130l101 22
q0 -48 28 -85q32 -40 87 -40q47 0 78.5 31t31.5 81q0 46 -26.5 71t-69.5 43l-64 27q-136 57 -136 169q0 72 52.5 124t142.5 52q82 0 134 -45q32 -28 51 -67z" />
    <glyph glyph-name="uniF4C4" unicode="&#xf4c4;" horiz-adv-x="428" 
d="M418 571h-153v-571h-102v571h-153v96h408v-96zM210 -53l86 -38l-112 -133l-64 32z" />
    <glyph glyph-name="uniF4C5" unicode="&#xf4c5;" horiz-adv-x="360" 
d="M352 331h-123v-331h-98v331h-123v90h344v-90zM168 -53l82 -32l-102 -134l-64 32z" />
    <glyph glyph-name="uniF4C6" unicode="&#xf4c6;" horiz-adv-x="606" 
d="M60 667h102v-182q0 -75 36 -103q27 -21 106 -21q57 0 120 7v299h102v-753q0 -82 -44 -117q-33 -27 -94 -27q-36 0 -66 9v92q23 -9 47 -9q33 0 46 22q9 15 9 60v330q-91 -7 -136 -7q-111 0 -163 41q-65 51 -65 162v197z" />
    <glyph glyph-name="uniF4C7" unicode="&#xf4c7;" horiz-adv-x="450" 
d="M290 421h98v-507q0 -83 -44 -117q-35 -27 -90 -27q-42 0 -66 9v88q23 -9 47 -9q33 0 46 22q9 15 9 60v223q-45 -9 -86 -9q-72 0 -111 31q-41 33 -41 101v135h98v-115q0 -43 25 -58q17 -10 49 -10q36 0 66 11v172z" />
    <glyph glyph-name="uniF4C8" unicode="&#xf4c8;" horiz-adv-x="620" 
d="M574 631v-120q-82 74 -181 74q-108 0 -175.5 -71.5t-67.5 -182.5q0 -107 69 -178.5t175 -71.5q99 0 180 77v-121q-84 -50 -183 -50q-139 0 -236 92q-107 100 -107 252q0 160 107 261q92 87 241 87q103 0 178 -48zM350 -53l86 -38l-112 -133l-64 32z" />
    <glyph glyph-name="uniF4C9" unicode="&#xf4c9;" horiz-adv-x="420" 
d="M388 402v-110q-53 52 -119 52q-56 0 -93 -37q-36 -36 -36 -97q0 -63 38 -101q36 -34 89 -34q73 0 121 54v-109q-53 -33 -128 -33q-101 0 -160 62q-60 62 -60 158q0 99 64 163q62 62 169 62q61 0 115 -30zM218 -53l82 -32l-102 -134l-64 32z" />
    <glyph glyph-name="uniF4CC" unicode="&#xf4cc;" horiz-adv-x="570" 
d="M6 667h124l172 -356l156 356h106l-301 -667h-106l86 189zM272 727l-48 40l138 139l86 -60z" />
    <glyph glyph-name="uniF4CD" unicode="&#xf4cd;" horiz-adv-x="482" 
d="M31 -229l155 295l-180 355h118l120 -246l122 246h110l-335 -650h-110zM316 675l90 -46l-156 -144l-54 34z" />
    <glyph glyph-name="uniF639" unicode="&#xf639;" horiz-adv-x="522" 
d="M261 -11q-88 0 -151 72q-85 97 -85 272q0 176 85 273q63 72 151 72t151 -72q85 -97 85 -273q0 -175 -85 -272q-63 -72 -151 -72zM261 588q-54 0 -90 -55q-46 -68 -46 -199q0 -130 46 -200q36 -55 90 -55t90 55q46 70 46 200q0 131 -46 199q-36 55 -90 55z" />
    <glyph glyph-name="uniF63A" unicode="&#xf63a;" horiz-adv-x="496" 
d="M469 94v-94h-448l231 280q52 63 80 104q35 52 35 96q0 45 -29 76.5t-82 31.5t-84 -35t-34 -86h-98q4 88 56 146q58 65 156 65q101 0 158 -59t57 -142q0 -69 -48 -140q-26 -39 -95 -120l-104 -123h249z" />
    <glyph glyph-name="uniF63B" unicode="&#xf63b;" horiz-adv-x="472" 
d="M138 497h-98q4 79 57 130t146 51q91 0 144 -55q48 -49 48 -127q0 -50 -23 -88q-23 -36 -60 -56q42 -16 66 -53q28 -41 28 -103q0 -92 -57 -149q-58 -58 -163 -58q-97 0 -149 56q-49 52 -57 136h98q8 -45 36 -72q32 -30 81 -30q47 0 78 28q35 33 35 94q0 50 -30 79
q-31 30 -86 30h-20v86h14q56 0 85 29q26 26 26 71q0 41 -26 67q-26 25 -71 25q-48 0 -74 -27q-10 -11 -17 -26.5t-9 -24.5t-2 -13z" />
    <glyph glyph-name="uniF63C" unicode="&#xf63c;" horiz-adv-x="522" 
d="M429 716v-496h72v-94h-72v-126h-98v126h-330zM179 218h152v215z" />
    <glyph glyph-name="uniF63D" unicode="&#xf63d;" 
d="M463 667v-94h-206l-33 -111q20 2 31 2q94 0 154 -59q65 -63 65 -171q0 -109 -68 -177q-69 -68 -185 -68q-76 0 -128 30q-48 29 -79 77l77 64q14 -34 51 -58q34 -23 87 -23q63 0 102 37q43 43 43 113t-40 108q-39 37 -109 37q-40 0 -78 -14q-34 -13 -59 -30l99 337h276z
" />
    <glyph glyph-name="uniF63E" unicode="&#xf63e;" horiz-adv-x="502" 
d="M313 690l74 -55l-159 -201q20 4 42 4q94 0 154 -62q59 -62 59 -156q0 -103 -66 -168q-64 -63 -172 -63q-109 0 -172 65q-58 61 -58 151q0 66 32 128q7 14 14.5 26.5t17 26.5t14.5 20.5l18.5 24l16.5 21.5zM250 351q-57 0 -96 -37t-39 -99q0 -61 39 -99q39 -37 96 -37
t94 37q39 39 39 99t-39 99q-37 37 -94 37z" />
    <glyph glyph-name="uniF63F" unicode="&#xf63f;" horiz-adv-x="529" 
d="M27 27l332 546h-328v94h496l-420 -690z" />
    <glyph glyph-name="uniF640" unicode="&#xf640;" horiz-adv-x="470" 
d="M235 303q-48 0 -79 -31t-31 -81q0 -45 30 -78q30 -34 80 -34t80 34q30 33 30 78q0 50 -31 81t-79 31zM235 588q-44 0 -73 -27q-28 -28 -28 -74q0 -43 27 -70q28 -30 74 -30t74 30q27 27 27 70q0 46 -28 74q-29 27 -73 27zM345 347q45 -19 70 -54q30 -40 30 -100
q0 -87 -53 -142q-58 -62 -157 -62t-157 62q-53 55 -53 142q0 60 30 100q25 35 70 54q-36 15 -59 50q-24 38 -24 91q0 85 56 139q54 51 137 51t137 -51q56 -54 56 -139q0 -53 -24 -91q-23 -35 -59 -50z" />
    <glyph glyph-name="uniF641" unicode="&#xf641;" horiz-adv-x="501" 
d="M189 -23l-74 55l157 201q-17 -4 -36 -4q-94 0 -156 62q-61 61 -61 152q0 99 66 167t172 68q108 0 172 -66q58 -60 58 -151q0 -65 -32 -127q-7 -14 -14.5 -26.5t-17 -26.5t-14.5 -20.5l-18.5 -24l-16.5 -21.5zM252 316q57 0 96 40q39 41 39 99t-39 95q-40 38 -95 38
t-95 -38q-39 -39 -39 -98q0 -60 39 -99q39 -37 94 -37z" />
    <glyph glyph-name="uniF6BA" unicode="&#xf6ba;" horiz-adv-x="340" 
d="M50 288v102h240v-102h-240z" />
    <glyph glyph-name="uniF6BB" unicode="&#xf6bb;" horiz-adv-x="620" 
d="M70 294v90h480v-90h-480z" />
    <glyph glyph-name="uniF6BC" unicode="&#xf6bc;" horiz-adv-x="840" 
d="M70 294v90h700v-90h-700z" />
    <glyph glyph-name="uniF6C3" unicode="&#xf6c3;" 
d="M170 -242l72 192l88 -34l-90 -186z" />
    <glyph glyph-name="uniF6C9" unicode="&#xf6c9;" 
d="M234 727l-48 40l138 139l86 -60z" />
    <glyph glyph-name="uniF6CA" unicode="&#xf6ca;" 
d="M250 838l99 82l66 -56l-165 -134l-165 134l66 56z" />
    <glyph glyph-name="uniF6CB" unicode="&#xf6cb;" 
d="M90 795q0 26 18 44t44 18t44 -18t18 -44t-18 -44t-44 -18t-44 18t-18 44zM286 795q0 26 18 44t44 18t44 -18t18 -44t-18 -44t-44 -18t-44 18t-18 44z" />
    <glyph glyph-name="uniF6CE" unicode="&#xf6ce;" 
d="M266 727l-176 119l86 60l138 -139z" />
    <glyph glyph-name="uniF6CF" unicode="&#xf6cf;" 
d="M232 906l78 -52l-156 -127l-44 36zM432 906l78 -52l-156 -127l-44 36z" />
    <glyph glyph-name="uniF6D0" unicode="&#xf6d0;" 
d="M70 733v80h360v-80h-360z" />
    <glyph glyph-name="uniF6D1" unicode="&#xf6d1;" 
d="M85 832l80 36q6 -19 18.5 -31.5t28 -17t23.5 -6t15 -1.5t15 1.5t23.5 6t28 17t18.5 31.5l80 -36q-23 -56 -69.5 -79t-95.5 -23t-95.5 23t-69.5 79z" />
    <glyph glyph-name="uniF6D4" unicode="&#xf6d4;" 
d="M88 603l80 23q19 -65 82 -65q62 0 82 65l80 -23q-16 -57 -64.5 -87.5t-97.5 -30.5t-97.5 30.5t-64.5 87.5z" />
    <glyph glyph-name="uniF6DC" unicode="&#xf6dc;" horiz-adv-x="259" 
d="M121 0v573h-116l56 94h162v-667h-102z" />
    <glyph glyph-name="uniF6DE" unicode="&#xf6de;" horiz-adv-x="630" 
d="M52 168v90h525v-90h-525z" />
    <glyph glyph-name="uniF8FF" unicode="&#xf8ff;" horiz-adv-x="668" 
d="M480 691v-10q0 -60 -50 -113q-16 -17 -44.5 -34.5t-43.5 -17.5q-17 0 -17 18q0 48 45 96.5t110 60.5zM623 457q-80 -51 -80 -140q0 -50 26.5 -89t72.5 -59q-24 -75 -74.5 -135.5t-94.5 -60.5q-17 0 -40 9l-41 16q-13 5 -41 5t-43 -6l-43 -17q-21 -8 -38 -8q-55 0 -111 82
q-84 124 -84 252q0 104 55.5 162t131.5 58q29 0 77 -18q32 -12 48 -12q18 0 43 10q62 22 92 22q93 0 144 -71z" />
    <glyph glyph-name="uni20B4.fitted" horiz-adv-x="523" 
d="M60 567q36 48 83 76q58 36 133 36q76 0 120 -36q44 -35 44 -90q0 -57 -47 -106h111v-70h-164l-72 -74h236v-70h-297q-41 -35 -41 -83q0 -29 22 -49q24 -20 68 -20q54 0 93 31q33 27 47 62l85 -40q-22 -55 -72 -95q-65 -52 -161 -52q-78 0 -124 33q-60 42 -60 114
q0 55 39 99h-83v70h138l72 74h-210v70h269q49 35 49 80q0 26 -16 41q-18 17 -55 17q-38 0 -73 -20q-34 -20 -52 -46z" />
    <glyph glyph-name="hyphenminus" horiz-adv-x="340" 
d="M50 162v102h240v-102h-240z" />
    <glyph glyph-name="cent.fitted" horiz-adv-x="377" 
d="M359 527v-109q-48 51 -122 51q-53 0 -87 -34q-39 -37 -39 -100q0 -64 38 -100q37 -35 92 -35q70 0 118 54v-109q-44 -29 -94 -32v-100h-74v103q-71 11 -120 60q-60 60 -60 158q0 102 68 166q48 46 112 54v101h74v-99q49 -4 94 -29z" />
    <glyph glyph-name="uni20B6.fitted" horiz-adv-x="480" 
d="M240 667q92 0 146 -36q41 -26 62 -69t21 -87q0 -84 -53 -137q-61 -61 -175 -61h-46v-74h158v-70h-158v-133h-102v133h-73v70h73v74h-73v88h73v302h147zM195 573v-208h46q70 0 104 34q26 26 26 71q0 44 -28 72q-32 31 -103 31h-45z" />
    <glyph glyph-name="yen.fitted" horiz-adv-x="542" 
d="M510 377h-143l-41 -74h184v-70h-192v-233h-94v233h-192v70h184l-41 74h-143v70h104l-121 220h110l146 -267l146 267h110l-121 -220h104v-70z" />
    <glyph glyph-name="sterling.fitted" horiz-adv-x="560" 
d="M512 444h-98v4q0 70 -35 105q-31 31 -80 31q-53 0 -86 -31q-33 -33 -33 -81q0 -45 51 -142h130v-72h-101q12 -36 12 -65q0 -34 -14 -65l53 -19q60 -20 76 -20q48 0 69 63l82 -48q-22 -46 -51 -75q-38 -38 -97 -38q-40 0 -112 25q-76 28 -101 28q-49 0 -68 -59l-87 44
q26 56 70 87q30 20 63 22q15 30 15 62q0 34 -15 58h-114v72h78q-41 86 -41 141q0 87 57 144q65 63 165 63q95 0 151 -56q61 -61 61 -173v-5z" />
    <glyph glyph-name="florin.fitted" 
d="M494 731l-18 -93q-21 10 -44 10q-32 0 -51 -21q-18 -21 -28 -74l-24 -132h112l-14 -78h-112l-51 -279q-9 -48 -14.5 -72t-21 -59.5t-36.5 -55.5q-64 -62 -186 -53l16 93h6q63 0 90 27q27 26 44 119l51 280h-85l14 78h85l26 144q16 90 58 132q43 43 115 43q37 0 68 -9z
" />
    <glyph glyph-name="dotlessi1" horiz-adv-x="222" 
d="M62 421h98v-421h-98v421z" />
    <glyph glyph-name="dollar.fitted" horiz-adv-x="455" 
d="M422 567l-82 -48q-10 24 -30 42q-28 24 -72 24q-47 0 -74 -27q-20 -20 -20 -51q0 -34 26 -56q20 -17 63 -34l50 -20q76 -31 111 -70q46 -51 46 -126q0 -90 -58 -152q-46 -49 -110 -58v-101h-74v98q-77 6 -130 66q-49 55 -56 130l101 22q0 -48 28 -85q32 -40 87 -40
q48 0 79 32q31 31 31 80q0 43 -29 73q-19 20 -67 41l-64 27q-58 25 -94 61q-42 43 -42 102q0 80 51 129q43 41 105 50v89h74v-88q48 -4 87 -33q41 -32 63 -77z" />
    <glyph glyph-name="Euro.fitted" horiz-adv-x="598" 
d="M568 641l-43 -89q-48 33 -118 33q-79 0 -135.5 -36.5t-78.5 -102.5h291l-30 -70h-275q-5 -39 -1 -74h247l-30 -70h-207q17 -70 75 -110.5t135 -40.5q87 0 160 57v-109q-81 -42 -163 -42q-144 0 -229 82q-68 64 -82 163h-68l30 70h30q-4 35 1 74h-61l30 70h41
q22 86 82 146q88 87 241 87q92 0 158 -38z" />
    </font>
</defs>
</svg>
